{
.appVersion = "3109";
classes = (
{
code = "uni0713.Init uni0713.Medi uni0714.Init uni0714.Medi uni072E.Init uni072E.Medi";
name = class1;
},
{
code = "uni0713.Fina uni0713.Medi uni0714.Fina uni0714.Medi uni072E.Fina uni072E.Medi";
name = class2;
},
{
code = "uni0713.Fina uni0713.Medi uni0713.MediLong uni0714.Fina uni0714.Medi uni0714.MediLong uni072E.Fina uni072E.Medi uni072E.MediLong";
name = class3;
},
{
code = "uni0712.Init uni0712.Medi uni0713.Init uni0713.InitLong uni0713.Medi uni0713.MediLong uni0713.MediWide uni0713.MediWide2 uni0714.Init uni0714.InitLong uni0714.Medi uni0714.MediLong uni0714.MediWide uni0714.MediWide2 uni071A.Init uni071A.Medi uni071F.Init uni071F.Medi uni0721.Init uni0721.Medi uni0722.Init uni0722.Medi uni0723.Init uni0723.Medi uni0724.Init uni0724.Medi uni0725.Init uni0725.Medi uni0726.Init uni0726.Medi uni0727.Init uni0727.Medi uni072B.Init uni072B.Medi uni072D.Init uni072D.Medi uni072E.Init uni072E.InitLong uni072E.Medi uni072E.MediLong uni072E.MediWide uni072E.MediWide2";
name = class4;
},
{
code = "uni071B.Init uni071B.Medi uni071C.Init uni071C.Medi uni0720.Init uni0720.Medi uni074F.Init uni074F.Medi";
name = class6;
},
{

glyphs = (
{
glyphname = .notdef;
lastChange = "2018-09-11 18:35:11 +0000";
layers = (
{
layerId = UUID0;
paths = (
{
closed = 1;
nodes = (
"94 0 LINE",
"505 0 LINE",
"505 714 LINE",
"94 714 LINE"
);
},
{
closed = 1;
nodes = (
"145 51 LINE",
"145 663 LINE",
"454 663 LINE",
"454 51 LINE"
);
}
);
width = 600;
}
);
},
{
glyphname = uni200E;
lastChange = "2018-09-11 18:35:11 +0000";
layers = (
{
layerId = UUID0;
paths = (
{
closed = 1;
nodes = (
"17 0 LINE",
"17 603 LINE",
"147 603 LINE",
"80 539 LINE",
"104 515 LINE",
"210 620 LINE",
"104 725 LINE",
"80 701 LINE",
"147 637 LINE",
"-18 637 LINE",
"-18 0 LINE"
);
}
);
width = 0;
}
);
unicode = 200E;
},
{
glyphname = uni200F;
lastChange = "2018-09-11 18:35:11 +0000";
layers = (
{
layerId = UUID0;
paths = (
{
closed = 1;
nodes = (
"17 0 LINE",
"17 637 LINE",
"-147 637 LINE",
"-81 701 LINE",
"-104 725 LINE",
"-210 620 LINE",
"-104 515 LINE",
"-81 539 LINE",
"-147 603 LINE",
"-18 603 LINE",
"-18 0 LINE"
);
}
);
width = 0;
}
);
unicode = 200F;
},
{
glyphname = uni0710;
lastChange = "2018-09-11 18:35:11 +0000";
layers = (
{
anchors = (
{
name = Anchor6;
position = "{429, -49}";
},
{
name = Anchor8;
position = "{392, 492}";
}
);
layerId = UUID0;
paths = (
{
closed = 1;
nodes = (
"780 58 LINE",
"744 69 OFFCURVE",
"708 84 OFFCURVE",
"671 107 CURVE SMOOTH",
"635 129 OFFCURVE",
"589 164 OFFCURVE",
"535 209 CURVE SMOOTH",
"480 254 OFFCURVE",
"433 286 OFFCURVE",
"390 302 CURVE",
"390 307 LINE",
"581 320 OFFCURVE",
"798 407 OFFCURVE",
"922 547 CURVE",
"869 595 LINE",
"722 462 OFFCURVE",
"502 366 OFFCURVE",
"310 366 CURVE SMOOTH",
"209 366 OFFCURVE",
"155 370 OFFCURVE",
"102 377 CURVE",
"81 371 OFFCURVE",
"73 355 OFFCURVE",
"73 326 CURVE SMOOTH",
"73 317 OFFCURVE",
"81 279 OFFCURVE",
"95 213 CURVE SMOOTH",
"109 147 OFFCURVE",
"123 77 OFFCURVE",
"134 0 CURVE",
"208 0 LINE",
"194 104 OFFCURVE",
"172 208 OFFCURVE",
"148 303 CURVE",
"156 303 LINE SMOOTH",
"265 303 OFFCURVE",
"374 254 OFFCURVE",
"484 156 CURVE SMOOTH",
"594 58 OFFCURVE",
"681 3 OFFCURVE",
"746 -8 CURVE"
);
}
);
width = 930;
}
);
unicode = 0710;
},
{
glyphname = uni0710.SYRJ;
lastChange = "2018-09-11 18:35:11 +0000";
layers = (
{
anchors = (
{
name = Anchor120;
position = "{124, -196}";
},
{
name = Anchor122;
position = "{136, 763}";
}
);
layerId = UUID0;
paths = (
{
closed = 1;
nodes = (
"133 680 LINE",
"85 623 LINE",
"134 574 OFFCURVE",
"158 544 OFFCURVE",
"158 487 CURVE SMOOTH",
"158 442 OFFCURVE",
"146 389 OFFCURVE",
"119 326 CURVE SMOOTH",
"85 246 OFFCURVE",
"68 171 OFFCURVE",
"68 103 CURVE SMOOTH",
"68 44 OFFCURVE",
"76 -29 OFFCURVE",
"110 -90 CURVE",
"123 -90 LINE",
"174 -53 LINE",
"147 19 OFFCURVE",
"143 64 OFFCURVE",
"143 114 CURVE SMOOTH",
"143 155 OFFCURVE",
"147 203 OFFCURVE",
"182 296 CURVE SMOOTH",
"220 396 OFFCURVE",
"229 448 OFFCURVE",
"229 498 CURVE SMOOTH",
"229 567 OFFCURVE",
"208 622 OFFCURVE",
"138 680 CURVE"
);
}
);
width = 292;
}
);
},
{
glyphname = uni0710.SYRN;
lastChange = "2018-09-11 18:35:11 +0000";
layers = (
{
anchors = (
{
name = Anchor64;
position = "{183, -98}";
},
{
name = Anchor66;
position = "{185, 691}";
}
);
layerId = UUID0;
paths = (
{
closed = 1;
nodes = (
"312 0 LINE",
"312 76 LINE",
"222 76 LINE SMOOTH",
"196 76 OFFCURVE",
"175 75 OFFCURVE",
"154 74 CURVE",
"154 78 LINE",
"188 124 OFFCURVE",
"215 177 OFFCURVE",
"235 237 CURVE SMOOTH",
"255 297 OFFCURVE",
"266 356 OFFCURVE",
"266 413 CURVE SMOOTH",
"266 545 OFFCURVE",
"222 593 OFFCURVE",
"133 601 CURVE",
"99 530 LINE",
"171 497 LINE",
"186 480 OFFCURVE",
"194 438 OFFCURVE",
"194 403 CURVE SMOOTH",
"194 347 OFFCURVE",
"181 288 OFFCURVE",
"157 227 CURVE SMOOTH",
"133 166 OFFCURVE",
"101 110 OFFCURVE",
"60 60 CURVE",
"58 0 LINE"
);
}
);
width = 371;
}
);
},
{
glyphname = uni0710.Fina3;
lastChange = "2018-09-11 18:35:11 +0000";
layers = (
{
anchors = (
{
name = Anchor6;
position = "{429, -49}";
},
{
name = Anchor8;
position = "{395, 491}";
}
);
layerId = UUID0;
paths = (
{
closed = 1;
nodes = (
"780 58 LINE",
"744 69 OFFCURVE",
"708 84 OFFCURVE",
"671 107 CURVE SMOOTH",
"635 129 OFFCURVE",
"589 164 OFFCURVE",
"535 209 CURVE SMOOTH",
"480 254 OFFCURVE",
"433 286 OFFCURVE",
"390 302 CURVE",
"390 307 LINE",
"581 320 OFFCURVE",
"798 407 OFFCURVE",
"922 547 CURVE",
"869 595 LINE",
"722 462 OFFCURVE",
"502 366 OFFCURVE",
"310 366 CURVE SMOOTH",
"209 366 OFFCURVE",
"155 370 OFFCURVE",
"102 377 CURVE",
"81 371 OFFCURVE",
"73 355 OFFCURVE",
"73 326 CURVE SMOOTH",
"73 317 OFFCURVE",
"81 279 OFFCURVE",
"95 213 CURVE SMOOTH",
"109 147 OFFCURVE",
"123 77 OFFCURVE",
"134 0 CURVE",
"208 0 LINE",
"194 104 OFFCURVE",
"172 208 OFFCURVE",
"148 303 CURVE",
"156 303 LINE SMOOTH",
"265 303 OFFCURVE",
"374 254 OFFCURVE",
"484 156 CURVE SMOOTH",
"594 58 OFFCURVE",
"681 3 OFFCURVE",
"746 -8 CURVE"
);
}
);
width = 930;
}
);
},
{
glyphname = uni0710.Fina3.SYRJ;
lastChange = "2018-09-11 18:35:11 +0000";
layers = (
{
anchors = (
{
name = Anchor120;
position = "{104, -195}";
},
{
name = Anchor122;
position = "{132, 763}";
}
);
layerId = UUID0;
paths = (
{
closed = 1;
nodes = (
"93 674 LINE",
"93 141 LINE SMOOTH",
"93 40 OFFCURVE",
"78 -29 OFFCURVE",
"58 -64 CURVE",
"118 -94 LINE",
"153 -50 OFFCURVE",
"166 31 OFFCURVE",
"166 142 CURVE SMOOTH",
"166 674 LINE"
);
}
);
width = 251;
}
);
},
{
glyphname = uni0710.Fina3.SYRN;
lastChange = "2018-09-11 18:35:11 +0000";
layers = (
{
anchors = (
{
name = Anchor64;
position = "{183, -98}";
},
{
name = Anchor66;
position = "{185, 690}";
}
);
layerId = UUID0;
paths = (
{
closed = 1;
nodes = (
"312 0 LINE",
"312 76 LINE",
"222 76 LINE SMOOTH",
"196 76 OFFCURVE",
"175 75 OFFCURVE",
"154 74 CURVE",
"154 78 LINE",
"188 124 OFFCURVE",
"215 177 OFFCURVE",
"235 237 CURVE SMOOTH",
"255 297 OFFCURVE",
"266 356 OFFCURVE",
"266 413 CURVE SMOOTH",
"266 545 OFFCURVE",
"222 593 OFFCURVE",
"133 601 CURVE",
"99 530 LINE",
"171 497 LINE",
"186 480 OFFCURVE",
"194 438 OFFCURVE",
"194 403 CURVE SMOOTH",
"194 347 OFFCURVE",
"181 288 OFFCURVE",
"157 227 CURVE SMOOTH",
"133 166 OFFCURVE",
"101 110 OFFCURVE",
"60 60 CURVE",
"58 0 LINE"
);
}
);
width = 371;
}
);
},
{
glyphname = uni0710.Fina2;
lastChange = "2018-09-11 18:35:11 +0000";
layers = (
{
anchors = (
{
name = Anchor6;
position = "{429, -49}";
},
{
name = Anchor8;
position = "{395, 491}";
}
);
layerId = UUID0;
paths = (
{
closed = 1;
nodes = (
"780 58 LINE",
"744 69 OFFCURVE",
"708 84 OFFCURVE",
"671 107 CURVE SMOOTH",
"635 129 OFFCURVE",
"589 164 OFFCURVE",
"535 209 CURVE SMOOTH",
"480 254 OFFCURVE",
"433 286 OFFCURVE",
"390 302 CURVE",
"390 307 LINE",
"581 320 OFFCURVE",
"798 407 OFFCURVE",
"922 547 CURVE",
"869 595 LINE",
"722 462 OFFCURVE",
"502 366 OFFCURVE",
"310 366 CURVE SMOOTH",
"209 366 OFFCURVE",
"155 370 OFFCURVE",
"102 377 CURVE",
"81 371 OFFCURVE",
"73 355 OFFCURVE",
"73 326 CURVE SMOOTH",
"73 317 OFFCURVE",
"81 279 OFFCURVE",
"95 213 CURVE SMOOTH",
"109 147 OFFCURVE",
"123 77 OFFCURVE",
"134 0 CURVE",
"208 0 LINE",
"194 104 OFFCURVE",
"172 208 OFFCURVE",
"148 303 CURVE",
"156 303 LINE SMOOTH",
"265 303 OFFCURVE",
"374 254 OFFCURVE",
"484 156 CURVE SMOOTH",
"594 58 OFFCURVE",
"681 3 OFFCURVE",
"746 -8 CURVE"
);
}
);
width = 930;
}
);
},
{
glyphname = uni0710.Fina2.SYRJ;
lastChange = "2018-09-11 18:35:11 +0000";
layers = (
{
anchors = (
{
name = Anchor120;
position = "{104, -195}";
},
{
name = Anchor122;
position = "{132, 763}";
}
);
layerId = UUID0;
paths = (
{
closed = 1;
nodes = (
"93 674 LINE",
"93 141 LINE SMOOTH",
"93 40 OFFCURVE",
"78 -29 OFFCURVE",
"58 -64 CURVE",
"118 -94 LINE",
"153 -50 OFFCURVE",
"166 31 OFFCURVE",
"166 142 CURVE SMOOTH",
"166 674 LINE"
);
}
);
width = 251;
}
);
},
{
glyphname = uni0710.Fina2.SYRN;
lastChange = "2018-09-11 18:35:11 +0000";
layers = (
{
anchors = (
{
name = Anchor64;
position = "{184, -141}";
},
{
name = Anchor66;
position = "{187, 691}";
}
);
layerId = UUID0;
paths = (
{
closed = 1;
nodes = (
"312 0 LINE",
"312 76 LINE",
"238 76 LINE SMOOTH",
"212 76 OFFCURVE",
"186 75 OFFCURVE",
"161 74 CURVE",
"161 78 LINE",
"223 176 OFFCURVE",
"265 286 OFFCURVE",
"265 408 CURVE SMOOTH",
"265 543 OFFCURVE",
"221 593 OFFCURVE",
"133 601 CURVE",
"98 530 LINE",
"171 497 LINE",
"184 481 OFFCURVE",
"193 446 OFFCURVE",
"193 403 CURVE SMOOTH",
"193 298 OFFCURVE",
"159 199 OFFCURVE",
"83 76 CURVE",
"59 76 LINE",
"59 6 LINE",
"72 0 LINE",
"130 -67 LINE",
"141 -67 LINE",
"142 0 LINE"
);
}
);
width = 370;
}
);
},
{
glyphname = uni0710.Fina1;
lastChange = "2018-09-11 18:35:11 +0000";
layers = (
{
anchors = (
{
name = Anchor6;
position = "{429, -49}";
},
{
name = Anchor8;
position = "{392, 492}";
}
);
layerId = UUID0;
paths = (
{
closed = 1;
nodes = (
"870 0 LINE",
"870 76 LINE",
"837 76 LINE SMOOTH",
"703 76 OFFCURVE",
"620 135 OFFCURVE",
"532 209 CURVE SMOOTH",
"476 256 OFFCURVE",
"428 287 OFFCURVE",
"388 302 CURVE",
"388 306 LINE",
"584 314 OFFCURVE",
"821 430 OFFCURVE",
"922 547 CURVE",
"869 595 LINE",
"738 472 OFFCURVE",
"498 366 OFFCURVE",
"310 366 CURVE SMOOTH",
"276 366 OFFCURVE",
"168 367 OFFCURVE",
"102 377 CURVE",
"81 371 OFFCURVE",
"73 356 OFFCURVE",
"73 327 CURVE SMOOTH",
"73 317 OFFCURVE",
"76 300 OFFCURVE",
"84 264 CURVE SMOOTH",
"108 152 OFFCURVE",
"120 93 OFFCURVE",
"134 0 CURVE",
"208 0 LINE",
"192 111 OFFCURVE",
"165 244 OFFCURVE",
"149 303 CURVE",
"156 303 LINE SMOOTH",
"292 303 OFFCURVE",
"389 238 OFFCURVE",
"492 146 CURVE SMOOTH",
"592 56 OFFCURVE",
"678 0 OFFCURVE",
"825 0 CURVE SMOOTH"
);
}
);
width = 870;
}
);
},
{
glyphname = uni0710.Fina1.SYRJ;
lastChange = "2018-09-11 18:35:11 +0000";
layers = (
{
anchors = (
{
name = Anchor120;
position = "{104, -195}";
},
{
name = Anchor122;
position = "{132, 763}";
}
);
layerId = UUID0;
paths = (
{
closed = 1;
nodes = (
"93 674 LINE",
"93 141 LINE SMOOTH",
"93 40 OFFCURVE",
"78 -29 OFFCURVE",
"58 -64 CURVE",
"118 -94 LINE",
"139 -67 OFFCURVE",
"152 -25 OFFCURVE",
"160 30 CURVE",
"162 30 LINE",
"181 9 OFFCURVE",
"213 0 OFFCURVE",
"264 0 CURVE",
"264 76 LINE",
"232 76 OFFCURVE",
"166 76 OFFCURVE",
"165 111 CURVE SMOOTH",
"165 122 OFFCURVE",
"166 131 OFFCURVE",
"166 142 CURVE SMOOTH",
"166 674 LINE"
);
}
);
width = 264;
}
);
},
{
glyphname = uni0710.Fina1.SYRN;
lastChange = "2018-09-11 18:35:11 +0000";
layers = (
{
anchors = (
{
name = Anchor64;
position = "{172, -141}";
},
{
name = Anchor66;
position = "{187, 690}";
}
);
layerId = UUID0;
paths = (
{
closed = 1;
nodes = (
"356 0 LINE",
"356 76 LINE",
"238 76 LINE SMOOTH",
"212 76 OFFCURVE",
"186 75 OFFCURVE",
"161 74 CURVE",
"161 78 LINE",
"223 176 OFFCURVE",
"265 286 OFFCURVE",
"265 408 CURVE SMOOTH",
"265 543 OFFCURVE",
"221 593 OFFCURVE",
"133 601 CURVE",
"98 530 LINE",
"171 497 LINE",
"184 481 OFFCURVE",
"193 446 OFFCURVE",
"193 403 CURVE SMOOTH",
"193 298 OFFCURVE",
"159 199 OFFCURVE",
"83 76 CURVE",
"59 76 LINE",
"59 6 LINE",
"72 0 LINE",
"130 -67 LINE",
"141 -67 LINE",
"142 0 LINE"
);
}
);
width = 356;
}
);
},
{
glyphname = uni0710.Medi2;
lastChange = "2018-09-11 18:35:11 +0000";
layers = (
{
anchors = (
{
name = Anchor6;
position = "{430, -49}";
},
{
name = Anchor8;
position = "{396, 492}";
}
);
layerId = UUID0;
paths = (
{
closed = 1;
nodes = (
"870 0 LINE",
"870 76 LINE",
"837 76 LINE SMOOTH",
"703 76 OFFCURVE",
"620 135 OFFCURVE",
"532 209 CURVE SMOOTH",
"476 256 OFFCURVE",
"428 287 OFFCURVE",
"388 302 CURVE",
"388 306 LINE",
"584 314 OFFCURVE",
"821 430 OFFCURVE",
"922 547 CURVE",
"869 595 LINE",
"738 472 OFFCURVE",
"498 366 OFFCURVE",
"310 366 CURVE SMOOTH",
"276 366 OFFCURVE",
"168 367 OFFCURVE",
"102 377 CURVE",
"81 371 OFFCURVE",
"73 356 OFFCURVE",
"73 327 CURVE SMOOTH",
"73 317 OFFCURVE",
"76 300 OFFCURVE",
"84 264 CURVE SMOOTH",
"108 152 OFFCURVE",
"120 93 OFFCURVE",
"134 0 CURVE",
"208 0 LINE",
"192 111 OFFCURVE",
"165 244 OFFCURVE",
"149 303 CURVE",
"156 303 LINE SMOOTH",
"292 303 OFFCURVE",
"389 238 OFFCURVE",
"492 146 CURVE SMOOTH",
"592 56 OFFCURVE",
"678 0 OFFCURVE",
"825 0 CURVE SMOOTH"
);
}
);
width = 870;
}
);
},
{
glyphname = uni0710.Medi2.SYRJ;
lastChange = "2018-09-11 18:35:11 +0000";
layers = (
{
anchors = (
{
name = Anchor120;
position = "{104, -195}";
},
{
name = Anchor122;
position = "{132, 763}";
}
);
layerId = UUID0;
paths = (
{
closed = 1;
nodes = (
"93 674 LINE",
"93 141 LINE SMOOTH",
"93 40 OFFCURVE",
"78 -29 OFFCURVE",
"58 -64 CURVE",
"118 -94 LINE",
"139 -67 OFFCURVE",
"152 -25 OFFCURVE",
"160 30 CURVE",
"162 30 LINE",
"181 9 OFFCURVE",
"213 0 OFFCURVE",
"264 0 CURVE",
"264 76 LINE",
"232 76 OFFCURVE",
"166 76 OFFCURVE",
"165 111 CURVE SMOOTH",
"165 122 OFFCURVE",
"166 131 OFFCURVE",
"166 142 CURVE SMOOTH",
"166 674 LINE"
);
}
);
width = 264;
}
);
},
{
glyphname = uni0710.Medi2.SYRN;
lastChange = "2018-09-11 18:35:11 +0000";
layers = (
{
anchors = (
{
name = Anchor64;
position = "{172, -141}";
},
{
name = Anchor66;
position = "{187, 691}";
}
);
layerId = UUID0;
paths = (
{
closed = 1;
nodes = (
"356 0 LINE",
"356 76 LINE",
"222 76 LINE SMOOTH",
"196 76 OFFCURVE",
"175 75 OFFCURVE",
"154 74 CURVE",
"154 78 LINE",
"188 124 OFFCURVE",
"215 177 OFFCURVE",
"235 237 CURVE SMOOTH",
"255 297 OFFCURVE",
"266 356 OFFCURVE",
"266 413 CURVE SMOOTH",
"266 545 OFFCURVE",
"222 593 OFFCURVE",
"133 601 CURVE",
"99 530 LINE",
"171 497 LINE",
"186 480 OFFCURVE",
"194 438 OFFCURVE",
"194 403 CURVE SMOOTH",
"194 347 OFFCURVE",
"181 288 OFFCURVE",
"157 227 CURVE SMOOTH",
"133 166 OFFCURVE",
"101 110 OFFCURVE",
"60 60 CURVE",
"58 0 LINE"
);
}
);
width = 356;
}
);
},
{
glyphname = uni0711;
lastChange = "2018-09-11 18:35:11 +0000";
layers = (
{
anchors = (
{
name = _Anchor10;
position = "{0, 540}";
},
{
name = _Anchor8;
position = "{0, 542}";
}
);
layerId = UUID0;
paths = (
{
closed = 1;
nodes = (
"118 577 LINE",
"88 587 OFFCURVE",
"67 599 OFFCURVE",
"38 623 CURVE SMOOTH",
"24 635 OFFCURVE",
"9 645 OFFCURVE",
"-3 651 CURVE",
"-3 653 LINE",
"73 667 OFFCURVE",
"130 697 OFFCURVE",
"162 734 CURVE",
"137 760 LINE",
"67 701 OFFCURVE",
"9 682 OFFCURVE",
"-56 682 CURVE SMOOTH",
"-68 682 OFFCURVE",
"-91 683 OFFCURVE",
"-111 685 CURVE",
"-119 682 OFFCURVE",
"-122 673 OFFCURVE",
"-122 666 CURVE SMOOTH",
"-122 660 OFFCURVE",
"-121 652 OFFCURVE",
"-119 641 CURVE SMOOTH",
"-115 619 OFFCURVE",
"-109 586 OFFCURVE",
"-103 548 CURVE",
"-66 548 LINE",
"-70 581 OFFCURVE",
"-76 615 OFFCURVE",
"-82 648 CURVE",
"-79 648 LINE SMOOTH",
"-57 648 OFFCURVE",
"-27 629 OFFCURVE",
"7 599 CURVE SMOOTH",
"37 573 OFFCURVE",
"70 549 OFFCURVE",
"99 544 CURVE"
);
}
);
width = 0;
}
);
unicode = 0711;
category = Mark;
subCategory = Nonspacing;
},
{
glyphname = uni0711.SYRJ;
lastChange = "2018-09-11 18:35:11 +0000";
layers = (
{
anchors = (
{
name = _Anchor122;
position = "{0, 542}";
},
{
name = _Anchor124;
position = "{0, 540}";
}
);
layerId = UUID0;
paths = (
{
closed = 1;
nodes = (
"-29 793 LINE",
"-11 778 OFFCURVE",
"-3 761 OFFCURVE",
"-3 743 CURVE SMOOTH",
"-3 728 OFFCURVE",
"-6 713 OFFCURVE",
"-17 687 CURVE SMOOTH",
"-28 660 OFFCURVE",
"-35 632 OFFCURVE",
"-35 608 CURVE SMOOTH",
"-35 586 OFFCURVE",
"-30 566 OFFCURVE",
"-20 547 CURVE",
"13 562 LINE",
"4 587 OFFCURVE",
"3 597 OFFCURVE",
"3 610 CURVE SMOOTH",
"3 626 OFFCURVE",
"4 641 OFFCURVE",
"16 674 CURVE SMOOTH",
"29 711 OFFCURVE",
"34 726 OFFCURVE",
"34 748 CURVE SMOOTH",
"34 775 OFFCURVE",
"25 795 OFFCURVE",
"-2 818 CURVE"
);
}
);
width = 0;
}
);
category = Mark;
subCategory = Nonspacing;
},
{
glyphname = uni0711.SYRN;
lastChange = "2018-09-11 18:35:11 +0000";
layers = (
{
anchors = (
{
name = _Anchor66;
position = "{0, 542}";
},
{
name = _Anchor68;
position = "{0, 545}";
}
);
layerId = UUID0;
paths = (
{
closed = 1;
nodes = (
"51 552 LINE",
"51 585 LINE",
"23 585 LINE SMOOTH",
"11 585 OFFCURVE",
"-2 585 OFFCURVE",
"-16 584 CURVE",
"-16 587 LINE",
"23 638 OFFCURVE",
"35 685 OFFCURVE",
"35 728 CURVE SMOOTH",
"35 783 OFFCURVE",
"16 808 OFFCURVE",
"-24 811 CURVE",
"-41 777 LINE",
"-9 764 LINE",
"-2 756 OFFCURVE",
"0 739 OFFCURVE",
"0 724 CURVE SMOOTH",
"0 681 OFFCURVE",
"-18 627 OFFCURVE",
"-58 578 CURVE",
"-59 552 LINE"
);
}
);
width = 0;
}
);
category = Mark;
subCategory = Nonspacing;
},
{
glyphname = uni0712;
lastChange = "2018-09-11 18:35:11 +0000";
layers = (
{
anchors = (
{
name = Anchor2;
position = "{820, 499}";
},
{
name = Anchor4;
position = "{812, -81}";
},
{
name = Anchor6;
position = "{460, -97}";
},
{
name = Anchor8;
position = "{570, 519}";
}
);
layerId = UUID0;
paths = (
{
closed = 1;
nodes = (
"708 0 LINE SMOOTH",
"841 0 OFFCURVE",
"889 54 OFFCURVE",
"889 175 CURVE SMOOTH",
"889 205 OFFCURVE",
"883 250 OFFCURVE",
"879 275 CURVE SMOOTH",
"859 387 OFFCURVE",
"799 426 OFFCURVE",
"705 426 CURVE SMOOTH",
"628 426 OFFCURVE",
"551 421 OFFCURVE",
"474 421 CURVE SMOOTH",
"393 421 OFFCURVE",
"348 424 OFFCURVE",
"326 429 CURVE",
"326 357 LINE",
"345 352 OFFCURVE",
"388 348 OFFCURVE",
"479 348 CURVE SMOOTH",
"548 348 OFFCURVE",
"621 353 OFFCURVE",
"690 353 CURVE SMOOTH",
"757 353 OFFCURVE",
"791 335 OFFCURVE",
"807 264 CURVE SMOOTH",
"812 243 OFFCURVE",
"817 205 OFFCURVE",
"817 175 CURVE SMOOTH",
"817 106 OFFCURVE",
"797 76 OFFCURVE",
"729 76 CURVE SMOOTH",
"266 76 LINE SMOOTH",
"166 76 OFFCURVE",
"127 94 OFFCURVE",
"96 131 CURVE",
"49 78 LINE",
"69 33 OFFCURVE",
"129 0 OFFCURVE",
"240 0 CURVE SMOOTH"
);
}
);
width = 958;
}
);
unicode = 0712;
},
{
glyphname = uni0712.SYRJ;
lastChange = "2018-09-11 18:35:11 +0000";
layers = (
{
anchors = (
{
name = Anchor116;
position = "{749, 439}";
},
{
name = Anchor118;
position = "{748, -68}";
},
{
name = Anchor120;
position = "{436, -98}";
},
{
name = Anchor122;
position = "{506, 513}";
}
);
layerId = UUID0;
paths = (
{
closed = 1;
nodes = (
"664 0 LINE SMOOTH",
"785 0 OFFCURVE",
"823 60 OFFCURVE",
"823 131 CURVE SMOOTH",
"823 232 OFFCURVE",
"770 302 OFFCURVE",
"686 356 CURVE SMOOTH",
"627 394 OFFCURVE",
"562 414 OFFCURVE",
"481 414 CURVE SMOOTH",
"444 414 OFFCURVE",
"375 402 OFFCURVE",
"343 387 CURVE",
"359 326 LINE",
"397 337 OFFCURVE",
"448 339 OFFCURVE",
"471 339 CURVE SMOOTH",
"607 339 OFFCURVE",
"749 250 OFFCURVE",
"749 134 CURVE SMOOTH",
"749 107 OFFCURVE",
"734 76 OFFCURVE",
"679 76 CURVE SMOOTH",
"282 76 LINE SMOOTH",
"168 76 OFFCURVE",
"127 139 OFFCURVE",
"127 213 CURVE SMOOTH",
"127 220 LINE",
"61 216 LINE",
"60 211 OFFCURVE",
"59 189 OFFCURVE",
"59 186 CURVE SMOOTH",
"59 71 OFFCURVE",
"136 0 OFFCURVE",
"273 0 CURVE SMOOTH"
);
}
);
width = 891;
}
);
},
{
glyphname = uni0712.SYRN;
lastChange = "2018-09-11 18:35:11 +0000";
layers = (
{
anchors = (
{
name = Anchor60;
position = "{745, 493}";
},
{
name = Anchor62;
position = "{712, -81}";
},
{
name = Anchor64;
position = "{375, -99}";
},
{
name = Anchor66;
position = "{500, 523}";
}
);
layerId = UUID0;
paths = (
{
closed = 1;
nodes = (
"668 0 LINE",
"708 54 LINE",
"708 426 LINE",
"484 426 LINE SMOOTH",
"417 426 OFFCURVE",
"343 431 OFFCURVE",
"306 438 CURVE",
"306 367 LINE",
"335 359 OFFCURVE",
"412 353 OFFCURVE",
"489 353 CURVE SMOOTH",
"634 353 LINE",
"634 76 LINE",
"262 76 LINE SMOOTH",
"174 76 OFFCURVE",
"129 89 OFFCURVE",
"94 138 CURVE",
"49 78 LINE",
"69 30 OFFCURVE",
"136 0 OFFCURVE",
"240 0 CURVE SMOOTH"
);
}
);
width = 776;
}
);
},
{
glyphname = uni0712.Fina;
lastChange = "2018-09-11 18:35:11 +0000";
layers = (
{
anchors = (
{
name = Anchor2;
position = "{820, 499}";
},
{
name = Anchor4;
position = "{813, -83}";
},
{
name = Anchor6;
position = "{460, -97}";
},
{
name = Anchor8;
position = "{570, 519}";
}
);
layerId = UUID0;
paths = (
{
closed = 1;
nodes = (
"968 76 LINE",
"865 76 LINE",
"865 78 LINE",
"882 100 OFFCURVE",
"889 128 OFFCURVE",
"889 175 CURVE SMOOTH",
"889 205 OFFCURVE",
"883 250 OFFCURVE",
"879 275 CURVE SMOOTH",
"859 387 OFFCURVE",
"799 426 OFFCURVE",
"705 426 CURVE SMOOTH",
"628 426 OFFCURVE",
"551 421 OFFCURVE",
"474 421 CURVE SMOOTH",
"393 421 OFFCURVE",
"348 424 OFFCURVE",
"326 429 CURVE",
"326 357 LINE",
"345 352 OFFCURVE",
"388 348 OFFCURVE",
"479 348 CURVE SMOOTH",
"548 348 OFFCURVE",
"621 353 OFFCURVE",
"690 353 CURVE SMOOTH",
"757 353 OFFCURVE",
"791 335 OFFCURVE",
"807 264 CURVE SMOOTH",
"812 243 OFFCURVE",
"817 205 OFFCURVE",
"817 175 CURVE SMOOTH",
"817 106 OFFCURVE",
"797 76 OFFCURVE",
"729 76 CURVE SMOOTH",
"266 76 LINE SMOOTH",
"166 76 OFFCURVE",
"127 94 OFFCURVE",
"96 131 CURVE",
"49 78 LINE",
"69 33 OFFCURVE",
"129 0 OFFCURVE",
"240 0 CURVE SMOOTH",
"968 0 LINE"
);
}
);
width = 968;
}
);
},
{
glyphname = uni0712.Fina.SYRJ;
lastChange = "2018-09-11 18:35:11 +0000";
layers = (
{
anchors = (
{
name = Anchor116;
position = "{749, 439}";
},
{
name = Anchor118;
position = "{747, -104}";
},
{
name = Anchor120;
position = "{436, -98}";
},
{
name = Anchor122;
position = "{504, 512}";
}
);
layerId = UUID0;
paths = (
{
closed = 1;
nodes = (
"896 0 LINE",
"896 76 LINE",
"872 76 LINE SMOOTH",
"853 76 OFFCURVE",
"828 76 OFFCURVE",
"804 74 CURVE",
"803 78 LINE",
"817 95 OFFCURVE",
"823 122 OFFCURVE",
"823 146 CURVE SMOOTH",
"823 233 OFFCURVE",
"767 305 OFFCURVE",
"686 356 CURVE SMOOTH",
"627 393 OFFCURVE",
"562 414 OFFCURVE",
"481 414 CURVE SMOOTH",
"444 414 OFFCURVE",
"375 402 OFFCURVE",
"343 387 CURVE",
"359 326 LINE",
"397 337 OFFCURVE",
"448 339 OFFCURVE",
"471 339 CURVE SMOOTH",
"607 339 OFFCURVE",
"749 250 OFFCURVE",
"749 134 CURVE SMOOTH",
"749 107 OFFCURVE",
"734 76 OFFCURVE",
"679 76 CURVE SMOOTH",
"282 76 LINE SMOOTH",
"168 76 OFFCURVE",
"127 139 OFFCURVE",
"127 213 CURVE SMOOTH",
"127 220 LINE",
"61 216 LINE",
"60 211 OFFCURVE",
"59 189 OFFCURVE",
"59 186 CURVE SMOOTH",
"59 71 OFFCURVE",
"136 0 OFFCURVE",
"273 0 CURVE SMOOTH"
);
}
);
width = 896;
}
);
},
{
glyphname = uni0712.Fina.SYRN;
lastChange = "2018-09-11 18:35:11 +0000";
layers = (
{
anchors = (
{
name = Anchor60;
position = "{745, 493}";
},
{
name = Anchor62;
position = "{721, -92}";
},
{
name = Anchor64;
position = "{375, -98}";
},
{
name = Anchor66;
position = "{500, 523}";
}
);
layerId = UUID0;
paths = (
{
closed = 1;
nodes = (
"812 0 LINE",
"812 76 LINE",
"780 76 LINE SMOOTH",
"727 76 OFFCURVE",
"708 96 OFFCURVE",
"708 170 CURVE SMOOTH",
"708 426 LINE",
"484 426 LINE SMOOTH",
"417 426 OFFCURVE",
"343 431 OFFCURVE",
"306 438 CURVE",
"306 367 LINE",
"335 359 OFFCURVE",
"412 353 OFFCURVE",
"489 353 CURVE SMOOTH",
"634 353 LINE",
"634 164 LINE SMOOTH",
"634 128 OFFCURVE",
"638 99 OFFCURVE",
"647 76 CURVE",
"262 76 LINE SMOOTH",
"174 76 OFFCURVE",
"129 89 OFFCURVE",
"94 138 CURVE",
"49 78 LINE",
"69 30 OFFCURVE",
"136 0 OFFCURVE",
"240 0 CURVE SMOOTH",
"645 0 LINE",
"662 46 LINE",
"664 46 LINE",
"687 13 OFFCURVE",
"724 0 OFFCURVE",
"772 0 CURVE SMOOTH"
);
}
);
width = 812;
}
);
},
{
glyphname = uni0712.Medi;
lastChange = "2018-09-11 18:35:11 +0000";
layers = (
{
anchors = (
{
name = Anchor2;
position = "{592, 499}";
},
{
name = Anchor4;
position = "{585, -81}";
},
{
name = Anchor6;
position = "{296, -98}";
},
{
name = Anchor8;
position = "{342, 519}";
}
);
layerId = UUID0;
paths = (
{
closed = 1;
nodes = (
"740 76 LINE",
"637 76 LINE",
"637 78 LINE",
"654 100 OFFCURVE",
"661 128 OFFCURVE",
"661 175 CURVE SMOOTH",
"661 205 OFFCURVE",
"655 250 OFFCURVE",
"651 275 CURVE SMOOTH",
"631 387 OFFCURVE",
"571 426 OFFCURVE",
"477 426 CURVE SMOOTH",
"400 426 OFFCURVE",
"323 421 OFFCURVE",
"246 421 CURVE SMOOTH",
"165 421 OFFCURVE",
"120 424 OFFCURVE",
"98 429 CURVE",
"98 357 LINE",
"117 352 OFFCURVE",
"160 348 OFFCURVE",
"251 348 CURVE SMOOTH",
"320 348 OFFCURVE",
"393 353 OFFCURVE",
"462 353 CURVE SMOOTH",
"529 353 OFFCURVE",
"563 335 OFFCURVE",
"579 264 CURVE SMOOTH",
"584 243 OFFCURVE",
"589 205 OFFCURVE",
"589 175 CURVE SMOOTH",
"589 106 OFFCURVE",
"569 76 OFFCURVE",
"501 76 CURVE SMOOTH",
"0 76 LINE SMOOTH",
"-21 76 OFFCURVE",
"-39 61 OFFCURVE",
"-39 38 CURVE SMOOTH",
"-39 14 OFFCURVE",
"-21 0 OFFCURVE",
"0 0 CURVE SMOOTH",
"740 0 LINE"
);
}
);
width = 740;
}
);
},
{
glyphname = uni0712.Medi.SYRJ;
lastChange = "2018-09-11 18:35:11 +0000";
layers = (
{
anchors = (
{
name = Anchor116;
position = "{480, 439}";
},
{
name = Anchor118;
position = "{464, -104}";
},
{
name = Anchor120;
position = "{207, -98}";
},
{
name = Anchor122;
position = "{226, 513}";
}
);
layerId = UUID0;
paths = (
{
closed = 1;
nodes = (
"612 0 LINE",
"612 76 LINE",
"587 76 LINE SMOOTH",
"568 76 OFFCURVE",
"543 76 OFFCURVE",
"520 74 CURVE",
"518 78 LINE",
"533 95 OFFCURVE",
"539 123 OFFCURVE",
"539 146 CURVE SMOOTH",
"539 233 OFFCURVE",
"483 304 OFFCURVE",
"401 356 CURVE SMOOTH",
"342 394 OFFCURVE",
"278 414 OFFCURVE",
"196 414 CURVE SMOOTH",
"159 414 OFFCURVE",
"91 402 OFFCURVE",
"58 387 CURVE",
"75 326 LINE",
"112 337 OFFCURVE",
"163 339 OFFCURVE",
"186 339 CURVE SMOOTH",
"323 339 OFFCURVE",
"464 250 OFFCURVE",
"464 134 CURVE SMOOTH",
"464 107 OFFCURVE",
"449 76 OFFCURVE",
"394 76 CURVE SMOOTH",
"0 76 LINE SMOOTH",
"-21 76 OFFCURVE",
"-39 61 OFFCURVE",
"-39 38 CURVE SMOOTH",
"-39 14 OFFCURVE",
"-21 0 OFFCURVE",
"0 0 CURVE SMOOTH"
);
}
);
width = 612;
}
);
},
{
glyphname = uni0712.Medi.SYRN;
lastChange = "2018-09-11 18:35:11 +0000";
layers = (
{
anchors = (
{
name = Anchor60;
position = "{508, 493}";
},
{
name = Anchor62;
position = "{475, -91}";
},
{
name = Anchor64;
position = "{198, -98}";
},
{
name = Anchor66;
position = "{262, 523}";
}
);
layerId = UUID0;
paths = (
{
closed = 1;
nodes = (
"574 0 LINE",
"574 76 LINE",
"542 76 LINE SMOOTH",
"489 76 OFFCURVE",
"470 96 OFFCURVE",
"470 170 CURVE SMOOTH",
"470 426 LINE",
"246 426 LINE SMOOTH",
"179 426 OFFCURVE",
"105 431 OFFCURVE",
"68 438 CURVE",
"68 367 LINE",
"97 359 OFFCURVE",
"174 353 OFFCURVE",
"251 353 CURVE SMOOTH",
"396 353 LINE",
"396 164 LINE SMOOTH",
"396 128 OFFCURVE",
"400 99 OFFCURVE",
"409 76 CURVE",
"0 76 LINE SMOOTH",
"-21 76 OFFCURVE",
"-39 61 OFFCURVE",
"-39 38 CURVE SMOOTH",
"-39 14 OFFCURVE",
"-21 0 OFFCURVE",
"0 0 CURVE SMOOTH",
"407 0 LINE",
"424 46 LINE",
"426 46 LINE",
"449 13 OFFCURVE",
"487 0 OFFCURVE",
"534 0 CURVE SMOOTH"
);
}
);
width = 574;
}
);
},
{
glyphname = uni0712.Init;
lastChange = "2018-09-11 18:35:11 +0000";
layers = (
{
anchors = (
{
name = Anchor2;
position = "{592, 500}";
},
{
name = Anchor4;
position = "{585, -81}";
},
{
name = Anchor6;
position = "{296, -98}";
},
{
name = Anchor8;
position = "{341, 519}";
}
);
layerId = UUID0;
paths = (
{
closed = 1;
nodes = (
"480 0 LINE SMOOTH",
"613 0 OFFCURVE",
"661 54 OFFCURVE",
"661 175 CURVE SMOOTH",
"661 205 OFFCURVE",
"655 250 OFFCURVE",
"651 275 CURVE SMOOTH",
"631 387 OFFCURVE",
"571 426 OFFCURVE",
"477 426 CURVE SMOOTH",
"400 426 OFFCURVE",
"323 421 OFFCURVE",
"246 421 CURVE SMOOTH",
"165 421 OFFCURVE",
"120 424 OFFCURVE",
"98 429 CURVE",
"98 357 LINE",
"117 352 OFFCURVE",
"160 348 OFFCURVE",
"251 348 CURVE SMOOTH",
"320 348 OFFCURVE",
"393 353 OFFCURVE",
"462 353 CURVE SMOOTH",
"529 353 OFFCURVE",
"563 335 OFFCURVE",
"579 264 CURVE SMOOTH",
"584 243 OFFCURVE",
"589 205 OFFCURVE",
"589 175 CURVE SMOOTH",
"589 106 OFFCURVE",
"569 76 OFFCURVE",
"501 76 CURVE SMOOTH",
"0 76 LINE SMOOTH",
"-21 76 OFFCURVE",
"-39 61 OFFCURVE",
"-39 38 CURVE SMOOTH",
"-39 14 OFFCURVE",
"-21 0 OFFCURVE",
"0 0 CURVE SMOOTH"
);
}
);
width = 730;
}
);
},
{
glyphname = uni0712.Init.SYRJ;
lastChange = "2018-09-11 18:35:11 +0000";
layers = (
{
anchors = (
{
name = Anchor116;
position = "{480, 438}";
},
{
name = Anchor118;
position = "{464, -68}";
},
{
name = Anchor120;
position = "{207, -98}";
},
{
name = Anchor122;
position = "{225, 514}";
}
);
layerId = UUID0;
paths = (
{
closed = 1;
nodes = (
"379 0 LINE SMOOTH",
"500 0 OFFCURVE",
"538 60 OFFCURVE",
"538 131 CURVE SMOOTH",
"538 232 OFFCURVE",
"485 301 OFFCURVE",
"401 356 CURVE SMOOTH",
"343 394 OFFCURVE",
"278 414 OFFCURVE",
"196 414 CURVE SMOOTH",
"159 414 OFFCURVE",
"91 402 OFFCURVE",
"58 387 CURVE",
"75 326 LINE",
"112 337 OFFCURVE",
"163 339 OFFCURVE",
"186 339 CURVE SMOOTH",
"323 339 OFFCURVE",
"464 250 OFFCURVE",
"464 134 CURVE SMOOTH",
"464 107 OFFCURVE",
"449 76 OFFCURVE",
"394 76 CURVE SMOOTH",
"0 76 LINE SMOOTH",
"-21 76 OFFCURVE",
"-39 61 OFFCURVE",
"-39 38 CURVE SMOOTH",
"-39 14 OFFCURVE",
"-21 0 OFFCURVE",
"0 0 CURVE SMOOTH"
);
}
);
width = 606;
}
);
},
{
glyphname = uni0712.Init.SYRN;
lastChange = "2018-09-11 18:35:11 +0000";
layers = (
{
anchors = (
{
name = Anchor60;
position = "{508, 493}";
},
{
name = Anchor62;
position = "{475, -81}";
},
{
name = Anchor64;
position = "{197, -98}";
},
{
name = Anchor66;
position = "{263, 523}";
}
);
layerId = UUID0;
paths = (
{
closed = 1;
nodes = (
"431 0 LINE",
"470 54 LINE",
"470 426 LINE",
"246 426 LINE SMOOTH",
"179 426 OFFCURVE",
"105 431 OFFCURVE",
"68 438 CURVE",
"68 367 LINE",
"97 359 OFFCURVE",
"174 353 OFFCURVE",
"251 353 CURVE SMOOTH",
"396 353 LINE",
"396 76 LINE",
"0 76 LINE SMOOTH",
"-21 76 OFFCURVE",
"-39 61 OFFCURVE",
"-39 38 CURVE SMOOTH",
"-39 14 OFFCURVE",
"-21 0 OFFCURVE",
"0 0 CURVE SMOOTH"
);
}
);
width = 538;
}
);
},
{
glyphname = uni0713;
lastChange = "2018-09-11 18:35:11 +0000";
layers = (
{
anchors = (
{
name = Anchor2;
position = "{855, 259}";
},
{
name = Anchor4;
position = "{880, -232}";
},
{
name = Anchor6;
position = "{603, -144}";
},
{
name = Anchor8;
position = "{643, 586}";
}
);
layerId = UUID0;
paths = (
{
closed = 1;
nodes = (
"1278 -375 LINE",
"1324 -316 LINE",
"1245 -264 OFFCURVE",
"1170 -205 OFFCURVE",
"1059 -105 CURVE SMOOTH",
"997 -50 OFFCURVE",
"936 10 OFFCURVE",
"878 72 CURVE SMOOTH",
"728 231 OFFCURVE",
"594 403 OFFCURVE",
"497 536 CURVE",
"427 496 LINE",
"505 386 OFFCURVE",
"628 227 OFFCURVE",
"751 93 CURVE SMOOTH",
"820 18 OFFCURVE",
"882 -43 OFFCURVE",
"958 -97 CURVE",
"955 -100 LINE",
"850 -36 OFFCURVE",
"774 -5 OFFCURVE",
"685 21 CURVE SMOOTH",
"513 71 OFFCURVE",
"384 76 OFFCURVE",
"278 76 CURVE SMOOTH",
"220 76 OFFCURVE",
"103 69 OFFCURVE",
"49 58 CURVE",
"63 -12 LINE",
"123 -4 OFFCURVE",
"223 0 OFFCURVE",
"293 0 CURVE SMOOTH",
"448 0 OFFCURVE",
"607 -28 OFFCURVE",
"773 -88 CURVE SMOOTH",
"871 -123 OFFCURVE",
"958 -167 OFFCURVE",
"1033 -211 CURVE SMOOTH",
"1106 -254 OFFCURVE",
"1168 -297 OFFCURVE",
"1222 -335 CURVE SMOOTH"
);
}
);
width = 1091;
}
);
unicode = 0713;
},
{
glyphname = uni0713.SYRJ;
lastChange = "2018-09-11 18:35:11 +0000";
layers = (
{
anchors = (
{
name = Anchor116;
position = "{507, 161}";
},
{
name = Anchor118;
position = "{693, -477}";
},
{
name = Anchor120;
position = "{443, -444}";
},
{
name = Anchor122;
position = "{390, 356}";
}
);
layerId = UUID0;
paths = (
{
closed = 1;
nodes = (
"523 -328 LINE SMOOTH",
"584 -374 OFFCURVE",
"634 -391 OFFCURVE",
"683 -391 CURVE SMOOTH",
"794 -391 OFFCURVE",
"843 -319 OFFCURVE",
"843 -259 CURVE SMOOTH",
"843 -220 OFFCURVE",
"828 -189 OFFCURVE",
"787 -159 CURVE SMOOTH",
"389 139 LINE",
"344 76 LINE",
"744 -220 LINE SMOOTH",
"759 -231 OFFCURVE",
"767 -244 OFFCURVE",
"767 -259 CURVE SMOOTH",
"767 -292 OFFCURVE",
"731 -315 OFFCURVE",
"685 -315 CURVE SMOOTH",
"642 -315 OFFCURVE",
"610 -296 OFFCURVE",
"580 -273 CURVE SMOOTH",
"214 0 LINE SMOOTH",
"157 42 OFFCURVE",
"132 85 OFFCURVE",
"132 138 CURVE SMOOTH",
"132 161 OFFCURVE",
"137 178 OFFCURVE",
"147 199 CURVE",
"91 234 LINE",
"70 207 OFFCURVE",
"59 169 OFFCURVE",
"59 130 CURVE SMOOTH",
"59 60 OFFCURVE",
"93 -6 OFFCURVE",
"165 -60 CURVE SMOOTH"
);
}
);
width = 848;
}
);
},
{
glyphname = uni0713.SYRN;
lastChange = "2018-09-11 18:35:11 +0000";
layers = (
{
anchors = (
{
name = Anchor60;
position = "{743, 323}";
},
{
name = Anchor62;
position = "{655, -91}";
},
{
name = Anchor64;
position = "{384, -98}";
},
{
name = Anchor66;
position = "{374, 772}";
}
);
layerId = UUID0;
paths = (
{
closed = 1;
nodes = (
"906 -240 LINE",
"906 -141 LINE",
"860 -141 LINE",
"429 693 LINE",
"358 659 LINE",
"659 76 LINE",
"267 76 LINE SMOOTH",
"175 76 OFFCURVE",
"127 90 OFFCURVE",
"94 138 CURVE",
"49 78 LINE",
"69 30 OFFCURVE",
"136 0 OFFCURVE",
"240 0 CURVE SMOOTH",
"688 0 LINE",
"706 46 LINE",
"708 46 LINE",
"810 -152 LINE",
"810 -240 LINE"
);
}
);
width = 833;
}
);
},
{
glyphname = uni0713.Fina;
lastChange = "2018-09-11 18:35:11 +0000";
layers = (
{
anchors = (
{
name = Anchor2;
position = "{856, 258}";
},
{
name = Anchor4;
position = "{881, -232}";
},
{
name = Anchor6;
position = "{604, -146}";
},
{
name = Anchor8;
position = "{644, 586}";
}
);
layerId = UUID0;
paths = (
{
closed = 1;
nodes = (
"1278 -375 LINE",
"1324 -316 LINE",
"1245 -264 OFFCURVE",
"1170 -205 OFFCURVE",
"1059 -105 CURVE SMOOTH",
"1021 -70 OFFCURVE",
"982 -34 OFFCURVE",
"945 3 CURVE",
"945 40 LINE",
"945 76 LINE",
"875 76 LINE",
"726 234 OFFCURVE",
"593 404 OFFCURVE",
"497 536 CURVE",
"427 496 LINE",
"505 387 OFFCURVE",
"626 228 OFFCURVE",
"750 95 CURVE SMOOTH",
"818 22 OFFCURVE",
"883 -43 OFFCURVE",
"958 -97 CURVE",
"955 -100 LINE",
"848 -34 OFFCURVE",
"773 -5 OFFCURVE",
"685 21 CURVE SMOOTH",
"513 71 OFFCURVE",
"384 76 OFFCURVE",
"278 76 CURVE SMOOTH",
"220 76 OFFCURVE",
"103 69 OFFCURVE",
"49 58 CURVE",
"63 -12 LINE",
"123 -4 OFFCURVE",
"223 0 OFFCURVE",
"293 0 CURVE SMOOTH",
"448 0 OFFCURVE",
"607 -28 OFFCURVE",
"773 -88 CURVE SMOOTH",
"870 -123 OFFCURVE",
"955 -165 OFFCURVE",
"1030 -209 CURVE SMOOTH",
"1104 -252 OFFCURVE",
"1167 -297 OFFCURVE",
"1222 -335 CURVE SMOOTH"
);
}
);
width = 945;
}
);
},
{
glyphname = uni0713.Fina.SYRJ;
lastChange = "2018-09-11 18:35:11 +0000";
layers = (
{
anchors = (
{
name = Anchor116;
position = "{507, 161}";
},
{
name = Anchor118;
position = "{693, -477}";
},
{
name = Anchor120;
position = "{443, -444}";
},
{
name = Anchor122;
position = "{391, 357}";
}
);
layerId = UUID0;
paths = (
{
closed = 1;
nodes = (
"523 -328 LINE SMOOTH",
"584 -374 OFFCURVE",
"634 -391 OFFCURVE",
"683 -391 CURVE SMOOTH",
"794 -391 OFFCURVE",
"843 -319 OFFCURVE",
"843 -259 CURVE SMOOTH",
"843 -220 OFFCURVE",
"828 -189 OFFCURVE",
"787 -159 CURVE SMOOTH",
"645 -53 LINE SMOOTH",
"629 -41 OFFCURVE",
"567 1 OFFCURVE",
"556 7 CURVE",
"556 10 LINE",
"586 5 OFFCURVE",
"626 0 OFFCURVE",
"642 0 CURVE SMOOTH",
"647 0 LINE",
"647 76 LINE",
"473 76 LINE",
"389 139 LINE",
"344 76 LINE",
"744 -220 LINE SMOOTH",
"759 -231 OFFCURVE",
"767 -244 OFFCURVE",
"767 -259 CURVE SMOOTH",
"767 -292 OFFCURVE",
"731 -315 OFFCURVE",
"685 -315 CURVE SMOOTH",
"642 -315 OFFCURVE",
"610 -296 OFFCURVE",
"580 -273 CURVE SMOOTH",
"214 0 LINE SMOOTH",
"157 42 OFFCURVE",
"132 85 OFFCURVE",
"132 138 CURVE SMOOTH",
"132 161 OFFCURVE",
"137 178 OFFCURVE",
"147 199 CURVE",
"91 234 LINE",
"70 207 OFFCURVE",
"59 169 OFFCURVE",
"59 130 CURVE SMOOTH",
"59 60 OFFCURVE",
"93 -6 OFFCURVE",
"165 -60 CURVE SMOOTH"
);
}
);
width = 647;
}
);
},
{
glyphname = uni0713.Fina.SYRN;
lastChange = "2018-09-11 18:35:11 +0000";
layers = (
{
anchors = (
{
name = Anchor60;
position = "{742, 325}";
},
{
name = Anchor62;
position = "{625, -91}";
},
{
name = Anchor64;
position = "{372, -98}";
},
{
name = Anchor66;
position = "{374, 773}";
}
);
layerId = UUID0;
paths = (
{
closed = 1;
nodes = (
"875 -240 LINE",
"875 -141 LINE",
"829 -141 LINE",
"756 0 LINE",
"768 0 LINE",
"768 76 LINE",
"752 76 OFFCURVE",
"739 91 OFFCURVE",
"717 134 CURVE SMOOTH",
"429 693 LINE",
"359 659 LINE",
"659 76 LINE",
"267 76 LINE SMOOTH",
"175 76 OFFCURVE",
"127 90 OFFCURVE",
"94 138 CURVE",
"49 78 LINE",
"69 30 OFFCURVE",
"136 0 OFFCURVE",
"240 0 CURVE SMOOTH",
"657 0 LINE",
"675 46 LINE",
"677 46 LINE",
"779 -152 LINE",
"779 -240 LINE"
);
}
);
width = 768;
}
);
},
{
glyphname = uni0713.Medi;
lastChange = "2018-09-11 18:35:11 +0000";
layers = (
{
anchors = (
{
name = Anchor2;
position = "{483, 253}";
},
{
name = Anchor4;
position = "{508, -230}";
},
{
name = Anchor6;
position = "{248, -158}";
},
{
name = Anchor8;
position = "{271, 586}";
}
);
layerId = UUID0;
paths = (
{
closed = 1;
nodes = (
"905 -375 LINE",
"951 -316 LINE",
"872 -264 OFFCURVE",
"797 -205 OFFCURVE",
"686 -105 CURVE SMOOTH",
"647 -70 OFFCURVE",
"609 -34 OFFCURVE",
"571 4 CURVE",
"571 40 LINE",
"571 76 LINE",
"501 76 LINE",
"353 234 OFFCURVE",
"220 404 OFFCURVE",
"124 536 CURVE",
"54 496 LINE",
"140 376 OFFCURVE",
"253 227 OFFCURVE",
"379 94 CURVE SMOOTH",
"430 40 OFFCURVE",
"484 -11 OFFCURVE",
"538 -58 CURVE",
"535 -61 LINE",
"442 -9 OFFCURVE",
"359 25 OFFCURVE",
"271 47 CURVE SMOOTH",
"190 67 OFFCURVE",
"104 76 OFFCURVE",
"0 76 CURVE SMOOTH",
"-21 76 OFFCURVE",
"-39 61 OFFCURVE",
"-39 38 CURVE SMOOTH",
"-39 14 OFFCURVE",
"-21 0 OFFCURVE",
"0 0 CURVE SMOOTH",
"149 0 OFFCURVE",
"279 -24 OFFCURVE",
"398 -69 CURVE SMOOTH",
"490 -104 OFFCURVE",
"576 -149 OFFCURVE",
"660 -205 CURVE SMOOTH",
"735 -255 OFFCURVE",
"782 -289 OFFCURVE",
"870 -351 CURVE SMOOTH"
);
}
);
width = 571;
}
);
},
{
glyphname = uni0713.Medi.SYRJ;
lastChange = "2018-09-11 18:35:11 +0000";
layers = (
{
anchors = (
{
name = Anchor116;
position = "{492, 161}";
},
{
name = Anchor118;
position = "{677, -477}";
},
{
name = Anchor120;
position = "{428, -444}";
},
{
name = Anchor122;
position = "{373, 357}";
}
);
layerId = UUID0;
paths = (
{
closed = 1;
nodes = (
"374 139 LINE",
"329 76 LINE",
"728 -220 LINE SMOOTH",
"743 -231 OFFCURVE",
"751 -244 OFFCURVE",
"751 -259 CURVE SMOOTH",
"751 -292 OFFCURVE",
"716 -315 OFFCURVE",
"669 -315 CURVE SMOOTH",
"626 -315 OFFCURVE",
"595 -296 OFFCURVE",
"564 -273 CURVE SMOOTH",
"187 9 LINE SMOOTH",
"145 40 OFFCURVE",
"94 76 OFFCURVE",
"26 76 CURVE SMOOTH",
"0 76 LINE SMOOTH",
"-21 76 OFFCURVE",
"-39 62 OFFCURVE",
"-39 38 CURVE SMOOTH",
"-39 15 OFFCURVE",
"-21 0 OFFCURVE",
"0 0 CURVE SMOOTH",
"17 0 LINE SMOOTH",
"64 0 OFFCURVE",
"102 -24 OFFCURVE",
"138 -51 CURVE SMOOTH",
"508 -328 LINE SMOOTH",
"568 -373 OFFCURVE",
"619 -391 OFFCURVE",
"667 -391 CURVE SMOOTH",
"779 -391 OFFCURVE",
"828 -319 OFFCURVE",
"828 -259 CURVE SMOOTH",
"828 -220 OFFCURVE",
"812 -190 OFFCURVE",
"771 -159 CURVE SMOOTH",
"629 -53 LINE SMOOTH",
"614 -42 OFFCURVE",
"551 1 OFFCURVE",
"540 7 CURVE",
"540 10 LINE",
"570 5 OFFCURVE",
"611 0 OFFCURVE",
"626 0 CURVE SMOOTH",
"631 0 LINE",
"631 76 LINE",
"456 76 LINE"
);
}
);
width = 631;
}
);
},
{
glyphname = uni0713.Medi.SYRN;
lastChange = "2018-09-11 18:35:11 +0000";
layers = (
{
anchors = (
{
name = Anchor60;
position = "{360, 325}";
},
{
name = Anchor62;
position = "{242, -91}";
},
{
name = Anchor64;
position = "{171, -98}";
},
{
name = Anchor66;
position = "{-9, 773}";
}
);
layerId = UUID0;
paths = (
{
closed = 1;
nodes = (
"493 -240 LINE",
"493 -141 LINE",
"447 -141 LINE",
"374 0 LINE",
"386 0 LINE",
"386 76 LINE",
"370 76 OFFCURVE",
"356 90 OFFCURVE",
"334 134 CURVE SMOOTH",
"47 693 LINE",
"-23 659 LINE",
"277 76 LINE",
"0 76 LINE SMOOTH",
"-21 76 OFFCURVE",
"-39 61 OFFCURVE",
"-39 38 CURVE SMOOTH",
"-39 14 OFFCURVE",
"-21 0 OFFCURVE",
"0 0 CURVE SMOOTH",
"275 0 LINE",
"293 46 LINE",
"295 46 LINE",
"397 -152 LINE",
"397 -240 LINE"
);
}
);
width = 386;
}
);
},
{
glyphname = uni0713.Init;
lastChange = "2018-09-11 18:35:11 +0000";
layers = (
{
anchors = (
{
name = Anchor2;
position = "{483, 253}";
},
{
name = Anchor4;
position = "{508, -232}";
},
{
name = Anchor6;
position = "{248, -157}";
},
{
name = Anchor8;
position = "{271, 586}";
}
);
layerId = UUID0;
paths = (
{
closed = 1;
nodes = (
"905 -375 LINE",
"951 -316 LINE",
"872 -264 OFFCURVE",
"797 -205 OFFCURVE",
"686 -105 CURVE SMOOTH",
"623 -49 OFFCURVE",
"561 12 OFFCURVE",
"502 75 CURVE SMOOTH",
"353 234 OFFCURVE",
"220 403 OFFCURVE",
"124 536 CURVE",
"54 496 LINE",
"140 376 OFFCURVE",
"253 228 OFFCURVE",
"379 95 CURVE SMOOTH",
"430 41 OFFCURVE",
"484 -11 OFFCURVE",
"538 -58 CURVE",
"535 -61 LINE",
"441 -9 OFFCURVE",
"359 25 OFFCURVE",
"270 47 CURVE SMOOTH",
"189 67 OFFCURVE",
"103 76 OFFCURVE",
"0 76 CURVE SMOOTH",
"-21 76 OFFCURVE",
"-39 61 OFFCURVE",
"-39 38 CURVE SMOOTH",
"-39 14 OFFCURVE",
"-21 0 OFFCURVE",
"0 0 CURVE SMOOTH",
"148 0 OFFCURVE",
"276 -24 OFFCURVE",
"395 -68 CURVE SMOOTH",
"488 -102 OFFCURVE",
"575 -149 OFFCURVE",
"660 -205 CURVE SMOOTH",
"735 -254 OFFCURVE",
"782 -289 OFFCURVE",
"870 -351 CURVE SMOOTH"
);
}
);
width = 718;
}
);
},
{
glyphname = uni0713.Init.SYRJ;
lastChange = "2018-09-11 18:35:11 +0000";
layers = (
{
anchors = (
{
name = Anchor116;
position = "{492, 161}";
},
{
name = Anchor118;
position = "{677, -477}";
},
{
name = Anchor120;
position = "{428, -444}";
},
{
name = Anchor122;
position = "{375, 357}";
}
);
layerId = UUID0;
paths = (
{
closed = 1;
nodes = (
"348 158 LINE",
"303 95 LINE",
"728 -220 LINE SMOOTH",
"743 -231 OFFCURVE",
"751 -244 OFFCURVE",
"751 -259 CURVE SMOOTH",
"751 -292 OFFCURVE",
"716 -315 OFFCURVE",
"669 -315 CURVE SMOOTH",
"626 -315 OFFCURVE",
"595 -296 OFFCURVE",
"564 -273 CURVE SMOOTH",
"187 9 LINE SMOOTH",
"145 41 OFFCURVE",
"94 76 OFFCURVE",
"26 76 CURVE SMOOTH",
"0 76 LINE SMOOTH",
"-21 76 OFFCURVE",
"-39 62 OFFCURVE",
"-39 38 CURVE SMOOTH",
"-39 15 OFFCURVE",
"-21 0 OFFCURVE",
"0 0 CURVE SMOOTH",
"17 0 LINE SMOOTH",
"64 0 OFFCURVE",
"102 -24 OFFCURVE",
"138 -51 CURVE SMOOTH",
"508 -328 LINE SMOOTH",
"568 -373 OFFCURVE",
"619 -391 OFFCURVE",
"667 -391 CURVE SMOOTH",
"779 -391 OFFCURVE",
"828 -319 OFFCURVE",
"828 -259 CURVE SMOOTH",
"828 -220 OFFCURVE",
"812 -189 OFFCURVE",
"771 -159 CURVE SMOOTH"
);
}
);
width = 833;
}
);
},
{
glyphname = uni0713.Init.SYRN;
lastChange = "2018-09-11 18:35:11 +0000";
layers = (
{
anchors = (
{
name = Anchor60;
position = "{359, 325}";
},
{
name = Anchor62;
position = "{273, -91}";
},
{
name = Anchor64;
position = "{171, -98}";
},
{
name = Anchor66;
position = "{-10, 773}";
}
);
layerId = UUID0;
paths = (
{
closed = 1;
nodes = (
"524 -240 LINE",
"524 -141 LINE",
"478 -141 LINE",
"47 693 LINE",
"-23 659 LINE",
"277 76 LINE",
"0 76 LINE SMOOTH",
"-21 76 OFFCURVE",
"-39 61 OFFCURVE",
"-39 38 CURVE SMOOTH",
"-39 14 OFFCURVE",
"-21 0 OFFCURVE",
"0 0 CURVE SMOOTH",
"306 0 LINE",
"324 46 LINE",
"326 46 LINE",
"428 -152 LINE",
"428 -240 LINE"
);
}
);
width = 451;
}
);
},
{
glyphname = uni0714;
lastChange = "2018-09-11 18:35:11 +0000";
layers = (
{
anchors = (
{
name = Anchor6;
position = "{605, -146}";
},
{
name = Anchor8;
position = "{643, 586}";
}
);
layerId = UUID0;
paths = (
{
closed = 1;
nodes = (
"1278 -375 LINE",
"1324 -316 LINE",
"1245 -264 OFFCURVE",
"1170 -205 OFFCURVE",
"1059 -105 CURVE SMOOTH",
"997 -50 OFFCURVE",
"936 10 OFFCURVE",
"878 72 CURVE SMOOTH",
"728 231 OFFCURVE",
"594 403 OFFCURVE",
"497 536 CURVE",
"427 496 LINE",
"505 386 OFFCURVE",
"628 227 OFFCURVE",
"751 93 CURVE SMOOTH",
"820 18 OFFCURVE",
"882 -43 OFFCURVE",
"958 -97 CURVE",
"955 -100 LINE",
"850 -36 OFFCURVE",
"774 -5 OFFCURVE",
"685 21 CURVE SMOOTH",
"513 71 OFFCURVE",
"384 76 OFFCURVE",
"278 76 CURVE SMOOTH",
"220 76 OFFCURVE",
"103 69 OFFCURVE",
"49 58 CURVE",
"63 -12 LINE",
"123 -4 OFFCURVE",
"223 0 OFFCURVE",
"293 0 CURVE SMOOTH",
"448 0 OFFCURVE",
"607 -28 OFFCURVE",
"773 -88 CURVE SMOOTH",
"871 -123 OFFCURVE",
"958 -167 OFFCURVE",
"1033 -211 CURVE SMOOTH",
"1106 -254 OFFCURVE",
"1168 -297 OFFCURVE",
"1222 -335 CURVE SMOOTH"
);
},
{
closed = 1;
nodes = (
"490 148 OFFCURVE",
"510 168 OFFCURVE",
"510 204 CURVE SMOOTH",
"510 241 OFFCURVE",
"491 261 OFFCURVE",
"458 261 CURVE SMOOTH",
"427 261 OFFCURVE",
"409 241 OFFCURVE",
"409 204 CURVE SMOOTH",
"409 164 OFFCURVE",
"430 148 OFFCURVE",
"458 148 CURVE SMOOTH"
);
}
);
width = 1091;
}
);
unicode = 0714;
},
{
glyphname = uni0714.SYRJ;
lastChange = "2018-09-11 18:35:11 +0000";
layers = (
{
anchors = (
{
name = Anchor116;
position = "{507, 161}";
},
{
name = Anchor118;
position = "{693, -477}";
},
{
name = Anchor120;
position = "{443, -444}";
},
{
name = Anchor122;
position = "{391, 357}";
}
);
layerId = UUID0;
paths = (
{
closed = 1;
nodes = (
"422 -124 OFFCURVE",
"438 -138 OFFCURVE",
"460 -138 CURVE SMOOTH",
"480 -138 OFFCURVE",
"497 -124 OFFCURVE",
"497 -97 CURVE SMOOTH",
"497 -70 OFFCURVE",
"480 -56 OFFCURVE",
"460 -56 CURVE SMOOTH",
"438 -56 OFFCURVE",
"422 -70 OFFCURVE",
"422 -97 CURVE SMOOTH"
);
},
{
closed = 1;
nodes = (
"523 -328 LINE SMOOTH",
"584 -373 OFFCURVE",
"634 -391 OFFCURVE",
"683 -391 CURVE SMOOTH",
"794 -391 OFFCURVE",
"843 -319 OFFCURVE",
"843 -259 CURVE SMOOTH",
"843 -220 OFFCURVE",
"828 -189 OFFCURVE",
"787 -159 CURVE SMOOTH",
"389 139 LINE",
"344 76 LINE",
"744 -220 LINE SMOOTH",
"759 -231 OFFCURVE",
"767 -244 OFFCURVE",
"767 -259 CURVE SMOOTH",
"767 -292 OFFCURVE",
"731 -315 OFFCURVE",
"685 -315 CURVE SMOOTH",
"642 -315 OFFCURVE",
"610 -296 OFFCURVE",
"580 -273 CURVE SMOOTH",
"214 0 LINE SMOOTH",
"157 42 OFFCURVE",
"132 85 OFFCURVE",
"132 138 CURVE SMOOTH",
"132 161 OFFCURVE",
"137 178 OFFCURVE",
"147 199 CURVE",
"91 234 LINE",
"70 207 OFFCURVE",
"59 169 OFFCURVE",
"59 130 CURVE SMOOTH",
"59 60 OFFCURVE",
"92 -6 OFFCURVE",
"165 -60 CURVE SMOOTH"
);
}
);
width = 848;
}
);
},
{
glyphname = uni0714.SYRN;
lastChange = "2018-09-11 18:35:11 +0000";
layers = (
{
anchors = (
{
name = Anchor60;
position = "{743, 323}";
},
{
name = Anchor62;
position = "{655, -91}";
},
{
name = Anchor64;
position = "{384, -98}";
},
{
name = Anchor66;
position = "{374, 772}";
}
);
layerId = UUID0;
paths = (
{
closed = 1;
nodes = (
"906 -240 LINE",
"906 -141 LINE",
"860 -141 LINE",
"429 693 LINE",
"358 659 LINE",
"659 76 LINE",
"267 76 LINE SMOOTH",
"175 76 OFFCURVE",
"127 90 OFFCURVE",
"94 138 CURVE",
"49 78 LINE",
"69 30 OFFCURVE",
"136 0 OFFCURVE",
"240 0 CURVE SMOOTH",
"688 0 LINE",
"706 46 LINE",
"708 46 LINE",
"810 -152 LINE",
"810 -240 LINE"
);
},
{
closed = 1;
nodes = (
"488 156 LINE",
"488 241 LINE",
"406 241 LINE",
"406 156 LINE"
);
}
);
width = 833;
}
);
},
{
glyphname = uni0714.Fina;
lastChange = "2018-09-11 18:35:11 +0000";
layers = (
{
anchors = (
{
name = Anchor6;
position = "{600, -146}";
},
{
name = Anchor8;
position = "{646, 586}";
}
);
layerId = UUID0;
paths = (
{
closed = 1;
nodes = (
"1278 -375 LINE",
"1324 -316 LINE",
"1245 -264 OFFCURVE",
"1170 -205 OFFCURVE",
"1059 -105 CURVE SMOOTH",
"1021 -70 OFFCURVE",
"982 -34 OFFCURVE",
"945 3 CURVE",
"945 40 LINE",
"945 76 LINE",
"875 76 LINE",
"726 234 OFFCURVE",
"593 404 OFFCURVE",
"497 536 CURVE",
"427 496 LINE",
"505 387 OFFCURVE",
"626 228 OFFCURVE",
"750 95 CURVE SMOOTH",
"818 22 OFFCURVE",
"883 -43 OFFCURVE",
"958 -97 CURVE",
"955 -100 LINE",
"848 -34 OFFCURVE",
"773 -5 OFFCURVE",
"685 21 CURVE SMOOTH",
"513 71 OFFCURVE",
"384 76 OFFCURVE",
"278 76 CURVE SMOOTH",
"220 76 OFFCURVE",
"103 69 OFFCURVE",
"49 58 CURVE",
"63 -12 LINE",
"123 -4 OFFCURVE",
"223 0 OFFCURVE",
"293 0 CURVE SMOOTH",
"448 0 OFFCURVE",
"607 -28 OFFCURVE",
"773 -88 CURVE SMOOTH",
"870 -123 OFFCURVE",
"955 -165 OFFCURVE",
"1030 -209 CURVE SMOOTH",
"1104 -252 OFFCURVE",
"1167 -296 OFFCURVE",
"1222 -335 CURVE SMOOTH"
);
},
{
closed = 1;
nodes = (
"490 148 OFFCURVE",
"510 168 OFFCURVE",
"510 204 CURVE SMOOTH",
"510 241 OFFCURVE",
"491 261 OFFCURVE",
"458 261 CURVE SMOOTH",
"427 261 OFFCURVE",
"409 241 OFFCURVE",
"409 204 CURVE SMOOTH",
"409 164 OFFCURVE",
"430 148 OFFCURVE",
"458 148 CURVE SMOOTH"
);
}
);
width = 945;
}
);
},
{
glyphname = uni0714.Fina.SYRJ;
lastChange = "2018-09-11 18:35:11 +0000";
layers = (
{
anchors = (
{
name = Anchor116;
position = "{508, 161}";
},
{
name = Anchor118;
position = "{693, -478}";
},
{
name = Anchor120;
position = "{443, -444}";
},
{
name = Anchor122;
position = "{391, 357}";
}
);
layerId = UUID0;
paths = (
{
closed = 1;
nodes = (
"422 -124 OFFCURVE",
"438 -138 OFFCURVE",
"460 -138 CURVE SMOOTH",
"480 -138 OFFCURVE",
"497 -124 OFFCURVE",
"497 -97 CURVE SMOOTH",
"497 -70 OFFCURVE",
"480 -56 OFFCURVE",
"460 -56 CURVE SMOOTH",
"438 -56 OFFCURVE",
"422 -70 OFFCURVE",
"422 -97 CURVE SMOOTH"
);
},
{
closed = 1;
nodes = (
"523 -328 LINE SMOOTH",
"584 -374 OFFCURVE",
"634 -391 OFFCURVE",
"683 -391 CURVE SMOOTH",
"794 -391 OFFCURVE",
"843 -319 OFFCURVE",
"843 -259 CURVE SMOOTH",
"843 -220 OFFCURVE",
"828 -189 OFFCURVE",
"787 -159 CURVE SMOOTH",
"645 -53 LINE SMOOTH",
"629 -41 OFFCURVE",
"567 1 OFFCURVE",
"556 7 CURVE",
"556 10 LINE",
"586 5 OFFCURVE",
"626 0 OFFCURVE",
"642 0 CURVE SMOOTH",
"647 0 LINE",
"647 76 LINE",
"473 76 LINE",
"389 139 LINE",
"344 76 LINE",
"744 -220 LINE SMOOTH",
"759 -231 OFFCURVE",
"767 -244 OFFCURVE",
"767 -259 CURVE SMOOTH",
"767 -292 OFFCURVE",
"731 -315 OFFCURVE",
"685 -315 CURVE SMOOTH",
"642 -315 OFFCURVE",
"610 -296 OFFCURVE",
"580 -273 CURVE SMOOTH",
"214 0 LINE SMOOTH",
"157 42 OFFCURVE",
"132 85 OFFCURVE",
"132 138 CURVE SMOOTH",
"132 161 OFFCURVE",
"137 178 OFFCURVE",
"147 199 CURVE",
"91 234 LINE",
"70 207 OFFCURVE",
"59 169 OFFCURVE",
"59 130 CURVE SMOOTH",
"59 60 OFFCURVE",
"93 -5 OFFCURVE",
"166 -60 CURVE SMOOTH"
);
}
);
width = 647;
}
);
},
{
glyphname = uni0714.Fina.SYRN;
lastChange = "2018-09-11 18:35:11 +0000";
layers = (
{
anchors = (
{
name = Anchor60;
position = "{742, 325}";
},
{
name = Anchor62;
position = "{625, -91}";
},
{
name = Anchor64;
position = "{372, -98}";
},
{
name = Anchor66;
position = "{374, 773}";
}
);
layerId = UUID0;
paths = (
{
closed = 1;
nodes = (
"875 -240 LINE",
"875 -141 LINE",
"829 -141 LINE",
"756 0 LINE",
"768 0 LINE",
"768 76 LINE",
"752 76 OFFCURVE",
"739 91 OFFCURVE",
"717 134 CURVE SMOOTH",
"429 693 LINE",
"359 659 LINE",
"659 76 LINE",
"267 76 LINE SMOOTH",
"175 76 OFFCURVE",
"127 90 OFFCURVE",
"94 138 CURVE",
"49 78 LINE",
"69 30 OFFCURVE",
"136 0 OFFCURVE",
"240 0 CURVE SMOOTH",
"657 0 LINE",
"675 46 LINE",
"677 46 LINE",
"779 -152 LINE",
"779 -240 LINE"
);
},
{
closed = 1;
nodes = (
"488 156 LINE",
"488 241 LINE",
"406 241 LINE",
"406 156 LINE"
);
}
);
width = 768;
}
);
},
{
glyphname = uni0714.Medi;
lastChange = "2018-09-11 18:35:11 +0000";
layers = (
{
anchors = (
{
name = Anchor6;
position = "{248, -157}";
},
{
name = Anchor8;
position = "{271, 586}";
}
);
layerId = UUID0;
paths = (
{
closed = 1;
nodes = (
"905 -375 LINE",
"951 -316 LINE",
"872 -264 OFFCURVE",
"797 -205 OFFCURVE",
"686 -105 CURVE SMOOTH",
"647 -70 OFFCURVE",
"609 -34 OFFCURVE",
"571 4 CURVE",
"571 40 LINE",
"571 76 LINE",
"501 76 LINE",
"353 234 OFFCURVE",
"220 404 OFFCURVE",
"124 536 CURVE",
"54 496 LINE",
"140 376 OFFCURVE",
"253 227 OFFCURVE",
"379 94 CURVE SMOOTH",
"430 40 OFFCURVE",
"484 -11 OFFCURVE",
"538 -58 CURVE",
"535 -61 LINE",
"442 -9 OFFCURVE",
"359 25 OFFCURVE",
"271 47 CURVE SMOOTH",
"190 67 OFFCURVE",
"104 76 OFFCURVE",
"0 76 CURVE SMOOTH",
"-21 76 OFFCURVE",
"-39 61 OFFCURVE",
"-39 38 CURVE SMOOTH",
"-39 14 OFFCURVE",
"-21 0 OFFCURVE",
"0 0 CURVE SMOOTH",
"149 0 OFFCURVE",
"279 -24 OFFCURVE",
"398 -69 CURVE SMOOTH",
"490 -104 OFFCURVE",
"576 -149 OFFCURVE",
"660 -205 CURVE SMOOTH",
"734 -254 OFFCURVE",
"782 -287 OFFCURVE",
"870 -350 CURVE SMOOTH"
);
},
{
closed = 1;
nodes = (
"115 148 OFFCURVE",
"135 168 OFFCURVE",
"135 204 CURVE SMOOTH",
"135 241 OFFCURVE",
"116 261 OFFCURVE",
"83 261 CURVE SMOOTH",
"52 261 OFFCURVE",
"34 241 OFFCURVE",
"34 204 CURVE SMOOTH",
"34 164 OFFCURVE",
"55 148 OFFCURVE",
"83 148 CURVE SMOOTH"
);
}
);
width = 571;
}
);
},
{
glyphname = uni0714.Medi.SYRJ;
lastChange = "2018-09-11 18:35:11 +0000";
layers = (
{
anchors = (
{
name = Anchor116;
position = "{492, 161}";
},
{
name = Anchor118;
position = "{677, -476}";
},
{
name = Anchor120;
position = "{428, -444}";
},
{
name = Anchor122;
position = "{375, 357}";
}
);
layerId = UUID0;
paths = (
{
closed = 1;
nodes = (
"406 -124 OFFCURVE",
"422 -138 OFFCURVE",
"444 -138 CURVE SMOOTH",
"464 -138 OFFCURVE",
"481 -124 OFFCURVE",
"481 -97 CURVE SMOOTH",
"481 -70 OFFCURVE",
"464 -56 OFFCURVE",
"444 -56 CURVE SMOOTH",
"422 -56 OFFCURVE",
"406 -70 OFFCURVE",
"406 -97 CURVE SMOOTH"
);
},
{
closed = 1;
nodes = (
"374 139 LINE",
"329 76 LINE",
"728 -220 LINE SMOOTH",
"743 -231 OFFCURVE",
"751 -244 OFFCURVE",
"751 -259 CURVE SMOOTH",
"751 -292 OFFCURVE",
"716 -315 OFFCURVE",
"669 -315 CURVE SMOOTH",
"626 -315 OFFCURVE",
"595 -296 OFFCURVE",
"564 -273 CURVE SMOOTH",
"187 9 LINE SMOOTH",
"145 41 OFFCURVE",
"94 76 OFFCURVE",
"26 76 CURVE SMOOTH",
"0 76 LINE SMOOTH",
"-21 76 OFFCURVE",
"-39 62 OFFCURVE",
"-39 38 CURVE SMOOTH",
"-39 15 OFFCURVE",
"-21 0 OFFCURVE",
"0 0 CURVE SMOOTH",
"17 0 LINE SMOOTH",
"64 0 OFFCURVE",
"102 -24 OFFCURVE",
"138 -51 CURVE SMOOTH",
"508 -328 LINE SMOOTH",
"568 -373 OFFCURVE",
"619 -391 OFFCURVE",
"667 -391 CURVE SMOOTH",
"779 -391 OFFCURVE",
"828 -319 OFFCURVE",
"828 -259 CURVE SMOOTH",
"828 -220 OFFCURVE",
"812 -190 OFFCURVE",
"771 -159 CURVE SMOOTH",
"629 -53 LINE SMOOTH",
"614 -42 OFFCURVE",
"551 1 OFFCURVE",
"540 7 CURVE",
"540 10 LINE",
"570 5 OFFCURVE",
"611 0 OFFCURVE",
"626 0 CURVE SMOOTH",
"631 0 LINE",
"631 76 LINE",
"456 76 LINE"
);
}
);
width = 631;
}
);
},
{
glyphname = uni0714.Medi.SYRN;
lastChange = "2018-09-11 18:35:11 +0000";
layers = (
{
anchors = (
{
name = Anchor62;
position = "{242, -91}";
},
{
name = Anchor64;
position = "{171, -98}";
},
{
name = Anchor66;
position = "{-9, 773}";
}
);
layerId = UUID0;
paths = (
{
closed = 1;
nodes = (
"493 -240 LINE",
"493 -141 LINE",
"447 -141 LINE",
"374 0 LINE",
"386 0 LINE",
"386 76 LINE",
"370 76 OFFCURVE",
"356 90 OFFCURVE",
"334 134 CURVE SMOOTH",
"47 693 LINE",
"-23 659 LINE",
"277 76 LINE",
"0 76 LINE SMOOTH",
"-21 76 OFFCURVE",
"-39 61 OFFCURVE",
"-39 38 CURVE SMOOTH",
"-39 14 OFFCURVE",
"-21 0 OFFCURVE",
"0 0 CURVE SMOOTH",
"275 0 LINE",
"293 46 LINE",
"295 46 LINE",
"397 -152 LINE",
"397 -240 LINE"
);
},
{
closed = 1;
nodes = (
"106 156 LINE",
"106 241 LINE",
"24 241 LINE",
"24 156 LINE"
);
}
);
width = 386;
}
);
},
{
glyphname = uni0714.Init;
lastChange = "2018-09-11 18:35:11 +0000";
layers = (
{
anchors = (
{
name = Anchor6;
position = "{249, -157}";
},
{
name = Anchor8;
position = "{271, 586}";
}
);
layerId = UUID0;
paths = (
{
closed = 1;
nodes = (
"905 -375 LINE",
"951 -316 LINE",
"872 -264 OFFCURVE",
"797 -205 OFFCURVE",
"686 -105 CURVE SMOOTH",
"623 -49 OFFCURVE",
"561 12 OFFCURVE",
"502 75 CURVE SMOOTH",
"353 234 OFFCURVE",
"220 403 OFFCURVE",
"124 536 CURVE",
"54 496 LINE",
"140 376 OFFCURVE",
"253 228 OFFCURVE",
"379 95 CURVE SMOOTH",
"430 41 OFFCURVE",
"484 -11 OFFCURVE",
"538 -58 CURVE",
"535 -61 LINE",
"441 -9 OFFCURVE",
"359 25 OFFCURVE",
"270 47 CURVE SMOOTH",
"189 67 OFFCURVE",
"103 76 OFFCURVE",
"0 76 CURVE SMOOTH",
"-21 76 OFFCURVE",
"-39 61 OFFCURVE",
"-39 38 CURVE SMOOTH",
"-39 14 OFFCURVE",
"-21 0 OFFCURVE",
"0 0 CURVE SMOOTH",
"148 0 OFFCURVE",
"276 -24 OFFCURVE",
"395 -68 CURVE SMOOTH",
"488 -102 OFFCURVE",
"575 -149 OFFCURVE",
"660 -205 CURVE SMOOTH",
"735 -254 OFFCURVE",
"782 -289 OFFCURVE",
"870 -351 CURVE SMOOTH"
);
},
{
closed = 1;
nodes = (
"115 148 OFFCURVE",
"135 168 OFFCURVE",
"135 204 CURVE SMOOTH",
"135 241 OFFCURVE",
"116 261 OFFCURVE",
"83 261 CURVE SMOOTH",
"52 261 OFFCURVE",
"34 241 OFFCURVE",
"34 204 CURVE SMOOTH",
"34 164 OFFCURVE",
"55 148 OFFCURVE",
"83 148 CURVE SMOOTH"
);
}
);
width = 718;
}
);
},
{
glyphname = uni0714.Init.SYRJ;
lastChange = "2018-09-11 18:35:11 +0000";
layers = (
{
anchors = (
{
name = Anchor116;
position = "{492, 161}";
},
{
name = Anchor118;
position = "{677, -477}";
},
{
name = Anchor120;
position = "{428, -444}";
},
{
name = Anchor122;
position = "{375, 357}";
}
);
layerId = UUID0;
paths = (
{
closed = 1;
nodes = (
"406 -124 OFFCURVE",
"422 -138 OFFCURVE",
"444 -138 CURVE SMOOTH",
"464 -138 OFFCURVE",
"481 -124 OFFCURVE",
"481 -97 CURVE SMOOTH",
"481 -70 OFFCURVE",
"464 -56 OFFCURVE",
"444 -56 CURVE SMOOTH",
"422 -56 OFFCURVE",
"406 -70 OFFCURVE",
"406 -97 CURVE SMOOTH"
);
},
{
closed = 1;
nodes = (
"348 158 LINE",
"303 95 LINE",
"728 -220 LINE SMOOTH",
"743 -231 OFFCURVE",
"751 -244 OFFCURVE",
"751 -259 CURVE SMOOTH",
"751 -292 OFFCURVE",
"716 -315 OFFCURVE",
"669 -315 CURVE SMOOTH",
"626 -315 OFFCURVE",
"595 -296 OFFCURVE",
"564 -273 CURVE SMOOTH",
"187 9 LINE SMOOTH",
"145 41 OFFCURVE",
"94 76 OFFCURVE",
"26 76 CURVE SMOOTH",
"0 76 LINE SMOOTH",
"-21 76 OFFCURVE",
"-39 62 OFFCURVE",
"-39 38 CURVE SMOOTH",
"-39 15 OFFCURVE",
"-21 0 OFFCURVE",
"0 0 CURVE SMOOTH",
"17 0 LINE SMOOTH",
"64 0 OFFCURVE",
"102 -24 OFFCURVE",
"138 -51 CURVE SMOOTH",
"508 -328 LINE SMOOTH",
"568 -373 OFFCURVE",
"619 -391 OFFCURVE",
"667 -391 CURVE SMOOTH",
"779 -391 OFFCURVE",
"828 -319 OFFCURVE",
"828 -259 CURVE SMOOTH",
"828 -220 OFFCURVE",
"812 -189 OFFCURVE",
"771 -159 CURVE SMOOTH"
);
}
);
width = 833;
}
);
},
{
glyphname = uni0714.Init.SYRN;
lastChange = "2018-09-11 18:35:11 +0000";
layers = (
{
anchors = (
{
name = Anchor62;
position = "{273, -91}";
},
{
name = Anchor64;
position = "{171, -98}";
},
{
name = Anchor66;
position = "{-10, 773}";
}
);
layerId = UUID0;
paths = (
{
closed = 1;
nodes = (
"524 -240 LINE",
"524 -141 LINE",
"478 -141 LINE",
"47 693 LINE",
"-23 659 LINE",
"277 76 LINE",
"0 76 LINE SMOOTH",
"-21 76 OFFCURVE",
"-39 61 OFFCURVE",
"-39 38 CURVE SMOOTH",
"-39 14 OFFCURVE",
"-21 0 OFFCURVE",
"0 0 CURVE SMOOTH",
"306 0 LINE",
"324 46 LINE",
"326 46 LINE",
"428 -152 LINE",
"428 -240 LINE"
);
},
{
closed = 1;
nodes = (
"106 156 LINE",
"106 241 LINE",
"24 241 LINE",
"24 156 LINE"
);
}
);
width = 451;
}
);
},
{
glyphname = uni0715;
lastChange = "2018-09-11 18:35:11 +0000";
layers = (
{
anchors = (
{
name = Anchor2;
position = "{429, 492}";
},
{
name = Anchor4;
position = "{443, -106}";
},
{
name = Anchor6;
position = "{203, -73}";
},
{
name = Anchor8;
position = "{201, 525}";
}
);
layerId = UUID0;
paths = (
{
closed = 1;
nodes = (
"248 95 OFFCURVE",
"268 115 OFFCURVE",
"268 151 CURVE SMOOTH",
"268 188 OFFCURVE",
"249 208 OFFCURVE",
"216 208 CURVE SMOOTH",
"185 208 OFFCURVE",
"167 188 OFFCURVE",
"167 151 CURVE SMOOTH",
"167 111 OFFCURVE",
"188 95 OFFCURVE",
"216 95 CURVE SMOOTH"
);
},
{
closed = 1;
nodes = (
"288 353 LINE SMOOTH",
"323 353 OFFCURVE",
"343 350 OFFCURVE",
"348 314 CURVE SMOOTH",
"393 -18 LINE",
"465 -18 LINE",
"417 345 LINE SMOOTH",
"411 390 OFFCURVE",
"380 426 OFFCURVE",
"315 426 CURVE SMOOTH",
"44 426 LINE",
"44 353 LINE"
);
}
);
width = 539;
}
);
unicode = 0715;
},
{
glyphname = uni0715.SYRJ;
lastChange = "2018-09-11 18:35:11 +0000";
layers = (
{
anchors = (
{
name = Anchor116;
position = "{331, 298}";
},
{
name = Anchor118;
position = "{300, -70}";
},
{
name = Anchor120;
position = "{155, -379}";
},
{
name = Anchor122;
position = "{172, 363}";
}
);
layerId = UUID0;
paths = (
{
closed = 1;
nodes = (
"107 -298 OFFCURVE",
"127 -314 OFFCURVE",
"156 -314 CURVE SMOOTH",
"189 -314 OFFCURVE",
"208 -295 OFFCURVE",
"208 -258 CURVE SMOOTH",
"208 -221 OFFCURVE",
"189 -201 OFFCURVE",
"156 -201 CURVE SMOOTH",
"125 -201 OFFCURVE",
"107 -221 OFFCURVE",
"107 -258 CURVE SMOOTH"
);
},
{
closed = 1;
nodes = (
"99 280 OFFCURVE",
"60 205 OFFCURVE",
"60 153 CURVE SMOOTH",
"60 104 OFFCURVE",
"84 72 OFFCURVE",
"133 32 CURVE SMOOTH",
"142 25 OFFCURVE",
"151 17 OFFCURVE",
"160 10 CURVE",
"140 -21 OFFCURVE",
"116 -57 OFFCURVE",
"85 -89 CURVE",
"132 -130 LINE",
"207 -53 OFFCURVE",
"290 42 OFFCURVE",
"290 135 CURVE SMOOTH",
"290 212 OFFCURVE",
"246 280 OFFCURVE",
"174 280 CURVE SMOOTH"
);
}
);
width = 349;
}
);
},
{
glyphname = uni0715.SYRN;
lastChange = "2018-09-11 18:35:11 +0000";
layers = (
{
anchors = (
{
name = Anchor60;
position = "{478, 403}";
},
{
name = Anchor62;
position = "{475, -81}";
},
{
name = Anchor64;
position = "{244, -257}";
},
{
name = Anchor66;
position = "{248, 505}";
}
);
layerId = UUID0;
paths = (
{
closed = 1;
nodes = (
"285 -178 LINE",
"285 -93 LINE",
"203 -93 LINE",
"203 -178 LINE"
);
},
{
closed = 1;
nodes = (
"314 0 LINE SMOOTH",
"429 0 OFFCURVE",
"444 71 OFFCURVE",
"444 136 CURVE SMOOTH",
"444 317 OFFCURVE",
"366 430 OFFCURVE",
"212 430 CURVE SMOOTH",
"162 430 OFFCURVE",
"120 418 OFFCURVE",
"90 399 CURVE",
"90 331 LINE",
"130 350 OFFCURVE",
"168 356 OFFCURVE",
"208 356 CURVE SMOOTH",
"317 356 OFFCURVE",
"370 267 OFFCURVE",
"370 137 CURVE SMOOTH",
"370 102 OFFCURVE",
"361 76 OFFCURVE",
"313 76 CURVE SMOOTH",
"78 76 LINE",
"78 0 LINE"
);
}
);
width = 521;
}
);
},
{
glyphname = uni0715.Fina;
lastChange = "2018-09-11 18:35:11 +0000";
layers = (
{
anchors = (
{
name = Anchor2;
position = "{430, 492}";
},
{
name = Anchor4;
position = "{437, -106}";
},
{
name = Anchor6;
position = "{197, -73}";
},
{
name = Anchor8;
position = "{201, 525}";
}
);
layerId = UUID0;
paths = (
{
closed = 1;
nodes = (
"242 95 OFFCURVE",
"262 115 OFFCURVE",
"262 151 CURVE SMOOTH",
"262 188 OFFCURVE",
"243 208 OFFCURVE",
"210 208 CURVE SMOOTH",
"179 208 OFFCURVE",
"161 188 OFFCURVE",
"161 151 CURVE SMOOTH",
"161 111 OFFCURVE",
"182 95 OFFCURVE",
"210 95 CURVE SMOOTH"
);
},
{
closed = 1;
nodes = (
"525 0 LINE",
"525 76 LINE",
"513 76 LINE SMOOTH",
"502 76 OFFCURVE",
"466 76 OFFCURVE",
"455 79 CURVE",
"450 91 OFFCURVE",
"446 115 OFFCURVE",
"440 165 CURVE SMOOTH",
"417 345 LINE SMOOTH",
"411 390 OFFCURVE",
"380 426 OFFCURVE",
"315 426 CURVE SMOOTH",
"44 426 LINE",
"44 353 LINE",
"288 353 LINE SMOOTH",
"323 353 OFFCURVE",
"343 350 OFFCURVE",
"348 314 CURVE SMOOTH",
"379 86 LINE SMOOTH",
"388 19 OFFCURVE",
"418 0 OFFCURVE",
"467 0 CURVE SMOOTH"
);
}
);
width = 525;
}
);
},
{
glyphname = uni0715.Fina.SYRJ;
lastChange = "2018-09-11 18:35:11 +0000";
layers = (
{
anchors = (
{
name = Anchor116;
position = "{233, 254}";
},
{
name = Anchor118;
position = "{245, -77}";
},
{
name = Anchor120;
position = "{122, -389}";
},
{
name = Anchor122;
position = "{139, 287}";
}
);
layerId = UUID0;
paths = (
{
closed = 1;
nodes = (
"74 -308 OFFCURVE",
"94 -324 OFFCURVE",
"123 -324 CURVE SMOOTH",
"156 -324 OFFCURVE",
"175 -305 OFFCURVE",
"175 -268 CURVE SMOOTH",
"175 -231 OFFCURVE",
"156 -211 OFFCURVE",
"123 -211 CURVE SMOOTH",
"92 -211 OFFCURVE",
"74 -231 OFFCURVE",
"74 -268 CURVE SMOOTH"
);
},
{
closed = 1;
nodes = (
"92 203 OFFCURVE",
"56 162 OFFCURVE",
"56 114 CURVE SMOOTH",
"56 68 OFFCURVE",
"78 39 OFFCURVE",
"122 14 CURVE",
"117 -11 OFFCURVE",
"89 -60 OFFCURVE",
"59 -102 CURVE",
"101 -138 LINE",
"141 -98 OFFCURVE",
"176 -41 OFFCURVE",
"195 4 CURVE",
"217 1 OFFCURVE",
"266 0 OFFCURVE",
"275 0 CURVE",
"275 76 LINE",
"266 76 OFFCURVE",
"226 77 OFFCURVE",
"212 83 CURVE",
"213 92 OFFCURVE",
"213 96 OFFCURVE",
"213 100 CURVE SMOOTH",
"213 158 OFFCURVE",
"186 203 OFFCURVE",
"135 203 CURVE SMOOTH"
);
}
);
width = 275;
}
);
},
{
glyphname = uni0715.Fina.SYRN;
lastChange = "2018-09-11 18:35:11 +0000";
layers = (
{
anchors = (
{
name = Anchor60;
position = "{487, 404}";
},
{
name = Anchor62;
position = "{438, -76}";
},
{
name = Anchor64;
position = "{243, -257}";
},
{
name = Anchor66;
position = "{248, 505}";
}
);
layerId = UUID0;
paths = (
{
closed = 1;
nodes = (
"285 -178 LINE",
"285 -93 LINE",
"203 -93 LINE",
"203 -178 LINE"
);
},
{
closed = 1;
nodes = (
"518 76 LINE",
"478 76 OFFCURVE",
"469 86 OFFCURVE",
"462 121 CURVE SMOOTH",
"441 231 LINE SMOOTH",
"416 364 OFFCURVE",
"341 430 OFFCURVE",
"214 430 CURVE SMOOTH",
"166 430 OFFCURVE",
"114 417 OFFCURVE",
"90 398 CURVE",
"90 331 LINE",
"119 346 OFFCURVE",
"166 356 OFFCURVE",
"199 356 CURVE SMOOTH",
"302 356 OFFCURVE",
"355 306 OFFCURVE",
"375 191 CURVE SMOOTH",
"387 121 LINE",
"383 96 OFFCURVE",
"352 76 OFFCURVE",
"291 76 CURVE SMOOTH",
"78 76 LINE",
"78 0 LINE",
"286 0 LINE SMOOTH",
"329 0 OFFCURVE",
"388 10 OFFCURVE",
"412 48 CURVE",
"414 48 LINE",
"432 14 OFFCURVE",
"462 0 OFFCURVE",
"518 0 CURVE"
);
}
);
width = 518;
}
);
},
{
glyphname = uni0716;
lastChange = "2018-09-11 18:35:11 +0000";
layers = (
{
anchors = (
{
name = Anchor2;
position = "{429, 492}";
},
{
name = Anchor4;
position = "{443, -106}";
},
{
name = Anchor6;
position = "{203, -73}";
},
{
name = Anchor8;
position = "{201, 524}";
}
);
layerId = UUID0;
paths = (
{
closed = 1;
nodes = (
"288 353 LINE SMOOTH",
"323 353 OFFCURVE",
"343 350 OFFCURVE",
"348 314 CURVE SMOOTH",
"393 -18 LINE",
"465 -18 LINE",
"417 345 LINE SMOOTH",
"411 390 OFFCURVE",
"380 426 OFFCURVE",
"315 426 CURVE SMOOTH",
"44 426 LINE",
"44 353 LINE"
);
}
);
width = 539;
}
);
unicode = 0716;
},
{
glyphname = uni0716.SYRJ;
lastChange = "2018-09-11 18:35:11 +0000";
layers = (
{
anchors = (
{
name = Anchor116;
position = "{332, 293}";
},
{
name = Anchor118;
position = "{286, -95}";
},
{
name = Anchor120;
position = "{138, -216}";
},
{
name = Anchor122;
position = "{172, 363}";
}
);
layerId = UUID0;
paths = (
{
closed = 1;
nodes = (
"99 280 OFFCURVE",
"60 205 OFFCURVE",
"60 153 CURVE SMOOTH",
"60 104 OFFCURVE",
"84 72 OFFCURVE",
"133 32 CURVE SMOOTH",
"142 25 OFFCURVE",
"151 17 OFFCURVE",
"160 10 CURVE",
"140 -21 OFFCURVE",
"116 -57 OFFCURVE",
"85 -89 CURVE",
"132 -130 LINE",
"207 -53 OFFCURVE",
"290 42 OFFCURVE",
"290 135 CURVE SMOOTH",
"290 212 OFFCURVE",
"246 280 OFFCURVE",
"174 280 CURVE SMOOTH"
);
}
);
width = 349;
}
);
},
{
glyphname = uni0716.SYRN;
lastChange = "2018-09-11 18:35:11 +0000";
layers = (
{
anchors = (
{
name = Anchor60;
position = "{477, 404}";
},
{
name = Anchor62;
position = "{475, -82}";
},
{
name = Anchor64;
position = "{259, -98}";
},
{
name = Anchor66;
position = "{248, 505}";
}
);
layerId = UUID0;
paths = (
{
closed = 1;
nodes = (
"314 0 LINE SMOOTH",
"429 0 OFFCURVE",
"444 71 OFFCURVE",
"444 136 CURVE SMOOTH",
"444 317 OFFCURVE",
"366 430 OFFCURVE",
"212 430 CURVE SMOOTH",
"162 430 OFFCURVE",
"120 418 OFFCURVE",
"90 399 CURVE",
"90 331 LINE",
"130 350 OFFCURVE",
"168 356 OFFCURVE",
"208 356 CURVE SMOOTH",
"317 356 OFFCURVE",
"370 267 OFFCURVE",
"370 137 CURVE SMOOTH",
"370 102 OFFCURVE",
"361 76 OFFCURVE",
"313 76 CURVE SMOOTH",
"78 76 LINE",
"78 0 LINE"
);
}
);
width = 521;
}
);
},
{
glyphname = uni0716.Fina;
lastChange = "2018-09-11 18:35:11 +0000";
layers = (
{
anchors = (
{
name = Anchor2;
position = "{429, 492}";
},
{
name = Anchor4;
position = "{437, -106}";
},
{
name = Anchor6;
position = "{197, -73}";
},
{
name = Anchor8;
position = "{201, 523}";
}
);
layerId = UUID0;
paths = (
{
closed = 1;
nodes = (
"525 0 LINE",
"525 76 LINE",
"513 76 LINE SMOOTH",
"502 76 OFFCURVE",
"466 76 OFFCURVE",
"455 79 CURVE",
"450 91 OFFCURVE",
"446 115 OFFCURVE",
"440 165 CURVE SMOOTH",
"417 345 LINE SMOOTH",
"411 390 OFFCURVE",
"380 426 OFFCURVE",
"315 426 CURVE SMOOTH",
"44 426 LINE",
"44 353 LINE",
"288 353 LINE SMOOTH",
"323 353 OFFCURVE",
"343 350 OFFCURVE",
"348 314 CURVE SMOOTH",
"379 86 LINE SMOOTH",
"388 19 OFFCURVE",
"418 0 OFFCURVE",
"467 0 CURVE SMOOTH"
);
}
);
width = 525;
}
);
},
{
glyphname = uni0716.Fina.SYRJ;
lastChange = "2018-09-11 18:35:11 +0000";
layers = (
{
anchors = (
{
name = Anchor116;
position = "{235, 253}";
},
{
name = Anchor118;
position = "{248, -106}";
},
{
name = Anchor120;
position = "{101, -226}";
},
{
name = Anchor122;
position = "{139, 287}";
}
);
layerId = UUID0;
paths = (
{
closed = 1;
nodes = (
"92 203 OFFCURVE",
"56 162 OFFCURVE",
"56 114 CURVE SMOOTH",
"56 68 OFFCURVE",
"78 39 OFFCURVE",
"122 14 CURVE",
"117 -11 OFFCURVE",
"89 -60 OFFCURVE",
"59 -102 CURVE",
"101 -138 LINE",
"141 -98 OFFCURVE",
"176 -41 OFFCURVE",
"195 4 CURVE",
"217 1 OFFCURVE",
"266 0 OFFCURVE",
"275 0 CURVE",
"275 76 LINE",
"266 76 OFFCURVE",
"226 77 OFFCURVE",
"212 83 CURVE",
"213 92 OFFCURVE",
"213 96 OFFCURVE",
"213 100 CURVE SMOOTH",
"213 158 OFFCURVE",
"186 203 OFFCURVE",
"135 203 CURVE SMOOTH"
);
}
);
width = 275;
}
);
},
{
glyphname = uni0716.Fina.SYRN;
lastChange = "2018-09-11 18:35:11 +0000";
layers = (
{
anchors = (
{
name = Anchor60;
position = "{488, 404}";
},
{
name = Anchor62;
position = "{439, -82}";
},
{
name = Anchor64;
position = "{259, -98}";
},
{
name = Anchor66;
position = "{248, 505}";
}
);
layerId = UUID0;
paths = (
{
closed = 1;
nodes = (
"518 76 LINE",
"478 76 OFFCURVE",
"469 86 OFFCURVE",
"462 121 CURVE SMOOTH",
"441 231 LINE SMOOTH",
"416 364 OFFCURVE",
"341 430 OFFCURVE",
"214 430 CURVE SMOOTH",
"166 430 OFFCURVE",
"114 417 OFFCURVE",
"90 398 CURVE",
"90 331 LINE",
"119 346 OFFCURVE",
"166 356 OFFCURVE",
"199 356 CURVE SMOOTH",
"302 356 OFFCURVE",
"355 306 OFFCURVE",
"375 191 CURVE SMOOTH",
"387 121 LINE",
"383 96 OFFCURVE",
"352 76 OFFCURVE",
"291 76 CURVE SMOOTH",
"78 76 LINE",
"78 0 LINE",
"286 0 LINE SMOOTH",
"329 0 OFFCURVE",
"388 10 OFFCURVE",
"412 48 CURVE",
"414 48 LINE",
"432 14 OFFCURVE",
"462 0 OFFCURVE",
"518 0 CURVE"
);
}
);
width = 518;
}
);
},
{
glyphname = uni0717;
lastChange = "2018-09-11 18:35:11 +0000";
layers = (
{
anchors = (
{
name = Anchor6;
position = "{474, -97}";
},
{
name = Anchor8;
position = "{464, 540}";
}
);
layerId = UUID0;
paths = (
{
closed = 1;
nodes = (
"643 2 LINE",
"653 0 OFFCURVE",
"664 0 OFFCURVE",
"667 0 CURVE SMOOTH",
"838 0 OFFCURVE",
"861 116 OFFCURVE",
"861 195 CURVE SMOOTH",
"861 334 OFFCURVE",
"809 436 OFFCURVE",
"649 436 CURVE SMOOTH",
"608 436 OFFCURVE",
"559 426 OFFCURVE",
"498 426 CURVE SMOOTH",
"437 426 OFFCURVE",
"394 437 OFFCURVE",
"312 437 CURVE SMOOTH",
"164 437 OFFCURVE",
"68 358 OFFCURVE",
"68 225 CURVE SMOOTH",
"68 102 OFFCURVE",
"125 33 OFFCURVE",
"231 -8 CURVE",
"264 57 LINE",
"187 89 OFFCURVE",
"142 131 OFFCURVE",
"142 216 CURVE SMOOTH",
"142 334 OFFCURVE",
"229 365 OFFCURVE",
"333 365 CURVE SMOOTH",
"370 365 OFFCURVE",
"420 362 OFFCURVE",
"458 354 CURVE",
"361 5 LINE",
"426 -6 LINE",
"535 353 LINE",
"561 357 OFFCURVE",
"598 362 OFFCURVE",
"643 362 CURVE SMOOTH",
"749 362 OFFCURVE",
"788 312 OFFCURVE",
"788 198 CURVE SMOOTH",
"788 137 OFFCURVE",
"777 75 OFFCURVE",
"676 75 CURVE SMOOTH",
"671 75 OFFCURVE",
"663 75 OFFCURVE",
"646 76 CURVE"
);
}
);
width = 930;
}
);
unicode = 0717;
},
{
glyphname = uni0717.SYRJ;
lastChange = "2018-09-11 18:35:11 +0000";
layers = (
{
anchors = (
{
name = Anchor120;
position = "{333, -98}";
},
{
name = Anchor122;
position = "{341, 507}";
}
);
layerId = UUID0;
paths = (
{
closed = 1;
nodes = (
"566 280 LINE",
"570 266 OFFCURVE",
"575 229 OFFCURVE",
"575 189 CURVE SMOOTH",
"575 121 OFFCURVE",
"564 43 OFFCURVE",
"556 4 CURVE",
"620 -7 LINE",
"638 56 OFFCURVE",
"644 122 OFFCURVE",
"644 201 CURVE SMOOTH",
"644 261 OFFCURVE",
"630 346 OFFCURVE",
"606 399 CURVE",
"549 387 LINE",
"527 344 OFFCURVE",
"501 295 OFFCURVE",
"475 260 CURVE",
"472 260 LINE",
"449 354 OFFCURVE",
"366 417 OFFCURVE",
"251 417 CURVE SMOOTH",
"139 417 OFFCURVE",
"45 337 OFFCURVE",
"45 211 CURVE SMOOTH",
"45 87 OFFCURVE",
"132 0 OFFCURVE",
"260 0 CURVE SMOOTH",
"372 0 OFFCURVE",
"456 62 OFFCURVE",
"477 158 CURVE",
"508 195 OFFCURVE",
"544 244 OFFCURVE",
"562 279 CURVE"
);
},
{
closed = 1;
nodes = (
"173 76 OFFCURVE",
"117 137 OFFCURVE",
"117 216 CURVE SMOOTH",
"117 294 OFFCURVE",
"178 344 OFFCURVE",
"251 344 CURVE SMOOTH",
"348 344 OFFCURVE",
"409 286 OFFCURVE",
"409 208 CURVE SMOOTH",
"409 119 OFFCURVE",
"343 76 OFFCURVE",
"270 76 CURVE SMOOTH"
);
}
);
width = 717;
}
);
},
{
glyphname = uni0717.SYRN;
lastChange = "2018-09-11 18:35:11 +0000";
layers = (
{
anchors = (
{
name = Anchor64;
position = "{398, -98}";
},
{
name = Anchor66;
position = "{405, 523}";
}
);
layerId = UUID0;
paths = (
{
closed = 1;
nodes = (
"687 0 LINE",
"687 434 LINE",
"678 431 OFFCURVE",
"651 429 OFFCURVE",
"606 428 CURVE SMOOTH",
"561 427 OFFCURVE",
"514 426 OFFCURVE",
"465 426 CURVE SMOOTH",
"224 426 LINE SMOOTH",
"177 426 OFFCURVE",
"140 406 OFFCURVE",
"111 366 CURVE SMOOTH",
"82 327 OFFCURVE",
"68 280 OFFCURVE",
"68 226 CURVE SMOOTH",
"68 159 OFFCURVE",
"85 103 OFFCURVE",
"122 62 CURVE SMOOTH",
"159 20 OFFCURVE",
"207 -1 OFFCURVE",
"267 -1 CURVE SMOOTH",
"447 -1 OFFCURVE",
"478 133 OFFCURVE",
"478 290 CURVE SMOOTH",
"478 307 OFFCURVE",
"475 333 OFFCURVE",
"472 353 CURVE",
"521 354 OFFCURVE",
"570 355 OFFCURVE",
"619 356 CURVE",
"619 0 LINE"
);
},
{
closed = 1;
nodes = (
"403 353 LINE",
"407 336 OFFCURVE",
"409 312 OFFCURVE",
"409 292 CURVE SMOOTH",
"409 169 OFFCURVE",
"395 74 OFFCURVE",
"275 74 CURVE SMOOTH",
"188 74 OFFCURVE",
"142 129 OFFCURVE",
"142 233 CURVE SMOOTH",
"142 301 OFFCURVE",
"181 353 OFFCURVE",
"229 353 CURVE SMOOTH"
);
}
);
width = 755;
}
);
},
{
glyphname = uni0717.Fina;
lastChange = "2018-09-11 18:35:11 +0000";
layers = (
{
anchors = (
{
name = Anchor6;
position = "{474, -97}";
},
{
name = Anchor8;
position = "{465, 540}";
}
);
layerId = UUID0;
paths = (
{
closed = 1;
nodes = (
"942 0 LINE",
"942 76 LINE",
"824 76 LINE",
"824 79 LINE",
"853 106 OFFCURVE",
"861 155 OFFCURVE",
"861 195 CURVE SMOOTH",
"861 334 OFFCURVE",
"809 436 OFFCURVE",
"649 436 CURVE SMOOTH",
"608 436 OFFCURVE",
"559 426 OFFCURVE",
"498 426 CURVE SMOOTH",
"437 426 OFFCURVE",
"394 437 OFFCURVE",
"312 437 CURVE SMOOTH",
"164 437 OFFCURVE",
"68 358 OFFCURVE",
"68 225 CURVE SMOOTH",
"68 102 OFFCURVE",
"125 33 OFFCURVE",
"231 -8 CURVE",
"264 57 LINE",
"187 89 OFFCURVE",
"142 131 OFFCURVE",
"142 216 CURVE SMOOTH",
"142 334 OFFCURVE",
"229 365 OFFCURVE",
"333 365 CURVE SMOOTH",
"370 365 OFFCURVE",
"420 362 OFFCURVE",
"458 354 CURVE",
"361 5 LINE",
"426 -6 LINE",
"535 353 LINE",
"561 357 OFFCURVE",
"598 362 OFFCURVE",
"643 362 CURVE SMOOTH",
"749 362 OFFCURVE",
"788 312 OFFCURVE",
"788 198 CURVE SMOOTH",
"788 135 OFFCURVE",
"777 72 OFFCURVE",
"673 72 CURVE SMOOTH",
"671 72 OFFCURVE",
"657 72 OFFCURVE",
"646 73 CURVE",
"643 2 LINE",
"653 0 OFFCURVE",
"727 0 OFFCURVE",
"730 0 CURVE SMOOTH"
);
}
);
width = 942;
}
);
},
{
glyphname = uni0717.Fina.SYRJ;
lastChange = "2018-09-11 18:35:11 +0000";
layers = (
{
anchors = (
{
name = Anchor120;
position = "{334, -98}";
},
{
name = Anchor122;
position = "{342, 506}";
}
);
layerId = UUID0;
paths = (
{
closed = 1;
nodes = (
"139 417 OFFCURVE",
"45 337 OFFCURVE",
"45 211 CURVE SMOOTH",
"45 87 OFFCURVE",
"132 0 OFFCURVE",
"260 0 CURVE SMOOTH",
"372 0 OFFCURVE",
"456 62 OFFCURVE",
"477 158 CURVE",
"508 195 OFFCURVE",
"544 244 OFFCURVE",
"562 279 CURVE",
"566 280 LINE",
"570 266 OFFCURVE",
"575 229 OFFCURVE",
"575 189 CURVE SMOOTH",
"575 121 OFFCURVE",
"564 43 OFFCURVE",
"556 4 CURVE",
"620 -7 LINE",
"624 8 OFFCURVE",
"628 23 OFFCURVE",
"631 39 CURVE",
"634 39 LINE",
"652 15 OFFCURVE",
"683 0 OFFCURVE",
"742 0 CURVE",
"742 76 LINE",
"711 76 OFFCURVE",
"645 81 OFFCURVE",
"641 113 CURVE",
"643 141 OFFCURVE",
"644 169 OFFCURVE",
"644 201 CURVE SMOOTH",
"644 261 OFFCURVE",
"630 346 OFFCURVE",
"606 399 CURVE",
"549 387 LINE",
"527 344 OFFCURVE",
"501 295 OFFCURVE",
"475 260 CURVE",
"472 260 LINE",
"449 354 OFFCURVE",
"366 417 OFFCURVE",
"251 417 CURVE SMOOTH"
);
},
{
closed = 1;
nodes = (
"173 76 OFFCURVE",
"117 137 OFFCURVE",
"117 216 CURVE SMOOTH",
"117 294 OFFCURVE",
"178 344 OFFCURVE",
"251 344 CURVE SMOOTH",
"348 344 OFFCURVE",
"409 286 OFFCURVE",
"409 208 CURVE SMOOTH",
"409 119 OFFCURVE",
"343 76 OFFCURVE",
"270 76 CURVE SMOOTH"
);
}
);
width = 742;
}
);
},
{
glyphname = uni0717.Fina.SYRN;
lastChange = "2018-09-11 18:35:11 +0000";
layers = (
{
anchors = (
{
name = Anchor64;
position = "{399, -98}";
},
{
name = Anchor66;
position = "{402, 523}";
}
);
layerId = UUID0;
paths = (
{
closed = 1;
nodes = (
"792 0 LINE",
"792 76 LINE",
"687 76 LINE",
"687 434 LINE",
"678 431 OFFCURVE",
"651 429 OFFCURVE",
"606 428 CURVE SMOOTH",
"561 427 OFFCURVE",
"514 426 OFFCURVE",
"465 426 CURVE SMOOTH",
"224 426 LINE SMOOTH",
"177 426 OFFCURVE",
"140 406 OFFCURVE",
"111 366 CURVE SMOOTH",
"82 327 OFFCURVE",
"68 280 OFFCURVE",
"68 226 CURVE SMOOTH",
"68 159 OFFCURVE",
"86 104 OFFCURVE",
"122 62 CURVE SMOOTH",
"158 20 OFFCURVE",
"207 -1 OFFCURVE",
"267 -1 CURVE SMOOTH",
"447 -1 OFFCURVE",
"478 133 OFFCURVE",
"478 290 CURVE SMOOTH",
"478 307 OFFCURVE",
"475 333 OFFCURVE",
"472 353 CURVE",
"521 354 OFFCURVE",
"570 355 OFFCURVE",
"619 356 CURVE",
"619 0 LINE"
);
},
{
closed = 1;
nodes = (
"403 353 LINE",
"407 336 OFFCURVE",
"409 312 OFFCURVE",
"409 292 CURVE SMOOTH",
"409 169 OFFCURVE",
"395 74 OFFCURVE",
"275 74 CURVE SMOOTH",
"188 74 OFFCURVE",
"142 129 OFFCURVE",
"142 233 CURVE SMOOTH",
"142 301 OFFCURVE",
"181 353 OFFCURVE",
"229 353 CURVE SMOOTH"
);
}
);
width = 792;
}
);
},
{
glyphname = uni0718;
lastChange = "2018-09-11 18:35:11 +0000";
layers = (
{
anchors = (
{
name = Anchor6;
position = "{316, -98}";
},
{
name = Anchor8;
position = "{278, 537}";
}
);
layerId = UUID0;
paths = (
{
closed = 1;
nodes = (
"545 -9 LINE",
"531 93 OFFCURVE",
"515 169 OFFCURVE",
"501 230 CURVE SMOOTH",
"468 371 OFFCURVE",
"419 436 OFFCURVE",
"294 436 CURVE SMOOTH",
"167 436 OFFCURVE",
"68 319 OFFCURVE",
"68 195 CURVE SMOOTH",
"68 56 OFFCURVE",
"163 -9 OFFCURVE",
"283 -9 CURVE SMOOTH",
"326 -9 OFFCURVE",
"363 -5 OFFCURVE",
"396 9 CURVE",
"375 74 LINE",
"347 66 OFFCURVE",
"329 64 OFFCURVE",
"292 64 CURVE SMOOTH",
"209 64 OFFCURVE",
"142 100 OFFCURVE",
"142 197 CURVE SMOOTH",
"142 284 OFFCURVE",
"204 362 OFFCURVE",
"297 362 CURVE SMOOTH",
"380 362 OFFCURVE",
"405 315 OFFCURVE",
"429 220 CURVE SMOOTH",
"445 156 OFFCURVE",
"461 63 OFFCURVE",
"473 -9 CURVE"
);
}
);
width = 610;
}
);
unicode = 0718;
},
{
glyphname = uni0718.SYRJ;
lastChange = "2018-09-11 18:35:11 +0000";
layers = (
{
anchors = (
{
name = Anchor120;
position = "{254, -98}";
},
{
name = Anchor122;
position = "{264, 507}";
}
);
layerId = UUID0;
paths = (
{
closed = 1;
nodes = (
"137 408 OFFCURVE",
"45 335 OFFCURVE",
"45 212 CURVE SMOOTH",
"45 91 OFFCURVE",
"133 0 OFFCURVE",
"256 0 CURVE SMOOTH",
"377 0 OFFCURVE",
"468 69 OFFCURVE",
"468 196 CURVE SMOOTH",
"468 314 OFFCURVE",
"377 408 OFFCURVE",
"246 408 CURVE SMOOTH"
);
},
{
closed = 1;
nodes = (
"170 76 OFFCURVE",
"118 138 OFFCURVE",
"118 216 CURVE SMOOTH",
"118 291 OFFCURVE",
"177 335 OFFCURVE",
"246 335 CURVE SMOOTH",
"337 335 OFFCURVE",
"395 275 OFFCURVE",
"395 198 CURVE SMOOTH",
"395 113 OFFCURVE",
"334 76 OFFCURVE",
"265 76 CURVE SMOOTH"
);
}
);
width = 518;
}
);
},
{
glyphname = uni0718.SYRN;
lastChange = "2018-09-11 18:35:11 +0000";
layers = (
{
anchors = (
{
name = Anchor64;
position = "{289, -98}";
},
{
name = Anchor66;
position = "{292, 555}";
}
);
layerId = UUID0;
paths = (
{
closed = 1;
nodes = (
"453 -5 OFFCURVE",
"509 101 OFFCURVE",
"509 208 CURVE SMOOTH",
"509 280 OFFCURVE",
"489 338 OFFCURVE",
"450 383 CURVE SMOOTH",
"411 428 OFFCURVE",
"359 451 OFFCURVE",
"292 451 CURVE SMOOTH",
"225 451 OFFCURVE",
"170 428 OFFCURVE",
"129 382 CURVE SMOOTH",
"88 337 OFFCURVE",
"68 279 OFFCURVE",
"68 208 CURVE SMOOTH",
"68 73 OFFCURVE",
"149 -5 OFFCURVE",
"289 -5 CURVE SMOOTH"
);
},
{
closed = 1;
nodes = (
"185 67 OFFCURVE",
"142 118 OFFCURVE",
"142 209 CURVE SMOOTH",
"142 312 OFFCURVE",
"198 378 OFFCURVE",
"289 378 CURVE SMOOTH",
"380 378 OFFCURVE",
"436 312 OFFCURVE",
"436 209 CURVE SMOOTH",
"436 118 OFFCURVE",
"390 67 OFFCURVE",
"289 67 CURVE SMOOTH"
);
}
);
width = 578;
}
);
},
{
glyphname = uni0718.Fina;
lastChange = "2018-09-11 18:35:11 +0000";
layers = (
{
anchors = (
{
name = Anchor6;
position = "{316, -98}";
},
{
name = Anchor8;
position = "{278, 537}";
}
);
layerId = UUID0;
paths = (
{
closed = 1;
nodes = (
"598 0 LINE",
"598 76 LINE",
"586 76 LINE SMOOTH",
"575 76 OFFCURVE",
"548 76 OFFCURVE",
"536 79 CURVE",
"531 91 OFFCURVE",
"525 118 OFFCURVE",
"501 231 CURVE SMOOTH",
"471 372 OFFCURVE",
"419 436 OFFCURVE",
"294 436 CURVE SMOOTH",
"167 436 OFFCURVE",
"68 319 OFFCURVE",
"68 195 CURVE SMOOTH",
"68 56 OFFCURVE",
"163 -9 OFFCURVE",
"283 -9 CURVE SMOOTH",
"326 -9 OFFCURVE",
"363 -5 OFFCURVE",
"396 9 CURVE",
"375 74 LINE",
"347 66 OFFCURVE",
"329 64 OFFCURVE",
"292 64 CURVE SMOOTH",
"209 64 OFFCURVE",
"142 100 OFFCURVE",
"142 197 CURVE SMOOTH",
"142 284 OFFCURVE",
"204 362 OFFCURVE",
"297 362 CURVE SMOOTH",
"380 362 OFFCURVE",
"408 313 OFFCURVE",
"429 217 CURVE SMOOTH",
"439 173 OFFCURVE",
"448 129 OFFCURVE",
"458 85 CURVE SMOOTH",
"473 18 OFFCURVE",
"501 0 OFFCURVE",
"550 0 CURVE SMOOTH"
);
}
);
width = 598;
}
);
},
{
glyphname = uni0718.Fina.SYRJ;
lastChange = "2018-09-11 18:35:11 +0000";
layers = (
{
anchors = (
{
name = Anchor120;
position = "{254, -98}";
},
{
name = Anchor122;
position = "{264, 506}";
}
);
layerId = UUID0;
paths = (
{
closed = 1;
nodes = (
"137 408 OFFCURVE",
"45 335 OFFCURVE",
"45 212 CURVE SMOOTH",
"45 91 OFFCURVE",
"127 0 OFFCURVE",
"277 0 CURVE SMOOTH",
"539 0 LINE",
"539 76 LINE",
"505 76 LINE SMOOTH",
"483 76 OFFCURVE",
"444 75 OFFCURVE",
"423 74 CURVE",
"423 77 LINE",
"448 103 OFFCURVE",
"468 146 OFFCURVE",
"468 196 CURVE SMOOTH",
"468 314 OFFCURVE",
"377 408 OFFCURVE",
"246 408 CURVE SMOOTH"
);
},
{
closed = 1;
nodes = (
"170 76 OFFCURVE",
"118 138 OFFCURVE",
"118 216 CURVE SMOOTH",
"118 291 OFFCURVE",
"177 335 OFFCURVE",
"246 335 CURVE SMOOTH",
"337 335 OFFCURVE",
"395 275 OFFCURVE",
"395 198 CURVE SMOOTH",
"395 113 OFFCURVE",
"334 76 OFFCURVE",
"265 76 CURVE SMOOTH"
);
}
);
width = 539;
}
);
},
{
glyphname = uni0718.Fina.SYRN;
lastChange = "2018-09-11 18:35:11 +0000";
layers = (
{
anchors = (
{
name = Anchor64;
position = "{289, -98}";
},
{
name = Anchor66;
position = "{292, 549}";
}
);
layerId = UUID0;
paths = (
{
closed = 1;
nodes = (
"573 76 LINE",
"540 76 OFFCURVE",
"503 97 OFFCURVE",
"499 132 CURVE",
"506 155 OFFCURVE",
"509 180 OFFCURVE",
"509 208 CURVE SMOOTH",
"509 280 OFFCURVE",
"489 338 OFFCURVE",
"450 383 CURVE SMOOTH",
"411 428 OFFCURVE",
"359 451 OFFCURVE",
"292 451 CURVE SMOOTH",
"225 451 OFFCURVE",
"170 428 OFFCURVE",
"129 382 CURVE SMOOTH",
"88 337 OFFCURVE",
"68 279 OFFCURVE",
"68 208 CURVE SMOOTH",
"68 73 OFFCURVE",
"149 -5 OFFCURVE",
"289 -5 CURVE SMOOTH",
"364 -5 OFFCURVE",
"417 16 OFFCURVE",
"454 55 CURVE",
"458 55 LINE",
"477 18 OFFCURVE",
"518 0 OFFCURVE",
"573 0 CURVE"
);
},
{
closed = 1;
nodes = (
"185 67 OFFCURVE",
"142 118 OFFCURVE",
"142 209 CURVE SMOOTH",
"142 312 OFFCURVE",
"198 378 OFFCURVE",
"289 378 CURVE SMOOTH",
"380 378 OFFCURVE",
"436 312 OFFCURVE",
"436 209 CURVE SMOOTH",
"436 118 OFFCURVE",
"390 67 OFFCURVE",
"289 67 CURVE SMOOTH"
);
}
);
width = 573;
}
);
},
{
glyphname = uni0719;
lastChange = "2018-09-11 18:35:11 +0000";
layers = (
{
anchors = (
{
name = Anchor6;
position = "{152, -138}";
},
{
name = Anchor8;
position = "{88, 537}";
}
);
layerId = UUID0;
paths = (
{
closed = 1;
nodes = (
"209 -37 LINE",
"196 106 OFFCURVE",
"160 318 OFFCURVE",
"141 426 CURVE",
"68 417 LINE",
"87 318 OFFCURVE",
"121 107 OFFCURVE",
"137 -37 CURVE"
);
}
);
width = 275;
}
);
unicode = 0719;
},
{
glyphname = uni0719.SYRJ;
lastChange = "2018-09-11 18:35:11 +0000";
layers = (
{
anchors = (
{
name = Anchor120;
position = "{109, -195}";
},
{
name = Anchor122;
position = "{134, 537}";
}
);
layerId = UUID0;
paths = (
{
closed = 1;
nodes = (
"98 416 LINE",
"98 141 LINE SMOOTH",
"98 40 OFFCURVE",
"83 -29 OFFCURVE",
"63 -64 CURVE",
"123 -94 LINE",
"158 -50 OFFCURVE",
"171 31 OFFCURVE",
"171 142 CURVE SMOOTH",
"171 416 LINE"
);
}
);
width = 264;
}
);
},
{
glyphname = uni0719.SYRN;
lastChange = "2018-09-11 18:35:11 +0000";
layers = (
{
anchors = (
{
name = Anchor64;
position = "{159, -173}";
},
{
name = Anchor66;
position = "{152, 485}";
}
);
layerId = UUID0;
paths = (
{
closed = 1;
nodes = (
"209 -78 LINE",
"215 2 LINE SMOOTH",
"220 74 OFFCURVE",
"225 154 OFFCURVE",
"225 238 CURVE SMOOTH",
"225 337 OFFCURVE",
"205 375 OFFCURVE",
"157 375 CURVE SMOOTH",
"110 375 OFFCURVE",
"83 331 OFFCURVE",
"83 230 CURVE SMOOTH",
"83 135 OFFCURVE",
"104 67 OFFCURVE",
"159 26 CURVE",
"154 -63 LINE"
);
}
);
width = 293;
}
);
},
{
glyphname = uni0719.Fina;
lastChange = "2018-09-11 18:35:11 +0000";
layers = (
{
anchors = (
{
name = Anchor6;
position = "{151, -137}";
},
{
name = Anchor8;
position = "{88, 537}";
}
);
layerId = UUID0;
paths = (
{
closed = 1;
nodes = (
"277 0 LINE",
"277 76 LINE",
"255 76 LINE SMOOTH",
"237 76 OFFCURVE",
"196 77 OFFCURVE",
"191 111 CURVE SMOOTH",
"175 228 OFFCURVE",
"154 352 OFFCURVE",
"141 426 CURVE",
"68 417 LINE",
"87 318 OFFCURVE",
"122 102 OFFCURVE",
"138 -42 CURVE",
"208 -42 LINE",
"206 -23 OFFCURVE",
"204 -3 OFFCURVE",
"201 18 CURVE",
"206 18 LINE",
"218 6 OFFCURVE",
"239 0 OFFCURVE",
"263 0 CURVE SMOOTH"
);
}
);
width = 277;
}
);
},
{
glyphname = uni0719.Fina.SYRJ;
lastChange = "2018-09-11 18:35:11 +0000";
layers = (
{
anchors = (
{
name = Anchor120;
position = "{107, -194}";
},
{
name = Anchor122;
position = "{134, 537}";
}
);
layerId = UUID0;
paths = (
{
closed = 1;
nodes = (
"98 416 LINE",
"98 141 LINE SMOOTH",
"98 40 OFFCURVE",
"83 -29 OFFCURVE",
"63 -64 CURVE",
"123 -94 LINE",
"145 -66 OFFCURVE",
"158 -23 OFFCURVE",
"165 33 CURVE",
"168 33 LINE",
"187 11 OFFCURVE",
"215 0 OFFCURVE",
"269 0 CURVE",
"269 76 LINE",
"237 76 OFFCURVE",
"172 76 OFFCURVE",
"170 111 CURVE",
"170 122 OFFCURVE",
"171 131 OFFCURVE",
"171 142 CURVE SMOOTH",
"171 416 LINE"
);
}
);
width = 269;
}
);
},
{
glyphname = uni0719.Fina.SYRN;
lastChange = "2018-09-11 18:35:11 +0000";
layers = (
{
anchors = (
{
name = Anchor64;
position = "{167, -173}";
},
{
name = Anchor66;
position = "{153, 485}";
}
);
layerId = UUID0;
paths = (
{
closed = 1;
nodes = (
"317 0 LINE",
"317 76 LINE",
"295 76 LINE SMOOTH",
"270 76 OFFCURVE",
"244 79 OFFCURVE",
"221 84 CURVE",
"224 131 OFFCURVE",
"225 178 OFFCURVE",
"225 238 CURVE SMOOTH",
"225 337 OFFCURVE",
"205 375 OFFCURVE",
"157 375 CURVE SMOOTH",
"110 375 OFFCURVE",
"83 331 OFFCURVE",
"83 230 CURVE SMOOTH",
"83 135 OFFCURVE",
"104 67 OFFCURVE",
"159 26 CURVE",
"154 -63 LINE",
"209 -78 LINE",
"216 10 LINE",
"245 2 OFFCURVE",
"279 0 OFFCURVE",
"295 0 CURVE SMOOTH"
);
}
);
width = 317;
}
);
},
{
glyphname = uni071A;
lastChange = "2018-09-11 18:35:11 +0000";
layers = (
{
anchors = (
{
name = Anchor6;
position = "{481, -98}";
},
{
name = Anchor8;
position = "{432, 458}";
}
);
layerId = UUID0;
paths = (
{
closed = 1;
nodes = (
"572 0 OFFCURVE",
"632 39 OFFCURVE",
"632 133 CURVE SMOOTH",
"632 187 OFFCURVE",
"620 265 OFFCURVE",
"605 311 CURVE SMOOTH",
"594 346 OFFCURVE",
"581 348 OFFCURVE",
"568 348 CURVE SMOOTH",
"549 348 OFFCURVE",
"530 338 OFFCURVE",
"530 310 CURVE SMOOTH",
"530 268 OFFCURVE",
"548 173 OFFCURVE",
"569 109 CURVE",
"565 86 OFFCURVE",
"528 76 OFFCURVE",
"490 76 CURVE SMOOTH",
"445 76 OFFCURVE",
"402 85 OFFCURVE",
"389 123 CURVE",
"389 162 OFFCURVE",
"378 260 OFFCURVE",
"363 311 CURVE SMOOTH",
"354 343 OFFCURVE",
"341 346 OFFCURVE",
"329 346 CURVE SMOOTH",
"306 346 OFFCURVE",
"288 336 OFFCURVE",
"288 304 CURVE SMOOTH",
"288 264 OFFCURVE",
"301 164 OFFCURVE",
"325 106 CURVE",
"303 80 OFFCURVE",
"244 76 OFFCURVE",
"222 76 CURVE SMOOTH",
"173 76 OFFCURVE",
"125 88 OFFCURVE",
"94 132 CURVE",
"49 89 LINE",
"68 41 OFFCURVE",
"137 0 OFFCURVE",
"219 0 CURVE SMOOTH",
"296 0 OFFCURVE",
"339 24 OFFCURVE",
"359 44 CURVE",
"389 11 OFFCURVE",
"430 0 OFFCURVE",
"488 0 CURVE SMOOTH"
);
}
);
width = 701;
}
);
unicode = 071A;
},
{
glyphname = uni071A.SYRJ;
lastChange = "2018-09-11 18:35:11 +0000";
layers = (
{
anchors = (
{
name = Anchor120;
position = "{402, -98}";
},
{
name = Anchor122;
position = "{531, 366}";
}
);
layerId = UUID0;
paths = (
{
closed = 1;
nodes = (
"683 177 OFFCURVE",
"671 210 OFFCURVE",
"640 210 CURVE SMOOTH",
"621 210 OFFCURVE",
"608 200 OFFCURVE",
"594 174 CURVE SMOOTH",
"554 102 OFFCURVE",
"542 82 OFFCURVE",
"529 82 CURVE SMOOTH",
"525 82 LINE SMOOTH",
"513 82 OFFCURVE",
"506 92 OFFCURVE",
"470 149 CURVE SMOOTH",
"441 195 OFFCURVE",
"430 203 OFFCURVE",
"408 203 CURVE SMOOTH",
"387 203 OFFCURVE",
"379 195 OFFCURVE",
"367 177 CURVE SMOOTH",
"340 136 LINE SMOOTH",
"310 91 OFFCURVE",
"285 69 OFFCURVE",
"236 69 CURVE SMOOTH",
"154 69 OFFCURVE",
"127 122 OFFCURVE",
"125 203 CURVE",
"61 199 LINE",
"59 193 OFFCURVE",
"59 177 OFFCURVE",
"59 173 CURVE SMOOTH",
"59 58 OFFCURVE",
"126 -7 OFFCURVE",
"236 -7 CURVE SMOOTH",
"304 -7 OFFCURVE",
"360 20 OFFCURVE",
"404 70 CURVE",
"447 16 OFFCURVE",
"476 0 OFFCURVE",
"533 0 CURVE SMOOTH",
"576 0 OFFCURVE",
"626 22 OFFCURVE",
"653 60 CURVE SMOOTH",
"672 87 OFFCURVE",
"683 112 OFFCURVE",
"683 143 CURVE SMOOTH"
);
}
);
width = 772;
}
);
},
{
glyphname = uni071A.SYRN;
lastChange = "2018-09-11 18:35:11 +0000";
layers = (
{
anchors = (
{
name = Anchor64;
position = "{580, -98}";
},
{
name = Anchor66;
position = "{572, 434}";
}
);
layerId = UUID0;
paths = (
{
closed = 1;
nodes = (
"785 78 LINE",
"699 221 LINE",
"655 220 LINE",
"595 75 LINE",
"588 75 OFFCURVE",
"579 82 OFFCURVE",
"565 105 CURVE SMOOTH",
"494 221 LINE",
"450 220 LINE",
"391 82 LINE",
"350 76 OFFCURVE",
"299 76 OFFCURVE",
"275 76 CURVE SMOOTH",
"262 76 LINE SMOOTH",
"174 76 OFFCURVE",
"129 89 OFFCURVE",
"94 138 CURVE",
"49 78 LINE",
"69 30 OFFCURVE",
"136 0 OFFCURVE",
"240 0 CURVE SMOOTH",
"276 0 LINE SMOOTH",
"305 0 OFFCURVE",
"374 1 OFFCURVE",
"431 14 CURVE",
"472 126 LINE",
"475 126 LINE",
"511 62 LINE SMOOTH",
"535 20 OFFCURVE",
"561 0 OFFCURVE",
"598 0 CURVE SMOOTH",
"606 0 OFFCURVE",
"619 1 OFFCURVE",
"629 8 CURVE",
"675 126 LINE",
"678 126 LINE",
"708 69 LINE SMOOTH",
"733 22 OFFCURVE",
"752 0 OFFCURVE",
"778 0 CURVE SMOOTH",
"785 0 LINE"
);
}
);
width = 834;
}
);
},
{
glyphname = uni071A.Fina;
lastChange = "2018-09-11 18:35:11 +0000";
layers = (
{
anchors = (
{
name = Anchor6;
position = "{480, -99}";
},
{
name = Anchor8;
position = "{434, 458}";
}
);
layerId = UUID0;
paths = (
{
closed = 1;
nodes = (
"296 0 OFFCURVE",
"339 24 OFFCURVE",
"359 44 CURVE",
"389 11 OFFCURVE",
"430 0 OFFCURVE",
"488 0 CURVE SMOOTH",
"538 0 OFFCURVE",
"588 19 OFFCURVE",
"610 44 CURVE",
"633 16 OFFCURVE",
"681 0 OFFCURVE",
"727 0 CURVE",
"727 76 LINE",
"697 76 OFFCURVE",
"649 90 OFFCURVE",
"637 120 CURVE",
"637 131 LINE SMOOTH",
"637 185 OFFCURVE",
"620 265 OFFCURVE",
"605 311 CURVE SMOOTH",
"594 346 OFFCURVE",
"581 348 OFFCURVE",
"568 348 CURVE SMOOTH",
"549 348 OFFCURVE",
"530 338 OFFCURVE",
"530 310 CURVE SMOOTH",
"530 267 OFFCURVE",
"546 169 OFFCURVE",
"569 109 CURVE",
"564 85 OFFCURVE",
"527 76 OFFCURVE",
"490 76 CURVE SMOOTH",
"445 76 OFFCURVE",
"402 85 OFFCURVE",
"389 123 CURVE",
"389 162 OFFCURVE",
"378 260 OFFCURVE",
"363 311 CURVE SMOOTH",
"354 343 OFFCURVE",
"341 346 OFFCURVE",
"329 346 CURVE SMOOTH",
"306 346 OFFCURVE",
"288 336 OFFCURVE",
"288 304 CURVE SMOOTH",
"288 264 OFFCURVE",
"301 164 OFFCURVE",
"325 106 CURVE",
"303 80 OFFCURVE",
"244 76 OFFCURVE",
"222 76 CURVE SMOOTH",
"173 76 OFFCURVE",
"125 88 OFFCURVE",
"94 132 CURVE",
"49 89 LINE",
"68 41 OFFCURVE",
"137 0 OFFCURVE",
"219 0 CURVE SMOOTH"
);
}
);
width = 727;
}
);
},
{
glyphname = uni071A.Fina.SYRJ;
lastChange = "2018-09-11 18:35:11 +0000";
layers = (
{
anchors = (
{
name = Anchor120;
position = "{402, -98}";
},
{
name = Anchor122;
position = "{531, 366}";
}
);
layerId = UUID0;
paths = (
{
closed = 1;
nodes = (
"784 76 LINE",
"774 76 OFFCURVE",
"745 78 OFFCURVE",
"735 82 CURVE",
"726 89 OFFCURVE",
"701 129 OFFCURVE",
"690 149 CURVE SMOOTH",
"663 196 OFFCURVE",
"654 203 OFFCURVE",
"630 203 CURVE SMOOTH",
"609 203 OFFCURVE",
"597 191 OFFCURVE",
"586 172 CURVE SMOOTH",
"563 131 LINE SMOOTH",
"545 100 OFFCURVE",
"534 82 OFFCURVE",
"525 82 CURVE SMOOTH",
"519 82 LINE SMOOTH",
"508 82 OFFCURVE",
"501 92 OFFCURVE",
"468 147 CURVE SMOOTH",
"440 193 OFFCURVE",
"432 203 OFFCURVE",
"410 203 CURVE SMOOTH",
"389 203 OFFCURVE",
"380 195 OFFCURVE",
"368 177 CURVE SMOOTH",
"340 136 LINE SMOOTH",
"310 91 OFFCURVE",
"285 69 OFFCURVE",
"236 69 CURVE SMOOTH",
"154 69 OFFCURVE",
"127 122 OFFCURVE",
"125 203 CURVE",
"61 199 LINE",
"59 193 OFFCURVE",
"59 177 OFFCURVE",
"59 173 CURVE SMOOTH",
"59 58 OFFCURVE",
"121 -7 OFFCURVE",
"243 -7 CURVE SMOOTH",
"311 -7 OFFCURVE",
"364 20 OFFCURVE",
"408 70 CURVE",
"451 16 OFFCURVE",
"481 0 OFFCURVE",
"515 0 CURVE SMOOTH",
"547 0 OFFCURVE",
"571 9 OFFCURVE",
"598 38 CURVE SMOOTH",
"606 47 OFFCURVE",
"615 58 OFFCURVE",
"624 70 CURVE",
"664 17 OFFCURVE",
"694 0 OFFCURVE",
"779 0 CURVE SMOOTH",
"784 0 LINE"
);
}
);
width = 784;
}
);
},
{
glyphname = uni071A.Fina.SYRN;
lastChange = "2018-09-11 18:35:11 +0000";
layers = (
{
anchors = (
{
name = Anchor64;
position = "{580, -98}";
},
{
name = Anchor66;
position = "{571, 434}";
}
);
layerId = UUID0;
paths = (
{
closed = 1;
nodes = (
"653 220 LINE",
"595 75 LINE",
"588 75 OFFCURVE",
"579 82 OFFCURVE",
"565 105 CURVE SMOOTH",
"494 221 LINE",
"450 220 LINE",
"391 82 LINE",
"350 76 OFFCURVE",
"299 76 OFFCURVE",
"275 76 CURVE SMOOTH",
"262 76 LINE SMOOTH",
"174 76 OFFCURVE",
"129 89 OFFCURVE",
"94 138 CURVE",
"49 78 LINE",
"69 30 OFFCURVE",
"136 0 OFFCURVE",
"240 0 CURVE SMOOTH",
"276 0 LINE SMOOTH",
"305 0 OFFCURVE",
"374 1 OFFCURVE",
"431 14 CURVE",
"472 126 LINE",
"475 126 LINE",
"511 62 LINE SMOOTH",
"535 20 OFFCURVE",
"561 0 OFFCURVE",
"598 0 CURVE SMOOTH",
"606 0 OFFCURVE",
"619 1 OFFCURVE",
"629 8 CURVE",
"673 126 LINE",
"676 126 LINE",
"709 69 LINE SMOOTH",
"735 24 OFFCURVE",
"761 0 OFFCURVE",
"821 0 CURVE",
"821 76 LINE",
"787 76 OFFCURVE",
"776 91 OFFCURVE",
"761 115 CURVE SMOOTH",
"697 221 LINE"
);
}
);
width = 821;
}
);
},
{
glyphname = uni071A.Medi;
lastChange = "2018-09-11 18:35:11 +0000";
layers = (
{
anchors = (
{
name = Anchor6;
position = "{302, -98}";
},
{
name = Anchor8;
position = "{242, 458}";
}
);
layerId = UUID0;
paths = (
{
closed = 1;
nodes = (
"541 76 LINE",
"511 76 OFFCURVE",
"463 90 OFFCURVE",
"451 120 CURVE",
"451 131 LINE SMOOTH",
"451 185 OFFCURVE",
"434 265 OFFCURVE",
"419 311 CURVE SMOOTH",
"408 346 OFFCURVE",
"395 348 OFFCURVE",
"382 348 CURVE SMOOTH",
"363 348 OFFCURVE",
"344 338 OFFCURVE",
"344 310 CURVE SMOOTH",
"344 267 OFFCURVE",
"360 169 OFFCURVE",
"383 109 CURVE",
"378 85 OFFCURVE",
"341 76 OFFCURVE",
"304 76 CURVE SMOOTH",
"259 76 OFFCURVE",
"216 85 OFFCURVE",
"203 123 CURVE",
"203 162 OFFCURVE",
"192 260 OFFCURVE",
"177 311 CURVE SMOOTH",
"168 343 OFFCURVE",
"155 346 OFFCURVE",
"143 346 CURVE SMOOTH",
"120 346 OFFCURVE",
"102 336 OFFCURVE",
"102 304 CURVE SMOOTH",
"102 264 OFFCURVE",
"115 164 OFFCURVE",
"139 106 CURVE",
"117 80 OFFCURVE",
"67 76 OFFCURVE",
"20 76 CURVE SMOOTH",
"0 76 LINE SMOOTH",
"-21 76 OFFCURVE",
"-39 61 OFFCURVE",
"-39 38 CURVE SMOOTH",
"-39 14 OFFCURVE",
"-21 0 OFFCURVE",
"0 0 CURVE SMOOTH",
"19 0 LINE SMOOTH",
"109 0 OFFCURVE",
"153 24 OFFCURVE",
"173 44 CURVE",
"201 12 OFFCURVE",
"244 0 OFFCURVE",
"302 0 CURVE SMOOTH",
"352 0 OFFCURVE",
"402 19 OFFCURVE",
"424 44 CURVE",
"447 16 OFFCURVE",
"495 0 OFFCURVE",
"541 0 CURVE"
);
}
);
width = 541;
}
);
},
{
glyphname = uni071A.Medi.SYRJ;
lastChange = "2018-09-11 18:35:11 +0000";
layers = (
{
anchors = (
{
name = Anchor120;
position = "{279, -98}";
},
{
name = Anchor122;
position = "{288, 366}";
}
);
layerId = UUID0;
paths = (
{
closed = 1;
nodes = (
"551 76 LINE",
"541 76 OFFCURVE",
"512 78 OFFCURVE",
"502 82 CURVE",
"493 89 OFFCURVE",
"468 129 OFFCURVE",
"457 149 CURVE SMOOTH",
"430 196 OFFCURVE",
"421 203 OFFCURVE",
"397 203 CURVE SMOOTH",
"376 203 OFFCURVE",
"364 191 OFFCURVE",
"353 172 CURVE SMOOTH",
"330 131 LINE SMOOTH",
"312 100 OFFCURVE",
"301 82 OFFCURVE",
"292 82 CURVE SMOOTH",
"286 82 LINE SMOOTH",
"275 82 OFFCURVE",
"268 92 OFFCURVE",
"235 147 CURVE SMOOTH",
"207 193 OFFCURVE",
"199 203 OFFCURVE",
"177 203 CURVE SMOOTH",
"156 203 OFFCURVE",
"148 195 OFFCURVE",
"135 177 CURVE SMOOTH",
"106 137 LINE SMOOTH",
"77 98 OFFCURVE",
"52 76 OFFCURVE",
"0 76 CURVE SMOOTH",
"-21 76 OFFCURVE",
"-39 61 OFFCURVE",
"-39 38 CURVE SMOOTH",
"-39 14 OFFCURVE",
"-21 0 OFFCURVE",
"0 0 CURVE SMOOTH",
"56 0 OFFCURVE",
"106 14 OFFCURVE",
"147 44 CURVE SMOOTH",
"157 52 OFFCURVE",
"166 60 OFFCURVE",
"175 70 CURVE",
"217 10 OFFCURVE",
"248 0 OFFCURVE",
"282 0 CURVE SMOOTH",
"315 0 OFFCURVE",
"339 10 OFFCURVE",
"367 41 CURVE SMOOTH",
"375 49 OFFCURVE",
"383 59 OFFCURVE",
"391 70 CURVE",
"431 17 OFFCURVE",
"461 0 OFFCURVE",
"546 0 CURVE SMOOTH",
"551 0 LINE"
);
}
);
width = 551;
}
);
},
{
glyphname = uni071A.Medi.SYRN;
lastChange = "2018-09-11 18:35:11 +0000";
layers = (
{
anchors = (
{
name = Anchor64;
position = "{262, -98}";
},
{
name = Anchor66;
position = "{264, 433}";
}
);
layerId = UUID0;
paths = (
{
closed = 1;
nodes = (
"29 0 OFFCURVE",
"70 0 OFFCURVE",
"107 14 CURVE",
"148 126 LINE",
"151 126 LINE",
"187 62 LINE SMOOTH",
"211 20 OFFCURVE",
"237 0 OFFCURVE",
"274 0 CURVE SMOOTH",
"282 0 OFFCURVE",
"295 1 OFFCURVE",
"305 8 CURVE",
"349 126 LINE",
"352 126 LINE",
"385 69 LINE SMOOTH",
"411 24 OFFCURVE",
"437 0 OFFCURVE",
"497 0 CURVE",
"497 76 LINE",
"463 76 OFFCURVE",
"452 91 OFFCURVE",
"437 115 CURVE SMOOTH",
"373 221 LINE",
"329 220 LINE",
"271 75 LINE",
"264 75 OFFCURVE",
"255 82 OFFCURVE",
"241 105 CURVE SMOOTH",
"170 221 LINE",
"126 220 LINE",
"69 82 LINE",
"58 76 OFFCURVE",
"24 76 OFFCURVE",
"0 76 CURVE SMOOTH",
"-21 76 OFFCURVE",
"-39 61 OFFCURVE",
"-39 38 CURVE SMOOTH",
"-39 14 OFFCURVE",
"-21 0 OFFCURVE",
"0 0 CURVE SMOOTH"
);
}
);
width = 497;
}
);
},
{
glyphname = uni071A.Init;
lastChange = "2018-09-11 18:35:11 +0000";
layers = (
{
anchors = (
{
name = Anchor6;
position = "{303, -98}";
},
{
name = Anchor8;
position = "{242, 459}";
}
);
layerId = UUID0;
paths = (
{
closed = 1;
nodes = (
"19 0 LINE SMOOTH",
"109 0 OFFCURVE",
"153 24 OFFCURVE",
"173 44 CURVE",
"201 12 OFFCURVE",
"244 0 OFFCURVE",
"302 0 CURVE SMOOTH",
"386 0 OFFCURVE",
"446 39 OFFCURVE",
"446 133 CURVE SMOOTH",
"446 187 OFFCURVE",
"434 265 OFFCURVE",
"419 311 CURVE SMOOTH",
"408 346 OFFCURVE",
"395 348 OFFCURVE",
"382 348 CURVE SMOOTH",
"363 348 OFFCURVE",
"344 338 OFFCURVE",
"344 310 CURVE SMOOTH",
"344 268 OFFCURVE",
"362 173 OFFCURVE",
"383 109 CURVE",
"379 86 OFFCURVE",
"342 76 OFFCURVE",
"304 76 CURVE SMOOTH",
"259 76 OFFCURVE",
"217 84 OFFCURVE",
"203 123 CURVE",
"203 162 OFFCURVE",
"192 260 OFFCURVE",
"177 311 CURVE SMOOTH",
"168 343 OFFCURVE",
"155 346 OFFCURVE",
"143 346 CURVE SMOOTH",
"120 346 OFFCURVE",
"102 336 OFFCURVE",
"102 304 CURVE SMOOTH",
"102 264 OFFCURVE",
"115 164 OFFCURVE",
"139 106 CURVE",
"117 80 OFFCURVE",
"67 76 OFFCURVE",
"20 76 CURVE SMOOTH",
"0 76 LINE SMOOTH",
"-21 76 OFFCURVE",
"-39 61 OFFCURVE",
"-39 38 CURVE SMOOTH",
"-39 14 OFFCURVE",
"-21 0 OFFCURVE",
"0 0 CURVE SMOOTH"
);
}
);
width = 514;
}
);
},
{
glyphname = uni071A.Init.SYRJ;
lastChange = "2018-09-11 18:35:11 +0000";
layers = (
{
anchors = (
{
name = Anchor120;
position = "{279, -98}";
},
{
name = Anchor122;
position = "{298, 366}";
}
);
layerId = UUID0;
paths = (
{
closed = 1;
nodes = (
"454 177 OFFCURVE",
"442 210 OFFCURVE",
"411 210 CURVE SMOOTH",
"392 210 OFFCURVE",
"379 200 OFFCURVE",
"365 174 CURVE SMOOTH",
"325 102 OFFCURVE",
"313 82 OFFCURVE",
"300 82 CURVE SMOOTH",
"296 82 LINE SMOOTH",
"284 82 OFFCURVE",
"277 92 OFFCURVE",
"241 149 CURVE SMOOTH",
"212 195 OFFCURVE",
"201 203 OFFCURVE",
"179 203 CURVE SMOOTH",
"158 203 OFFCURVE",
"148 195 OFFCURVE",
"135 177 CURVE SMOOTH",
"108 140 LINE SMOOTH",
"78 99 OFFCURVE",
"53 76 OFFCURVE",
"0 76 CURVE SMOOTH",
"-21 76 OFFCURVE",
"-39 61 OFFCURVE",
"-39 38 CURVE SMOOTH",
"-39 14 OFFCURVE",
"-21 0 OFFCURVE",
"0 0 CURVE SMOOTH",
"56 0 OFFCURVE",
"106 13 OFFCURVE",
"147 44 CURVE SMOOTH",
"157 52 OFFCURVE",
"166 60 OFFCURVE",
"175 70 CURVE",
"218 16 OFFCURVE",
"247 0 OFFCURVE",
"304 0 CURVE SMOOTH",
"347 0 OFFCURVE",
"397 22 OFFCURVE",
"424 60 CURVE SMOOTH",
"443 87 OFFCURVE",
"454 112 OFFCURVE",
"454 143 CURVE SMOOTH"
);
}
);
width = 530;
}
);
},
{
glyphname = uni071A.Init.SYRN;
lastChange = "2018-09-11 18:35:11 +0000";
layers = (
{
anchors = (
{
name = Anchor64;
position = "{263, -98}";
},
{
name = Anchor66;
position = "{264, 432}";
}
);
layerId = UUID0;
paths = (
{
closed = 1;
nodes = (
"351 126 LINE",
"354 126 LINE",
"384 69 LINE SMOOTH",
"409 22 OFFCURVE",
"428 0 OFFCURVE",
"454 0 CURVE SMOOTH",
"461 0 LINE",
"461 76 LINE",
"375 221 LINE",
"331 220 LINE",
"271 75 LINE",
"264 75 OFFCURVE",
"255 82 OFFCURVE",
"241 105 CURVE SMOOTH",
"170 221 LINE",
"126 220 LINE",
"69 82 LINE",
"58 76 OFFCURVE",
"24 76 OFFCURVE",
"0 76 CURVE SMOOTH",
"-21 76 OFFCURVE",
"-39 61 OFFCURVE",
"-39 38 CURVE SMOOTH",
"-39 14 OFFCURVE",
"-21 0 OFFCURVE",
"0 0 CURVE SMOOTH",
"29 0 OFFCURVE",
"70 0 OFFCURVE",
"107 14 CURVE",
"149 126 LINE",
"152 126 LINE",
"188 62 LINE SMOOTH",
"212 20 OFFCURVE",
"237 0 OFFCURVE",
"274 0 CURVE SMOOTH",
"282 0 OFFCURVE",
"295 1 OFFCURVE",
"305 8 CURVE"
);
}
);
width = 510;
}
);
},
{
glyphname = uni071B;
lastChange = "2018-09-11 18:35:11 +0000";
layers = (
{
anchors = (
{
name = Anchor6;
position = "{564, -418}";
},
{
name = Anchor8;
position = "{525, 753}";
}
);
layerId = UUID0;
paths = (
{
closed = 1;
nodes = (
"630 -238 LINE SMOOTH",
"645 -274 OFFCURVE",
"668 -320 OFFCURVE",
"689 -337 CURVE SMOOTH",
"702 -348 OFFCURVE",
"716 -353 OFFCURVE",
"731 -353 CURVE SMOOTH",
"753 -353 OFFCURVE",
"771 -351 OFFCURVE",
"798 -319 CURVE SMOOTH",
"870 -236 OFFCURVE",
"950 -76 OFFCURVE",
"950 52 CURVE SMOOTH",
"950 76 LINE",
"595 76 LINE",
"344 720 LINE",
"273 693 LINE",
"513 76 LINE",
"268 76 LINE SMOOTH",
"167 76 OFFCURVE",
"132 87 OFFCURVE",
"101 131 CURVE",
"49 85 LINE",
"73 33 OFFCURVE",
"120 0 OFFCURVE",
"230 0 CURVE SMOOTH",
"536 0 LINE"
);
},
{
closed = 1;
nodes = (
"739 -279 LINE",
"729 -275 OFFCURVE",
"711 -237 OFFCURVE",
"702 -214 CURVE SMOOTH",
"618 0 LINE",
"876 0 LINE",
"864 -77 OFFCURVE",
"781 -243 OFFCURVE",
"743 -279 CURVE"
);
}
);
width = 999;
}
);
unicode = 071B;
},
{
glyphname = uni071B.SYRJ;
lastChange = "2018-09-11 18:35:11 +0000";
layers = (
{
anchors = (
{
name = Anchor120;
position = "{286, -381}";
},
{
name = Anchor122;
position = "{298, 690}";
}
);
layerId = UUID0;
paths = (
{
closed = 1;
nodes = (
"473 -7 OFFCURVE",
"394 41 OFFCURVE",
"282 89 CURVE",
"313 133 OFFCURVE",
"347 176 OFFCURVE",
"376 221 CURVE SMOOTH",
"448 334 OFFCURVE",
"464 437 OFFCURVE",
"464 490 CURVE SMOOTH",
"464 554 OFFCURVE",
"454 602 OFFCURVE",
"401 655 CURVE",
"397 655 LINE",
"349 594 LINE",
"380 559 OFFCURVE",
"391 527 OFFCURVE",
"391 484 CURVE SMOOTH",
"391 424 OFFCURVE",
"360 335 OFFCURVE",
"311 255 CURVE SMOOTH",
"278 201 OFFCURVE",
"248 160 OFFCURVE",
"218 119 CURVE",
"175 137 OFFCURVE",
"119 190 OFFCURVE",
"93 228 CURVE",
"88 228 LINE",
"49 172 LINE",
"83 119 OFFCURVE",
"123 83 OFFCURVE",
"174 56 CURVE",
"140 2 OFFCURVE",
"117 -58 OFFCURVE",
"117 -134 CURVE SMOOTH",
"117 -244 OFFCURVE",
"189 -316 OFFCURVE",
"290 -316 CURVE SMOOTH",
"393 -316 OFFCURVE",
"473 -248 OFFCURVE",
"473 -127 CURVE SMOOTH"
);
},
{
closed = 1;
nodes = (
"402 -200 OFFCURVE",
"356 -243 OFFCURVE",
"292 -243 CURVE SMOOTH",
"221 -243 OFFCURVE",
"187 -185 OFFCURVE",
"187 -124 CURVE SMOOTH",
"187 -69 OFFCURVE",
"209 -18 OFFCURVE",
"240 27 CURVE",
"333 -12 OFFCURVE",
"402 -44 OFFCURVE",
"402 -125 CURVE SMOOTH"
);
}
);
width = 526;
}
);
},
{
glyphname = uni071B.SYRN;
lastChange = "2018-09-11 18:35:11 +0000";
layers = (
{
anchors = (
{
name = Anchor64;
position = "{433, -98}";
},
{
name = Anchor66;
position = "{374, 773}";
}
);
layerId = UUID0;
paths = (
{
closed = 1;
nodes = (
"875 -285 LINE",
"1056 -3 LINE",
"1056 76 LINE",
"746 76 LINE",
"429 693 LINE",
"358 659 LINE",
"659 76 LINE",
"267 76 LINE SMOOTH",
"175 76 OFFCURVE",
"127 90 OFFCURVE",
"94 138 CURVE",
"49 78 LINE",
"69 30 OFFCURVE",
"136 0 OFFCURVE",
"240 0 CURVE SMOOTH",
"698 0 LINE",
"845 -285 LINE"
);
},
{
closed = 1;
nodes = (
"881 -188 LINE",
"785 0 LINE",
"1002 0 LINE"
);
}
);
width = 1125;
}
);
},
{
glyphname = uni071B.Fina;
lastChange = "2018-09-11 18:35:11 +0000";
layers = (
{
anchors = (
{
name = Anchor6;
position = "{564, -418}";
},
{
name = Anchor8;
position = "{525, 750}";
}
);
layerId = UUID0;
paths = (
{
closed = 1;
nodes = (
"630 -238 LINE SMOOTH",
"645 -274 OFFCURVE",
"668 -320 OFFCURVE",
"689 -337 CURVE SMOOTH",
"702 -348 OFFCURVE",
"716 -353 OFFCURVE",
"731 -353 CURVE SMOOTH",
"753 -353 OFFCURVE",
"771 -351 OFFCURVE",
"798 -319 CURVE SMOOTH",
"870 -236 OFFCURVE",
"950 -76 OFFCURVE",
"950 52 CURVE SMOOTH",
"950 76 LINE",
"595 76 LINE",
"344 720 LINE",
"273 693 LINE",
"513 76 LINE",
"268 76 LINE SMOOTH",
"167 76 OFFCURVE",
"132 87 OFFCURVE",
"101 131 CURVE",
"49 85 LINE",
"73 33 OFFCURVE",
"120 0 OFFCURVE",
"230 0 CURVE SMOOTH",
"536 0 LINE"
);
},
{
closed = 1;
nodes = (
"739 -279 LINE",
"729 -275 OFFCURVE",
"711 -237 OFFCURVE",
"702 -214 CURVE SMOOTH",
"618 0 LINE",
"876 0 LINE",
"864 -77 OFFCURVE",
"781 -243 OFFCURVE",
"743 -279 CURVE"
);
}
);
width = 922;
}
);
},
{
glyphname = uni071B.Fina.SYRJ;
lastChange = "2018-09-11 18:35:11 +0000";
layers = (
{
anchors = (
{
name = Anchor120;
position = "{326, -381}";
},
{
name = Anchor122;
position = "{281, 665}";
}
);
layerId = UUID0;
paths = (
{
closed = 1;
nodes = (
"511 8 OFFCURVE",
"408 53 OFFCURVE",
"287 104 CURVE",
"293 126 OFFCURVE",
"299 152 OFFCURVE",
"304 180 CURVE SMOOTH",
"315 244 OFFCURVE",
"320 319 OFFCURVE",
"320 385 CURVE SMOOTH",
"320 400 OFFCURVE",
"319 416 OFFCURVE",
"317 440 CURVE",
"322 440 LINE",
"343 400 OFFCURVE",
"442 250 OFFCURVE",
"492 179 CURVE SMOOTH",
"579 55 OFFCURVE",
"618 0 OFFCURVE",
"732 0 CURVE",
"732 76 LINE",
"661 76 OFFCURVE",
"641 100 OFFCURVE",
"549 226 CURVE SMOOTH",
"476 327 OFFCURVE",
"368 493 OFFCURVE",
"314 592 CURVE",
"246 564 LINE",
"251 514 OFFCURVE",
"251 476 OFFCURVE",
"251 417 CURVE SMOOTH",
"251 349 OFFCURVE",
"245 273 OFFCURVE",
"235 201 CURVE SMOOTH",
"231 173 OFFCURVE",
"225 150 OFFCURVE",
"220 131 CURVE",
"175 153 OFFCURVE",
"116 199 OFFCURVE",
"93 232 CURVE",
"88 232 LINE",
"49 176 LINE",
"84 121 OFFCURVE",
"142 84 OFFCURVE",
"200 57 CURVE",
"178 -8 OFFCURVE",
"157 -70 OFFCURVE",
"157 -139 CURVE SMOOTH",
"157 -249 OFFCURVE",
"237 -316 OFFCURVE",
"333 -316 CURVE SMOOTH",
"435 -316 OFFCURVE",
"511 -248 OFFCURVE",
"511 -127 CURVE SMOOTH"
);
},
{
closed = 1;
nodes = (
"440 -200 OFFCURVE",
"399 -243 OFFCURVE",
"334 -243 CURVE SMOOTH",
"267 -243 OFFCURVE",
"228 -189 OFFCURVE",
"228 -128 CURVE SMOOTH",
"228 -78 OFFCURVE",
"244 -22 OFFCURVE",
"265 32 CURVE",
"365 -9 OFFCURVE",
"440 -41 OFFCURVE",
"440 -125 CURVE SMOOTH"
);
}
);
width = 732;
}
);
},
{
glyphname = uni071B.Fina.SYRN;
lastChange = "2018-09-11 18:35:11 +0000";
layers = (
{
anchors = (
{
name = Anchor64;
position = "{433, -98}";
},
{
name = Anchor66;
position = "{373, 773}";
}
);
layerId = UUID0;
paths = (
{
closed = 1;
nodes = (
"875 -285 LINE",
"1056 -3 LINE",
"1056 76 LINE",
"746 76 LINE",
"429 693 LINE",
"358 659 LINE",
"659 76 LINE",
"267 76 LINE SMOOTH",
"175 76 OFFCURVE",
"127 90 OFFCURVE",
"94 138 CURVE",
"49 78 LINE",
"69 30 OFFCURVE",
"136 0 OFFCURVE",
"240 0 CURVE SMOOTH",
"698 0 LINE",
"845 -285 LINE"
);
},
{
closed = 1;
nodes = (
"881 -188 LINE",
"785 0 LINE",
"1002 0 LINE"
);
}
);
width = 1002;
}
);
},
{
glyphname = uni071B.Medi;
lastChange = "2018-09-11 18:35:11 +0000";
layers = (
{
anchors = (
{
name = Anchor6;
position = "{263, -418}";
},
{
name = Anchor8;
position = "{224, 750}";
}
);
layerId = UUID0;
paths = (
{
closed = 1;
nodes = (
"329 -238 LINE SMOOTH",
"343 -274 OFFCURVE",
"367 -320 OFFCURVE",
"388 -337 CURVE SMOOTH",
"401 -348 OFFCURVE",
"415 -353 OFFCURVE",
"430 -353 CURVE SMOOTH",
"452 -353 OFFCURVE",
"470 -351 OFFCURVE",
"497 -319 CURVE SMOOTH",
"569 -236 OFFCURVE",
"649 -76 OFFCURVE",
"649 52 CURVE SMOOTH",
"649 76 LINE",
"294 76 LINE",
"43 720 LINE",
"-28 693 LINE",
"212 76 LINE",
"0 76 LINE SMOOTH",
"-21 76 OFFCURVE",
"-39 61 OFFCURVE",
"-39 38 CURVE SMOOTH",
"-39 14 OFFCURVE",
"-21 0 OFFCURVE",
"0 0 CURVE SMOOTH",
"235 0 LINE"
);
},
{
closed = 1;
nodes = (
"438 -279 LINE",
"428 -275 OFFCURVE",
"410 -237 OFFCURVE",
"401 -214 CURVE SMOOTH",
"317 0 LINE",
"575 0 LINE",
"563 -77 OFFCURVE",
"480 -243 OFFCURVE",
"442 -279 CURVE"
);
}
);
width = 621;
}
);
},
{
glyphname = uni071B.Medi.SYRJ;
lastChange = "2018-09-11 18:35:11 +0000";
layers = (
{
anchors = (
{
name = Anchor120;
position = "{196, -381}";
},
{
name = Anchor122;
position = "{153, 664}";
}
);
layerId = UUID0;
paths = (
{
closed = 1;
nodes = (
"385 11 OFFCURVE",
"279 76 OFFCURVE",
"153 76 CURVE SMOOTH",
"152 76 OFFCURVE",
"150 76 OFFCURVE",
"149 76 CURVE",
"156 103 OFFCURVE",
"165 139 OFFCURVE",
"172 178 CURVE SMOOTH",
"184 241 OFFCURVE",
"194 318 OFFCURVE",
"194 385 CURVE SMOOTH",
"194 400 OFFCURVE",
"193 416 OFFCURVE",
"191 440 CURVE",
"196 440 LINE",
"218 400 OFFCURVE",
"316 250 OFFCURVE",
"366 179 CURVE SMOOTH",
"454 54 OFFCURVE",
"492 0 OFFCURVE",
"606 0 CURVE",
"606 76 LINE",
"535 76 OFFCURVE",
"515 100 OFFCURVE",
"423 226 CURVE SMOOTH",
"350 326 OFFCURVE",
"242 493 OFFCURVE",
"188 592 CURVE",
"120 564 LINE",
"125 514 OFFCURVE",
"125 476 OFFCURVE",
"125 417 CURVE SMOOTH",
"125 342 OFFCURVE",
"117 255 OFFCURVE",
"102 181 CURVE SMOOTH",
"94 141 OFFCURVE",
"86 105 OFFCURVE",
"77 76 CURVE",
"0 76 LINE SMOOTH",
"-21 76 OFFCURVE",
"-39 61 OFFCURVE",
"-39 38 CURVE SMOOTH",
"-39 14 OFFCURVE",
"-21 0 OFFCURVE",
"0 0 CURVE SMOOTH",
"53 0 LINE",
"39 -42 OFFCURVE",
"29 -96 OFFCURVE",
"29 -134 CURVE SMOOTH",
"29 -244 OFFCURVE",
"102 -316 OFFCURVE",
"202 -316 CURVE SMOOTH",
"305 -316 OFFCURVE",
"385 -248 OFFCURVE",
"385 -127 CURVE SMOOTH"
);
},
{
closed = 1;
nodes = (
"314 -200 OFFCURVE",
"269 -243 OFFCURVE",
"204 -243 CURVE SMOOTH",
"133 -243 OFFCURVE",
"100 -185 OFFCURVE",
"100 -124 CURVE SMOOTH",
"100 -88 OFFCURVE",
"109 -43 OFFCURVE",
"126 0 CURVE",
"133 0 OFFCURVE",
"141 0 OFFCURVE",
"148 0 CURVE SMOOTH",
"240 0 OFFCURVE",
"314 -35 OFFCURVE",
"314 -125 CURVE SMOOTH"
);
}
);
width = 606;
}
);
},
{
glyphname = uni071B.Medi.SYRN;
lastChange = "2018-09-11 18:35:11 +0000";
layers = (
{
anchors = (
{
name = Anchor64;
position = "{175, -98}";
},
{
name = Anchor66;
position = "{-9, 771}";
}
);
layerId = UUID0;
paths = (
{
closed = 1;
nodes = (
"493 -285 LINE",
"674 -3 LINE",
"674 76 LINE",
"364 76 LINE",
"47 693 LINE",
"-23 659 LINE",
"277 76 LINE",
"0 76 LINE SMOOTH",
"-21 76 OFFCURVE",
"-39 61 OFFCURVE",
"-39 38 CURVE SMOOTH",
"-39 14 OFFCURVE",
"-21 0 OFFCURVE",
"0 0 CURVE SMOOTH",
"316 0 LINE",
"463 -285 LINE"
);
},
{
closed = 1;
nodes = (
"500 -188 LINE",
"403 0 LINE",
"620 0 LINE"
);
}
);
width = 620;
}
);
},
{
glyphname = uni071B.Init;
lastChange = "2018-09-11 18:35:11 +0000";
layers = (
{
anchors = (
{
name = Anchor6;
position = "{263, -419}";
},
{
name = Anchor8;
position = "{224, 750}";
}
);
layerId = UUID0;
paths = (
{
closed = 1;
nodes = (
"329 -238 LINE SMOOTH",
"343 -274 OFFCURVE",
"367 -320 OFFCURVE",
"388 -337 CURVE SMOOTH",
"401 -348 OFFCURVE",
"415 -353 OFFCURVE",
"430 -353 CURVE SMOOTH",
"452 -353 OFFCURVE",
"470 -351 OFFCURVE",
"497 -319 CURVE SMOOTH",
"569 -236 OFFCURVE",
"649 -76 OFFCURVE",
"649 52 CURVE SMOOTH",
"649 76 LINE",
"294 76 LINE",
"43 720 LINE",
"-28 693 LINE",
"212 76 LINE",
"0 76 LINE SMOOTH",
"-21 76 OFFCURVE",
"-39 61 OFFCURVE",
"-39 38 CURVE SMOOTH",
"-39 14 OFFCURVE",
"-21 0 OFFCURVE",
"0 0 CURVE SMOOTH",
"235 0 LINE"
);
},
{
closed = 1;
nodes = (
"438 -279 LINE",
"428 -275 OFFCURVE",
"410 -237 OFFCURVE",
"401 -214 CURVE SMOOTH",
"317 0 LINE",
"575 0 LINE",
"563 -77 OFFCURVE",
"480 -243 OFFCURVE",
"442 -279 CURVE"
);
}
);
width = 697;
}
);
},
{
glyphname = uni071B.Init.SYRJ;
lastChange = "2018-09-11 18:35:11 +0000";
layers = (
{
anchors = (
{
name = Anchor120;
position = "{196, -381}";
},
{
name = Anchor122;
position = "{210, 690}";
}
);
layerId = UUID0;
paths = (
{
closed = 1;
nodes = (
"385 2 OFFCURVE",
"295 66 OFFCURVE",
"176 74 CURVE SMOOTH",
"171 74 OFFCURVE",
"166 75 OFFCURVE",
"161 75 CURVE",
"183 118 OFFCURVE",
"221 170 OFFCURVE",
"251 210 CURVE SMOOTH",
"349 341 OFFCURVE",
"376 422 OFFCURVE",
"376 490 CURVE SMOOTH",
"376 554 OFFCURVE",
"366 602 OFFCURVE",
"313 655 CURVE",
"309 655 LINE",
"261 594 LINE",
"292 559 OFFCURVE",
"303 527 OFFCURVE",
"303 484 CURVE SMOOTH",
"303 442 OFFCURVE",
"277 374 OFFCURVE",
"223 298 CURVE SMOOTH",
"177 233 OFFCURVE",
"115 145 OFFCURVE",
"82 76 CURVE",
"0 76 LINE SMOOTH",
"-21 76 OFFCURVE",
"-39 61 OFFCURVE",
"-39 38 CURVE SMOOTH",
"-39 14 OFFCURVE",
"-21 0 OFFCURVE",
"0 0 CURVE SMOOTH",
"52 0 LINE",
"38 -39 OFFCURVE",
"26 -83 OFFCURVE",
"26 -134 CURVE SMOOTH",
"26 -244 OFFCURVE",
"102 -316 OFFCURVE",
"202 -316 CURVE SMOOTH",
"305 -316 OFFCURVE",
"385 -248 OFFCURVE",
"385 -127 CURVE SMOOTH"
);
},
{
closed = 1;
nodes = (
"314 -200 OFFCURVE",
"269 -243 OFFCURVE",
"204 -243 CURVE SMOOTH",
"128 -243 OFFCURVE",
"97 -185 OFFCURVE",
"97 -124 CURVE SMOOTH",
"97 -88 OFFCURVE",
"106 -41 OFFCURVE",
"125 0 CURVE",
"133 0 OFFCURVE",
"140 0 OFFCURVE",
"148 0 CURVE SMOOTH",
"240 0 OFFCURVE",
"314 -35 OFFCURVE",
"314 -125 CURVE SMOOTH"
);
}
);
width = 438;
}
);
},
{
glyphname = uni071B.Init.SYRN;
lastChange = "2018-09-11 18:35:11 +0000";
layers = (
{
anchors = (
{
name = Anchor64;
position = "{175, -98}";
},
{
name = Anchor66;
position = "{-9, 773}";
}
);
layerId = UUID0;
paths = (
{
closed = 1;
nodes = (
"493 -285 LINE",
"674 -3 LINE",
"674 76 LINE",
"364 76 LINE",
"47 693 LINE",
"-23 659 LINE",
"277 76 LINE",
"0 76 LINE SMOOTH",
"-21 76 OFFCURVE",
"-39 61 OFFCURVE",
"-39 38 CURVE SMOOTH",
"-39 14 OFFCURVE",
"-21 0 OFFCURVE",
"0 0 CURVE SMOOTH",
"316 0 LINE",
"463 -285 LINE"
);
},
{
closed = 1;
nodes = (
"500 -188 LINE",
"403 0 LINE",
"620 0 LINE"
);
}
);
width = 743;
}
);
},
{
glyphname = uni071C;
lastChange = "2018-09-11 18:35:11 +0000";
layers = (
{
anchors = (
{
name = Anchor6;
position = "{563, -418}";
},
{
name = Anchor8;
position = "{523, 750}";
}
);
layerId = UUID0;
paths = (
{
closed = 1;
nodes = (
"775 -149 OFFCURVE",
"795 -134 OFFCURVE",
"795 -102 CURVE SMOOTH",
"795 -69 OFFCURVE",
"775 -55 OFFCURVE",
"752 -55 CURVE SMOOTH",
"728 -55 OFFCURVE",
"709 -69 OFFCURVE",
"709 -102 CURVE SMOOTH",
"709 -134 OFFCURVE",
"728 -149 OFFCURVE",
"752 -149 CURVE SMOOTH"
);
},
{
closed = 1;
nodes = (
"630 -238 LINE SMOOTH",
"645 -274 OFFCURVE",
"668 -320 OFFCURVE",
"689 -337 CURVE SMOOTH",
"702 -348 OFFCURVE",
"716 -353 OFFCURVE",
"731 -353 CURVE SMOOTH",
"753 -353 OFFCURVE",
"771 -351 OFFCURVE",
"798 -319 CURVE SMOOTH",
"870 -236 OFFCURVE",
"950 -76 OFFCURVE",
"950 52 CURVE SMOOTH",
"950 76 LINE",
"595 76 LINE",
"344 720 LINE",
"273 693 LINE",
"513 76 LINE",
"268 76 LINE SMOOTH",
"167 76 OFFCURVE",
"132 87 OFFCURVE",
"101 131 CURVE",
"49 85 LINE",
"73 33 OFFCURVE",
"120 0 OFFCURVE",
"230 0 CURVE SMOOTH",
"536 0 LINE"
);
},
{
closed = 1;
nodes = (
"739 -279 LINE",
"729 -275 OFFCURVE",
"711 -237 OFFCURVE",
"702 -214 CURVE SMOOTH",
"674 -143 OFFCURVE",
"646 -71 OFFCURVE",
"618 0 CURVE",
"876 0 LINE",
"864 -77 OFFCURVE",
"781 -243 OFFCURVE",
"743 -279 CURVE"
);
}
);
width = 999;
}
);
unicode = 071C;
},
{
glyphname = uni071C.SYRJ;
lastChange = "2018-09-11 18:35:11 +0000";
layers = (
{
anchors = (
{
name = Anchor120;
position = "{288, -381}";
},
{
name = Anchor122;
position = "{299, 689}";
}
);
layerId = UUID0;
paths = (
{
closed = 1;
nodes = (
"473 -7 OFFCURVE",
"394 41 OFFCURVE",
"282 89 CURVE",
"313 133 OFFCURVE",
"347 176 OFFCURVE",
"376 221 CURVE SMOOTH",
"448 334 OFFCURVE",
"464 437 OFFCURVE",
"464 490 CURVE SMOOTH",
"464 554 OFFCURVE",
"454 602 OFFCURVE",
"401 655 CURVE",
"397 655 LINE",
"349 594 LINE",
"380 559 OFFCURVE",
"391 527 OFFCURVE",
"391 484 CURVE SMOOTH",
"391 424 OFFCURVE",
"362 338 OFFCURVE",
"313 258 CURVE SMOOTH",
"280 204 OFFCURVE",
"248 160 OFFCURVE",
"218 119 CURVE",
"175 137 OFFCURVE",
"119 190 OFFCURVE",
"93 228 CURVE",
"88 228 LINE",
"49 172 LINE",
"83 119 OFFCURVE",
"123 83 OFFCURVE",
"174 56 CURVE",
"140 2 OFFCURVE",
"117 -58 OFFCURVE",
"117 -134 CURVE SMOOTH",
"117 -244 OFFCURVE",
"189 -316 OFFCURVE",
"290 -316 CURVE SMOOTH",
"393 -316 OFFCURVE",
"473 -248 OFFCURVE",
"473 -127 CURVE SMOOTH"
);
},
{
closed = 1;
nodes = (
"402 -200 OFFCURVE",
"356 -243 OFFCURVE",
"292 -243 CURVE SMOOTH",
"221 -243 OFFCURVE",
"187 -185 OFFCURVE",
"187 -124 CURVE SMOOTH",
"187 -69 OFFCURVE",
"209 -18 OFFCURVE",
"240 27 CURVE",
"333 -12 OFFCURVE",
"402 -44 OFFCURVE",
"402 -125 CURVE SMOOTH"
);
},
{
closed = 1;
nodes = (
"254 -143 OFFCURVE",
"270 -157 OFFCURVE",
"292 -157 CURVE SMOOTH",
"312 -157 OFFCURVE",
"329 -143 OFFCURVE",
"329 -116 CURVE SMOOTH",
"329 -89 OFFCURVE",
"312 -75 OFFCURVE",
"292 -75 CURVE SMOOTH",
"270 -75 OFFCURVE",
"254 -89 OFFCURVE",
"254 -116 CURVE SMOOTH"
);
}
);
width = 526;
}
);
},
{
glyphname = uni071C.SYRN;
lastChange = "2018-09-11 18:35:11 +0000";
layers = (
{
anchors = (
{
name = Anchor64;
position = "{433, -98}";
},
{
name = Anchor66;
position = "{374, 773}";
}
);
layerId = UUID0;
paths = (
{
closed = 1;
nodes = (
"882 -300 LINE",
"1071 -3 LINE",
"1071 76 LINE",
"746 76 LINE",
"429 693 LINE",
"358 659 LINE",
"659 76 LINE",
"267 76 LINE SMOOTH",
"175 76 OFFCURVE",
"127 90 OFFCURVE",
"94 138 CURVE",
"49 78 LINE",
"69 30 OFFCURVE",
"136 0 OFFCURVE",
"240 0 CURVE SMOOTH",
"698 0 LINE",
"852 -300 LINE"
);
},
{
closed = 1;
nodes = (
"852 -207 OFFCURVE",
"828 -174 OFFCURVE",
"804 -129 CURVE SMOOTH",
"780 -84 OFFCURVE",
"768 -41 OFFCURVE",
"768 0 CURVE",
"1019 0 LINE",
"1002 -43 OFFCURVE",
"977 -88 OFFCURVE",
"946 -136 CURVE SMOOTH",
"915 -183 OFFCURVE",
"891 -214 OFFCURVE",
"875 -227 CURVE"
);
},
{
closed = 1;
nodes = (
"919 -120 LINE",
"919 -41 LINE",
"842 -41 LINE",
"842 -120 LINE"
);
}
);
width = 1139;
}
);
},
{
glyphname = uni071C.Fina;
lastChange = "2018-09-11 18:35:11 +0000";
layers = (
{
anchors = (
{
name = Anchor6;
position = "{564, -418}";
},
{
name = Anchor8;
position = "{525, 750}";
}
);
layerId = UUID0;
paths = (
{
closed = 1;
nodes = (
"630 -238 LINE SMOOTH",
"645 -274 OFFCURVE",
"668 -320 OFFCURVE",
"689 -337 CURVE SMOOTH",
"702 -348 OFFCURVE",
"716 -353 OFFCURVE",
"731 -353 CURVE SMOOTH",
"753 -353 OFFCURVE",
"771 -351 OFFCURVE",
"798 -319 CURVE SMOOTH",
"870 -236 OFFCURVE",
"950 -76 OFFCURVE",
"950 52 CURVE SMOOTH",
"950 76 LINE",
"595 76 LINE",
"344 720 LINE",
"273 693 LINE",
"513 76 LINE",
"268 76 LINE SMOOTH",
"167 76 OFFCURVE",
"132 87 OFFCURVE",
"101 131 CURVE",
"49 85 LINE",
"73 33 OFFCURVE",
"120 0 OFFCURVE",
"230 0 CURVE SMOOTH",
"536 0 LINE"
);
},
{
closed = 1;
nodes = (
"739 -279 LINE",
"729 -275 OFFCURVE",
"711 -237 OFFCURVE",
"702 -214 CURVE SMOOTH",
"674 -143 OFFCURVE",
"646 -71 OFFCURVE",
"618 0 CURVE",
"876 0 LINE",
"864 -77 OFFCURVE",
"781 -243 OFFCURVE",
"743 -279 CURVE"
);
},
{
closed = 1;
nodes = (
"775 -149 OFFCURVE",
"795 -134 OFFCURVE",
"795 -102 CURVE SMOOTH",
"795 -69 OFFCURVE",
"775 -55 OFFCURVE",
"752 -55 CURVE SMOOTH",
"728 -55 OFFCURVE",
"709 -69 OFFCURVE",
"709 -102 CURVE SMOOTH",
"709 -134 OFFCURVE",
"728 -149 OFFCURVE",
"752 -149 CURVE SMOOTH"
);
}
);
width = 922;
}
);
},
{
glyphname = uni071C.Fina.SYRJ;
lastChange = "2018-09-11 18:35:11 +0000";
layers = (
{
anchors = (
{
name = Anchor120;
position = "{327, -381}";
},
{
name = Anchor122;
position = "{280, 664}";
}
);
layerId = UUID0;
paths = (
{
closed = 1;
nodes = (
"511 8 OFFCURVE",
"408 53 OFFCURVE",
"287 104 CURVE",
"293 126 OFFCURVE",
"299 152 OFFCURVE",
"304 180 CURVE SMOOTH",
"315 244 OFFCURVE",
"320 319 OFFCURVE",
"320 385 CURVE SMOOTH",
"320 400 OFFCURVE",
"319 416 OFFCURVE",
"317 440 CURVE",
"322 440 LINE",
"343 400 OFFCURVE",
"442 250 OFFCURVE",
"492 179 CURVE SMOOTH",
"581 54 OFFCURVE",
"621 0 OFFCURVE",
"732 0 CURVE",
"732 76 LINE",
"661 76 OFFCURVE",
"640 100 OFFCURVE",
"549 226 CURVE SMOOTH",
"477 326 OFFCURVE",
"368 493 OFFCURVE",
"314 592 CURVE",
"246 564 LINE",
"251 514 OFFCURVE",
"251 476 OFFCURVE",
"251 417 CURVE SMOOTH",
"251 349 OFFCURVE",
"245 273 OFFCURVE",
"235 201 CURVE SMOOTH",
"231 173 OFFCURVE",
"225 150 OFFCURVE",
"220 131 CURVE",
"175 153 OFFCURVE",
"116 199 OFFCURVE",
"93 232 CURVE",
"88 232 LINE",
"49 176 LINE",
"84 121 OFFCURVE",
"142 84 OFFCURVE",
"200 57 CURVE",
"178 -8 OFFCURVE",
"157 -70 OFFCURVE",
"157 -139 CURVE SMOOTH",
"157 -249 OFFCURVE",
"237 -316 OFFCURVE",
"333 -316 CURVE SMOOTH",
"435 -316 OFFCURVE",
"511 -248 OFFCURVE",
"511 -127 CURVE SMOOTH"
);
},
{
closed = 1;
nodes = (
"440 -200 OFFCURVE",
"399 -243 OFFCURVE",
"334 -243 CURVE SMOOTH",
"267 -243 OFFCURVE",
"228 -189 OFFCURVE",
"228 -128 CURVE SMOOTH",
"228 -78 OFFCURVE",
"244 -22 OFFCURVE",
"265 32 CURVE",
"365 -9 OFFCURVE",
"440 -41 OFFCURVE",
"440 -125 CURVE SMOOTH"
);
},
{
closed = 1;
nodes = (
"293 -143 OFFCURVE",
"309 -157 OFFCURVE",
"331 -157 CURVE SMOOTH",
"351 -157 OFFCURVE",
"368 -143 OFFCURVE",
"368 -116 CURVE SMOOTH",
"368 -89 OFFCURVE",
"351 -75 OFFCURVE",
"331 -75 CURVE SMOOTH",
"309 -75 OFFCURVE",
"293 -89 OFFCURVE",
"293 -116 CURVE SMOOTH"
);
}
);
width = 732;
}
);
},
{
glyphname = uni071C.Fina.SYRN;
lastChange = "2018-09-11 18:35:11 +0000";
layers = (
{
anchors = (
{
name = Anchor64;
position = "{433, -98}";
},
{
name = Anchor66;
position = "{373, 773}";
}
);
layerId = UUID0;
paths = (
{
closed = 1;
nodes = (
"882 -300 LINE",
"1071 -3 LINE",
"1071 76 LINE",
"746 76 LINE",
"429 693 LINE",
"358 659 LINE",
"659 76 LINE",
"267 76 LINE SMOOTH",
"175 76 OFFCURVE",
"127 90 OFFCURVE",
"94 138 CURVE",
"49 78 LINE",
"69 30 OFFCURVE",
"136 0 OFFCURVE",
"240 0 CURVE SMOOTH",
"698 0 LINE",
"852 -300 LINE"
);
},
{
closed = 1;
nodes = (
"852 -207 OFFCURVE",
"828 -174 OFFCURVE",
"804 -129 CURVE SMOOTH",
"780 -84 OFFCURVE",
"768 -41 OFFCURVE",
"768 0 CURVE",
"1019 0 LINE",
"1002 -43 OFFCURVE",
"977 -88 OFFCURVE",
"946 -136 CURVE SMOOTH",
"915 -183 OFFCURVE",
"891 -214 OFFCURVE",
"875 -227 CURVE"
);
},
{
closed = 1;
nodes = (
"919 -120 LINE",
"919 -41 LINE",
"842 -41 LINE",
"842 -120 LINE"
);
}
);
width = 1017;
}
);
},
{
glyphname = uni071C.Medi;
lastChange = "2018-09-11 18:35:11 +0000";
layers = (
{
anchors = (
{
name = Anchor6;
position = "{263, -418}";
},
{
name = Anchor8;
position = "{224, 750}";
}
);
layerId = UUID0;
paths = (
{
closed = 1;
nodes = (
"329 -238 LINE SMOOTH",
"343 -274 OFFCURVE",
"367 -320 OFFCURVE",
"388 -337 CURVE SMOOTH",
"401 -348 OFFCURVE",
"415 -353 OFFCURVE",
"430 -353 CURVE SMOOTH",
"452 -353 OFFCURVE",
"470 -351 OFFCURVE",
"497 -319 CURVE SMOOTH",
"569 -236 OFFCURVE",
"649 -76 OFFCURVE",
"649 52 CURVE SMOOTH",
"649 76 LINE",
"294 76 LINE",
"43 720 LINE",
"-28 693 LINE",
"212 76 LINE",
"0 76 LINE SMOOTH",
"-21 76 OFFCURVE",
"-39 61 OFFCURVE",
"-39 38 CURVE SMOOTH",
"-39 14 OFFCURVE",
"-21 0 OFFCURVE",
"0 0 CURVE SMOOTH",
"235 0 LINE"
);
},
{
closed = 1;
nodes = (
"438 -279 LINE",
"428 -275 OFFCURVE",
"410 -237 OFFCURVE",
"401 -214 CURVE SMOOTH",
"373 -143 OFFCURVE",
"345 -71 OFFCURVE",
"317 0 CURVE",
"575 0 LINE",
"563 -77 OFFCURVE",
"480 -243 OFFCURVE",
"442 -279 CURVE"
);
},
{
closed = 1;
nodes = (
"474 -149 OFFCURVE",
"494 -134 OFFCURVE",
"494 -102 CURVE SMOOTH",
"494 -69 OFFCURVE",
"474 -55 OFFCURVE",
"451 -55 CURVE SMOOTH",
"427 -55 OFFCURVE",
"408 -69 OFFCURVE",
"408 -102 CURVE SMOOTH",
"408 -134 OFFCURVE",
"427 -149 OFFCURVE",
"451 -149 CURVE SMOOTH"
);
}
);
width = 621;
}
);
},
{
glyphname = uni071C.Medi.SYRJ;
lastChange = "2018-09-11 18:35:11 +0000";
layers = (
{
anchors = (
{
name = Anchor120;
position = "{196, -381}";
},
{
name = Anchor122;
position = "{155, 664}";
}
);
layerId = UUID0;
paths = (
{
closed = 1;
nodes = (
"385 11 OFFCURVE",
"278 76 OFFCURVE",
"152 76 CURVE SMOOTH",
"151 76 OFFCURVE",
"150 76 OFFCURVE",
"149 76 CURVE",
"156 103 OFFCURVE",
"165 139 OFFCURVE",
"172 178 CURVE SMOOTH",
"184 241 OFFCURVE",
"194 318 OFFCURVE",
"194 385 CURVE SMOOTH",
"194 400 OFFCURVE",
"193 416 OFFCURVE",
"191 440 CURVE",
"196 440 LINE",
"218 400 OFFCURVE",
"316 250 OFFCURVE",
"366 179 CURVE SMOOTH",
"454 54 OFFCURVE",
"492 0 OFFCURVE",
"606 0 CURVE",
"606 76 LINE",
"535 76 OFFCURVE",
"514 100 OFFCURVE",
"423 226 CURVE SMOOTH",
"350 327 OFFCURVE",
"242 493 OFFCURVE",
"188 592 CURVE",
"120 564 LINE",
"125 514 OFFCURVE",
"125 476 OFFCURVE",
"125 417 CURVE SMOOTH",
"125 342 OFFCURVE",
"115 255 OFFCURVE",
"102 181 CURVE SMOOTH",
"95 141 OFFCURVE",
"86 105 OFFCURVE",
"77 76 CURVE",
"0 76 LINE SMOOTH",
"-21 76 OFFCURVE",
"-39 61 OFFCURVE",
"-39 38 CURVE SMOOTH",
"-39 14 OFFCURVE",
"-21 0 OFFCURVE",
"0 0 CURVE SMOOTH",
"53 0 LINE",
"39 -42 OFFCURVE",
"29 -96 OFFCURVE",
"29 -134 CURVE SMOOTH",
"29 -244 OFFCURVE",
"102 -316 OFFCURVE",
"202 -316 CURVE SMOOTH",
"305 -316 OFFCURVE",
"385 -248 OFFCURVE",
"385 -127 CURVE SMOOTH"
);
},
{
closed = 1;
nodes = (
"314 -200 OFFCURVE",
"269 -243 OFFCURVE",
"204 -243 CURVE SMOOTH",
"133 -243 OFFCURVE",
"100 -185 OFFCURVE",
"100 -124 CURVE SMOOTH",
"100 -88 OFFCURVE",
"109 -43 OFFCURVE",
"126 0 CURVE",
"148 0 LINE SMOOTH",
"240 0 OFFCURVE",
"314 -35 OFFCURVE",
"314 -125 CURVE SMOOTH"
);
},
{
closed = 1;
nodes = (
"166 -143 OFFCURVE",
"182 -157 OFFCURVE",
"204 -157 CURVE SMOOTH",
"224 -157 OFFCURVE",
"241 -143 OFFCURVE",
"241 -116 CURVE SMOOTH",
"241 -89 OFFCURVE",
"224 -75 OFFCURVE",
"204 -75 CURVE SMOOTH",
"182 -75 OFFCURVE",
"166 -89 OFFCURVE",
"166 -116 CURVE SMOOTH"
);
}
);
width = 606;
}
);
},
{
glyphname = uni071C.Medi.SYRN;
lastChange = "2018-09-11 18:35:11 +0000";
layers = (
{
anchors = (
{
name = Anchor64;
position = "{175, -98}";
},
{
name = Anchor66;
position = "{-9, 771}";
}
);
layerId = UUID0;
paths = (
{
closed = 1;
nodes = (
"500 -300 LINE",
"689 -3 LINE",
"689 76 LINE",
"364 76 LINE",
"47 693 LINE",
"-23 659 LINE",
"277 76 LINE",
"0 76 LINE SMOOTH",
"-21 76 OFFCURVE",
"-39 61 OFFCURVE",
"-39 38 CURVE SMOOTH",
"-39 14 OFFCURVE",
"-21 0 OFFCURVE",
"0 0 CURVE SMOOTH",
"316 0 LINE",
"470 -300 LINE"
);
},
{
closed = 1;
nodes = (
"470 -207 OFFCURVE",
"446 -174 OFFCURVE",
"422 -129 CURVE SMOOTH",
"398 -84 OFFCURVE",
"386 -41 OFFCURVE",
"386 0 CURVE",
"637 0 LINE",
"620 -43 OFFCURVE",
"596 -89 OFFCURVE",
"565 -136 CURVE SMOOTH",
"534 -183 OFFCURVE",
"510 -214 OFFCURVE",
"493 -227 CURVE"
);
},
{
closed = 1;
nodes = (
"538 -120 LINE",
"538 -41 LINE",
"460 -41 LINE",
"460 -120 LINE"
);
}
);
width = 635;
}
);
},
{
glyphname = uni071C.Init;
lastChange = "2018-09-11 18:35:11 +0000";
layers = (
{
anchors = (
{
name = Anchor6;
position = "{263, -418}";
},
{
name = Anchor8;
position = "{224, 750}";
}
);
layerId = UUID0;
paths = (
{
closed = 1;
nodes = (
"329 -238 LINE SMOOTH",
"343 -274 OFFCURVE",
"367 -320 OFFCURVE",
"388 -337 CURVE SMOOTH",
"401 -348 OFFCURVE",
"415 -353 OFFCURVE",
"430 -353 CURVE SMOOTH",
"452 -353 OFFCURVE",
"470 -351 OFFCURVE",
"497 -319 CURVE SMOOTH",
"569 -236 OFFCURVE",
"649 -76 OFFCURVE",
"649 52 CURVE SMOOTH",
"649 76 LINE",
"294 76 LINE",
"43 720 LINE",
"-28 693 LINE",
"212 76 LINE",
"0 76 LINE SMOOTH",
"-21 76 OFFCURVE",
"-39 61 OFFCURVE",
"-39 38 CURVE SMOOTH",
"-39 14 OFFCURVE",
"-21 0 OFFCURVE",
"0 0 CURVE SMOOTH",
"235 0 LINE"
);
},
{
closed = 1;
nodes = (
"438 -279 LINE",
"428 -275 OFFCURVE",
"410 -237 OFFCURVE",
"401 -214 CURVE SMOOTH",
"373 -143 OFFCURVE",
"345 -71 OFFCURVE",
"317 0 CURVE",
"575 0 LINE",
"563 -77 OFFCURVE",
"480 -243 OFFCURVE",
"442 -279 CURVE"
);
},
{
closed = 1;
nodes = (
"474 -149 OFFCURVE",
"494 -134 OFFCURVE",
"494 -102 CURVE SMOOTH",
"494 -69 OFFCURVE",
"474 -55 OFFCURVE",
"451 -55 CURVE SMOOTH",
"427 -55 OFFCURVE",
"408 -69 OFFCURVE",
"408 -102 CURVE SMOOTH",
"408 -134 OFFCURVE",
"427 -149 OFFCURVE",
"451 -149 CURVE SMOOTH"
);
}
);
width = 697;
}
);
},
{
glyphname = uni071C.Init.SYRJ;
lastChange = "2018-09-11 18:35:11 +0000";
layers = (
{
anchors = (
{
name = Anchor120;
position = "{198, -381}";
},
{
name = Anchor122;
position = "{211, 688}";
}
);
layerId = UUID0;
paths = (
{
closed = 1;
nodes = (
"385 2 OFFCURVE",
"295 66 OFFCURVE",
"176 74 CURVE SMOOTH",
"171 74 OFFCURVE",
"166 75 OFFCURVE",
"161 75 CURVE",
"183 118 OFFCURVE",
"221 170 OFFCURVE",
"251 210 CURVE SMOOTH",
"349 341 OFFCURVE",
"376 422 OFFCURVE",
"376 490 CURVE SMOOTH",
"376 554 OFFCURVE",
"366 602 OFFCURVE",
"313 655 CURVE",
"309 655 LINE",
"261 594 LINE",
"292 559 OFFCURVE",
"303 527 OFFCURVE",
"303 484 CURVE SMOOTH",
"303 442 OFFCURVE",
"277 375 OFFCURVE",
"223 298 CURVE SMOOTH",
"177 233 OFFCURVE",
"115 145 OFFCURVE",
"82 76 CURVE",
"0 76 LINE SMOOTH",
"-21 76 OFFCURVE",
"-39 61 OFFCURVE",
"-39 38 CURVE SMOOTH",
"-39 14 OFFCURVE",
"-21 0 OFFCURVE",
"0 0 CURVE SMOOTH",
"52 0 LINE",
"38 -39 OFFCURVE",
"26 -83 OFFCURVE",
"26 -134 CURVE SMOOTH",
"26 -244 OFFCURVE",
"102 -316 OFFCURVE",
"202 -316 CURVE SMOOTH",
"305 -316 OFFCURVE",
"385 -248 OFFCURVE",
"385 -127 CURVE SMOOTH"
);
},
{
closed = 1;
nodes = (
"314 -200 OFFCURVE",
"269 -243 OFFCURVE",
"204 -243 CURVE SMOOTH",
"128 -243 OFFCURVE",
"97 -185 OFFCURVE",
"97 -124 CURVE SMOOTH",
"97 -88 OFFCURVE",
"106 -41 OFFCURVE",
"125 0 CURVE",
"148 0 LINE SMOOTH",
"240 0 OFFCURVE",
"314 -35 OFFCURVE",
"314 -125 CURVE SMOOTH"
);
},
{
closed = 1;
nodes = (
"165 -143 OFFCURVE",
"181 -157 OFFCURVE",
"203 -157 CURVE SMOOTH",
"223 -157 OFFCURVE",
"240 -143 OFFCURVE",
"240 -116 CURVE SMOOTH",
"240 -89 OFFCURVE",
"223 -75 OFFCURVE",
"203 -75 CURVE SMOOTH",
"181 -75 OFFCURVE",
"165 -89 OFFCURVE",
"165 -116 CURVE SMOOTH"
);
}
);
width = 438;
}
);
},
{
glyphname = uni071C.Init.SYRN;
lastChange = "2018-09-11 18:35:11 +0000";
layers = (
{
anchors = (
{
name = Anchor64;
position = "{175, -98}";
},
{
name = Anchor66;
position = "{-9, 773}";
}
);
layerId = UUID0;
paths = (
{
closed = 1;
nodes = (
"500 -300 LINE",
"689 -3 LINE",
"689 76 LINE",
"364 76 LINE",
"47 693 LINE",
"-23 659 LINE",
"277 76 LINE",
"0 76 LINE SMOOTH",
"-21 76 OFFCURVE",
"-39 61 OFFCURVE",
"-39 38 CURVE SMOOTH",
"-39 14 OFFCURVE",
"-21 0 OFFCURVE",
"0 0 CURVE SMOOTH",
"316 0 LINE",
"470 -300 LINE"
);
},
{
closed = 1;
nodes = (
"470 -207 OFFCURVE",
"446 -174 OFFCURVE",
"422 -129 CURVE SMOOTH",
"398 -84 OFFCURVE",
"386 -41 OFFCURVE",
"386 0 CURVE",
"637 0 LINE",
"620 -43 OFFCURVE",
"596 -89 OFFCURVE",
"565 -136 CURVE SMOOTH",
"534 -183 OFFCURVE",
"510 -214 OFFCURVE",
"493 -227 CURVE"
);
},
{
closed = 1;
nodes = (
"538 -120 LINE",
"538 -41 LINE",
"460 -41 LINE",
"460 -120 LINE"
);
}
);
width = 757;
}
);
},
{
glyphname = uni071D;
lastChange = "2018-09-11 18:35:11 +0000";
layers = (
{
anchors = (
{
name = Anchor6;
position = "{120, -226}";
},
{
name = Anchor8;
position = "{85, 345}";
}
);
layerId = UUID0;
paths = (
{
closed = 1;
nodes = (
"194 105 OFFCURVE",
"160 171 OFFCURVE",
"133 199 CURVE SMOOTH",
"121 211 OFFCURVE",
"110 216 OFFCURVE",
"99 216 CURVE SMOOTH",
"81 216 OFFCURVE",
"59 201 OFFCURVE",
"59 179 CURVE SMOOTH",
"59 164 OFFCURVE",
"67 150 OFFCURVE",
"79 134 CURVE SMOOTH",
"107 96 OFFCURVE",
"123 61 OFFCURVE",
"130 31 CURVE",
"127 5 OFFCURVE",
"111 -25 OFFCURVE",
"80 -64 CURVE SMOOTH",
"68 -79 OFFCURVE",
"62 -91 OFFCURVE",
"62 -104 CURVE SMOOTH",
"62 -125 OFFCURVE",
"80 -140 OFFCURVE",
"100 -140 CURVE SMOOTH",
"111 -140 OFFCURVE",
"122 -134 OFFCURVE",
"134 -122 CURVE SMOOTH",
"159 -96 OFFCURVE",
"194 -38 OFFCURVE",
"194 33 CURVE SMOOTH"
);
}
);
width = 243;
}
);
unicode = 071D;
},
{
glyphname = uni071D.SYRJ;
lastChange = "2018-09-11 18:35:11 +0000";
layers = (
{
anchors = (
{
name = Anchor120;
position = "{272, -98}";
},
{
name = Anchor122;
position = "{318, 341}";
}
);
layerId = UUID0;
paths = (
{
closed = 1;
nodes = (
"331 70 OFFCURVE",
"318 69 OFFCURVE",
"282 69 CURVE SMOOTH",
"179 69 OFFCURVE",
"127 113 OFFCURVE",
"125 198 CURVE",
"61 194 LINE",
"59 189 OFFCURVE",
"59 175 OFFCURVE",
"59 171 CURVE SMOOTH",
"59 79 OFFCURVE",
"113 -7 OFFCURVE",
"267 -7 CURVE SMOOTH",
"304 -7 OFFCURVE",
"356 -6 OFFCURVE",
"383 0 CURVE SMOOTH",
"456 16 OFFCURVE",
"486 56 OFFCURVE",
"486 114 CURVE SMOOTH",
"486 157 OFFCURVE",
"470 203 OFFCURVE",
"435 203 CURVE SMOOTH",
"416 203 OFFCURVE",
"400 196 OFFCURVE",
"388 168 CURVE SMOOTH",
"377 143 OFFCURVE",
"356 86 OFFCURVE",
"349 72 CURVE"
);
}
);
width = 559;
}
);
},
{
glyphname = uni071D.SYRN;
lastChange = "2018-09-11 18:35:11 +0000";
layers = (
{
anchors = (
{
name = Anchor64;
position = "{492, -98}";
},
{
name = Anchor66;
position = "{468, 434}";
}
);
layerId = UUID0;
paths = (
{
closed = 1;
nodes = (
"493 221 LINE",
"449 220 LINE",
"389 82 LINE",
"348 76 OFFCURVE",
"299 76 OFFCURVE",
"275 76 CURVE SMOOTH",
"262 76 LINE SMOOTH",
"174 76 OFFCURVE",
"129 89 OFFCURVE",
"94 138 CURVE",
"49 78 LINE",
"69 30 OFFCURVE",
"136 0 OFFCURVE",
"240 0 CURVE SMOOTH",
"270 0 LINE SMOOTH",
"299 0 OFFCURVE",
"368 1 OFFCURVE",
"425 14 CURVE",
"472 126 LINE",
"475 126 LINE",
"505 69 LINE SMOOTH",
"530 22 OFFCURVE",
"546 0 OFFCURVE",
"572 0 CURVE SMOOTH",
"579 0 LINE",
"579 78 LINE"
);
}
);
width = 628;
}
);
},
{
glyphname = uni071D.Fina;
lastChange = "2018-09-11 18:35:11 +0000";
layers = (
{
anchors = (
{
name = Anchor6;
position = "{119, -226}";
},
{
name = Anchor8;
position = "{85, 345}";
}
);
layerId = UUID0;
paths = (
{
closed = 1;
nodes = (
"257 76 LINE",
"239 76 OFFCURVE",
"214 76 OFFCURVE",
"190 78 CURVE",
"180 131 OFFCURVE",
"154 177 OFFCURVE",
"133 199 CURVE SMOOTH",
"121 211 OFFCURVE",
"110 216 OFFCURVE",
"99 216 CURVE SMOOTH",
"81 216 OFFCURVE",
"59 201 OFFCURVE",
"59 179 CURVE SMOOTH",
"59 164 OFFCURVE",
"67 150 OFFCURVE",
"79 134 CURVE SMOOTH",
"107 96 OFFCURVE",
"123 61 OFFCURVE",
"130 31 CURVE",
"127 5 OFFCURVE",
"111 -25 OFFCURVE",
"80 -64 CURVE SMOOTH",
"68 -79 OFFCURVE",
"62 -91 OFFCURVE",
"62 -104 CURVE SMOOTH",
"62 -125 OFFCURVE",
"80 -140 OFFCURVE",
"100 -140 CURVE SMOOTH",
"111 -140 OFFCURVE",
"123 -135 OFFCURVE",
"134 -122 CURVE SMOOTH",
"154 -100 OFFCURVE",
"183 -56 OFFCURVE",
"191 -1 CURVE",
"215 0 OFFCURVE",
"240 0 OFFCURVE",
"257 0 CURVE"
);
}
);
width = 257;
}
);
},
{
glyphname = uni071D.Fina.SYRJ;
lastChange = "2018-09-11 18:35:11 +0000";
layers = (
{
anchors = (
{
name = Anchor120;
position = "{271, -98}";
},
{
name = Anchor122;
position = "{318, 341}";
}
);
layerId = UUID0;
paths = (
{
closed = 1;
nodes = (
"578 76 LINE",
"561 76 OFFCURVE",
"539 79 OFFCURVE",
"529 82 CURVE",
"520 89 OFFCURVE",
"498 129 OFFCURVE",
"486 149 CURVE SMOOTH",
"459 196 OFFCURVE",
"449 203 OFFCURVE",
"423 203 CURVE SMOOTH",
"400 203 OFFCURVE",
"390 193 OFFCURVE",
"378 175 CURVE SMOOTH",
"347 129 LINE SMOOTH",
"314 80 OFFCURVE",
"287 68 OFFCURVE",
"238 68 CURVE SMOOTH",
"152 68 OFFCURVE",
"127 128 OFFCURVE",
"125 198 CURVE",
"61 194 LINE",
"59 188 OFFCURVE",
"59 182 OFFCURVE",
"59 178 CURVE SMOOTH",
"59 64 OFFCURVE",
"106 -7 OFFCURVE",
"241 -7 CURVE SMOOTH",
"327 -7 OFFCURVE",
"379 23 OFFCURVE",
"418 70 CURVE",
"458 17 OFFCURVE",
"488 0 OFFCURVE",
"573 0 CURVE SMOOTH",
"578 0 LINE"
);
}
);
width = 578;
}
);
},
{
glyphname = uni071D.Fina.SYRN;
lastChange = "2018-09-11 18:35:11 +0000";
layers = (
{
anchors = (
{
name = Anchor64;
position = "{492, -98}";
},
{
name = Anchor66;
position = "{468, 434}";
}
);
layerId = UUID0;
paths = (
{
closed = 1;
nodes = (
"472 126 LINE",
"475 126 LINE",
"508 69 LINE SMOOTH",
"534 24 OFFCURVE",
"557 0 OFFCURVE",
"617 0 CURVE",
"617 76 LINE",
"583 76 OFFCURVE",
"572 91 OFFCURVE",
"557 115 CURVE SMOOTH",
"493 221 LINE",
"449 220 LINE",
"389 82 LINE",
"348 76 OFFCURVE",
"299 76 OFFCURVE",
"275 76 CURVE SMOOTH",
"262 76 LINE SMOOTH",
"174 76 OFFCURVE",
"129 89 OFFCURVE",
"94 138 CURVE",
"49 78 LINE",
"69 30 OFFCURVE",
"136 0 OFFCURVE",
"240 0 CURVE SMOOTH",
"270 0 LINE SMOOTH",
"299 0 OFFCURVE",
"368 1 OFFCURVE",
"425 14 CURVE"
);
}
);
width = 617;
}
);
},
{
glyphname = uni071D.Medi;
lastChange = "2018-09-11 18:35:11 +0000";
layers = (
{
anchors = (
{
name = Anchor6;
position = "{152, -98}";
},
{
name = Anchor8;
position = "{137, 420}";
}
);
layerId = UUID0;
paths = (
{
closed = 1;
nodes = (
"310 76 LINE",
"270 76 OFFCURVE",
"222 77 OFFCURVE",
"208 92 CURVE",
"208 99 OFFCURVE",
"208 105 OFFCURVE",
"208 112 CURVE SMOOTH",
"208 158 OFFCURVE",
"201 232 OFFCURVE",
"185 260 CURVE SMOOTH",
"179 270 OFFCURVE",
"169 275 OFFCURVE",
"156 275 CURVE SMOOTH",
"138 275 OFFCURVE",
"113 265 OFFCURVE",
"113 238 CURVE SMOOTH",
"113 192 OFFCURVE",
"127 121 OFFCURVE",
"140 90 CURVE",
"121 77 OFFCURVE",
"69 76 OFFCURVE",
"29 76 CURVE SMOOTH",
"0 76 LINE SMOOTH",
"-21 76 OFFCURVE",
"-39 61 OFFCURVE",
"-39 38 CURVE SMOOTH",
"-39 14 OFFCURVE",
"-21 0 OFFCURVE",
"0 0 CURVE SMOOTH",
"29 0 LINE SMOOTH",
"72 0 OFFCURVE",
"140 5 OFFCURVE",
"173 29 CURVE",
"200 9 OFFCURVE",
"237 0 OFFCURVE",
"310 0 CURVE"
);
}
);
width = 310;
}
);
},
{
glyphname = uni071D.Medi.SYRJ;
lastChange = "2018-09-11 18:35:11 +0000";
layers = (
{
anchors = (
{
name = Anchor120;
position = "{168, -98}";
},
{
name = Anchor122;
position = "{174, 338}";
}
);
layerId = UUID0;
paths = (
{
closed = 1;
nodes = (
"325 0 LINE",
"325 76 LINE",
"308 76 OFFCURVE",
"286 79 OFFCURVE",
"276 82 CURVE",
"267 89 OFFCURVE",
"244 129 OFFCURVE",
"233 149 CURVE SMOOTH",
"206 196 OFFCURVE",
"196 203 OFFCURVE",
"170 203 CURVE SMOOTH",
"147 203 OFFCURVE",
"137 193 OFFCURVE",
"125 175 CURVE SMOOTH",
"94 129 LINE SMOOTH",
"70 93 OFFCURVE",
"48 76 OFFCURVE",
"0 76 CURVE SMOOTH",
"-21 76 OFFCURVE",
"-39 61 OFFCURVE",
"-39 38 CURVE SMOOTH",
"-39 14 OFFCURVE",
"-21 0 OFFCURVE",
"0 0 CURVE SMOOTH",
"62 0 OFFCURVE",
"104 16 OFFCURVE",
"143 48 CURVE SMOOTH",
"151 55 OFFCURVE",
"158 62 OFFCURVE",
"165 70 CURVE",
"205 17 OFFCURVE",
"235 0 OFFCURVE",
"320 0 CURVE SMOOTH"
);
}
);
width = 325;
}
);
},
{
glyphname = uni071D.Medi.SYRN;
lastChange = "2018-09-11 18:35:11 +0000";
layers = (
{
anchors = (
{
name = Anchor64;
position = "{159, -98}";
},
{
name = Anchor66;
position = "{148, 434}";
}
);
layerId = UUID0;
paths = (
{
closed = 1;
nodes = (
"29 0 OFFCURVE",
"70 0 OFFCURVE",
"107 14 CURVE",
"146 126 LINE",
"149 126 LINE",
"182 69 LINE SMOOTH",
"208 24 OFFCURVE",
"234 0 OFFCURVE",
"294 0 CURVE",
"294 76 LINE",
"260 76 OFFCURVE",
"249 91 OFFCURVE",
"234 115 CURVE SMOOTH",
"170 221 LINE",
"126 220 LINE",
"69 82 LINE",
"58 76 OFFCURVE",
"24 76 OFFCURVE",
"0 76 CURVE SMOOTH",
"-21 76 OFFCURVE",
"-39 61 OFFCURVE",
"-39 38 CURVE SMOOTH",
"-39 14 OFFCURVE",
"-21 0 OFFCURVE",
"0 0 CURVE SMOOTH"
);
}
);
width = 294;
}
);
},
{
glyphname = uni071D.Init;
lastChange = "2018-09-11 18:35:11 +0000";
layers = (
{
anchors = (
{
name = Anchor6;
position = "{135, -97}";
},
{
name = Anchor8;
position = "{125, 407}";
}
);
layerId = UUID0;
paths = (
{
closed = 1;
nodes = (
"58 0 LINE SMOOTH",
"114 0 OFFCURVE",
"150 11 OFFCURVE",
"174 31 CURVE SMOOTH",
"200 53 OFFCURVE",
"209 86 OFFCURVE",
"209 135 CURVE SMOOTH",
"209 184 OFFCURVE",
"195 236 OFFCURVE",
"182 260 CURVE SMOOTH",
"176 270 OFFCURVE",
"167 275 OFFCURVE",
"153 275 CURVE SMOOTH",
"132 275 OFFCURVE",
"110 265 OFFCURVE",
"110 234 CURVE SMOOTH",
"110 190 OFFCURVE",
"129 125 OFFCURVE",
"141 99 CURVE",
"135 78 OFFCURVE",
"91 76 OFFCURVE",
"29 76 CURVE SMOOTH",
"0 76 LINE SMOOTH",
"-21 76 OFFCURVE",
"-39 61 OFFCURVE",
"-39 38 CURVE SMOOTH",
"-39 14 OFFCURVE",
"-21 0 OFFCURVE",
"0 0 CURVE SMOOTH"
);
}
);
width = 278;
}
);
},
{
glyphname = uni071D.Init.SYRJ;
lastChange = "2018-09-11 18:35:11 +0000";
layers = (
{
anchors = (
{
name = Anchor120;
position = "{157, -98}";
},
{
name = Anchor122;
position = "{175, 341}";
}
);
layerId = UUID0;
paths = (
{
closed = 1;
nodes = (
"90 0 LINE SMOOTH",
"130 0 OFFCURVE",
"168 12 OFFCURVE",
"195 34 CURVE SMOOTH",
"220 54 OFFCURVE",
"235 83 OFFCURVE",
"235 121 CURVE SMOOTH",
"235 164 OFFCURVE",
"219 210 OFFCURVE",
"184 210 CURVE SMOOTH",
"165 210 OFFCURVE",
"149 203 OFFCURVE",
"137 175 CURVE SMOOTH",
"126 150 OFFCURVE",
"105 93 OFFCURVE",
"98 79 CURVE",
"80 77 OFFCURVE",
"69 76 OFFCURVE",
"0 76 CURVE SMOOTH",
"-21 76 OFFCURVE",
"-39 61 OFFCURVE",
"-39 38 CURVE SMOOTH",
"-39 14 OFFCURVE",
"-21 0 OFFCURVE",
"0 0 CURVE SMOOTH"
);
}
);
width = 309;
}
);
},
{
glyphname = uni071D.Init.SYRN;
lastChange = "2018-09-11 18:35:11 +0000";
layers = (
{
anchors = (
{
name = Anchor64;
position = "{166, -97}";
},
{
name = Anchor66;
position = "{151, 434}";
}
);
layerId = UUID0;
paths = (
{
closed = 1;
nodes = (
"69 82 LINE",
"58 76 OFFCURVE",
"24 76 OFFCURVE",
"0 76 CURVE SMOOTH",
"-21 76 OFFCURVE",
"-39 61 OFFCURVE",
"-39 38 CURVE SMOOTH",
"-39 14 OFFCURVE",
"-21 0 OFFCURVE",
"0 0 CURVE SMOOTH",
"29 0 OFFCURVE",
"68 0 OFFCURVE",
"105 14 CURVE",
"152 126 LINE",
"155 126 LINE",
"185 69 LINE SMOOTH",
"210 22 OFFCURVE",
"226 0 OFFCURVE",
"252 0 CURVE SMOOTH",
"259 0 LINE",
"259 78 LINE",
"173 221 LINE",
"129 220 LINE"
);
}
);
width = 308;
}
);
},
{
glyphname = uni071E;
lastChange = "2018-09-11 18:35:11 +0000";
layers = (
{
layerId = UUID0;
paths = (
{
closed = 1;
nodes = (
"1000 0 LINE SMOOTH",
"1056 0 OFFCURVE",
"1092 11 OFFCURVE",
"1116 31 CURVE SMOOTH",
"1142 53 OFFCURVE",
"1151 86 OFFCURVE",
"1151 135 CURVE SMOOTH",
"1151 184 OFFCURVE",
"1137 236 OFFCURVE",
"1124 260 CURVE SMOOTH",
"1118 270 OFFCURVE",
"1109 275 OFFCURVE",
"1095 275 CURVE SMOOTH",
"1074 275 OFFCURVE",
"1052 265 OFFCURVE",
"1052 234 CURVE SMOOTH",
"1052 190 OFFCURVE",
"1071 125 OFFCURVE",
"1083 99 CURVE",
"1077 78 OFFCURVE",
"1033 76 OFFCURVE",
"971 76 CURVE SMOOTH",
"824 76 LINE",
"824 79 LINE",
"853 106 OFFCURVE",
"861 155 OFFCURVE",
"861 195 CURVE SMOOTH",
"861 334 OFFCURVE",
"809 436 OFFCURVE",
"649 436 CURVE SMOOTH",
"608 436 OFFCURVE",
"559 426 OFFCURVE",
"498 426 CURVE SMOOTH",
"437 426 OFFCURVE",
"394 437 OFFCURVE",
"312 437 CURVE SMOOTH",
"164 437 OFFCURVE",
"68 358 OFFCURVE",
"68 225 CURVE SMOOTH",
"68 102 OFFCURVE",
"125 33 OFFCURVE",
"231 -8 CURVE",
"264 57 LINE",
"187 89 OFFCURVE",
"142 131 OFFCURVE",
"142 216 CURVE SMOOTH",
"142 334 OFFCURVE",
"229 365 OFFCURVE",
"333 365 CURVE SMOOTH",
"370 365 OFFCURVE",
"420 362 OFFCURVE",
"458 354 CURVE",
"361 5 LINE",
"426 -6 LINE",
"535 353 LINE",
"561 357 OFFCURVE",
"598 362 OFFCURVE",
"643 362 CURVE SMOOTH",
"749 362 OFFCURVE",
"788 312 OFFCURVE",
"788 198 CURVE SMOOTH",
"788 135 OFFCURVE",
"777 72 OFFCURVE",
"673 72 CURVE SMOOTH",
"671 72 OFFCURVE",
"657 72 OFFCURVE",
"646 73 CURVE",
"643 2 LINE",
"653 0 OFFCURVE",
"727 0 OFFCURVE",
"730 0 CURVE SMOOTH"
);
},
{
closed = 1;
nodes = (
"483 -183 OFFCURVE",
"503 -163 OFFCURVE",
"503 -127 CURVE SMOOTH",
"503 -90 OFFCURVE",
"484 -70 OFFCURVE",
"451 -70 CURVE SMOOTH",
"420 -70 OFFCURVE",
"402 -90 OFFCURVE",
"402 -127 CURVE SMOOTH",
"402 -167 OFFCURVE",
"423 -183 OFFCURVE",
"451 -183 CURVE SMOOTH"
);
},
{
closed = 1;
nodes = (
"524 643 OFFCURVE",
"544 663 OFFCURVE",
"544 699 CURVE SMOOTH",
"544 736 OFFCURVE",
"525 756 OFFCURVE",
"492 756 CURVE SMOOTH",
"461 756 OFFCURVE",
"443 736 OFFCURVE",
"443 699 CURVE SMOOTH",
"443 659 OFFCURVE",
"464 643 OFFCURVE",
"492 643 CURVE SMOOTH"
);
},
{
closed = 1;
nodes = (
"450 504 OFFCURVE",
"470 524 OFFCURVE",
"470 560 CURVE SMOOTH",
"470 597 OFFCURVE",
"451 617 OFFCURVE",
"418 617 CURVE SMOOTH",
"387 617 OFFCURVE",
"369 597 OFFCURVE",
"369 560 CURVE SMOOTH",
"369 520 OFFCURVE",
"390 504 OFFCURVE",
"418 504 CURVE SMOOTH"
);
},
{
closed = 1;
nodes = (
"598 504 OFFCURVE",
"618 524 OFFCURVE",
"618 560 CURVE SMOOTH",
"618 597 OFFCURVE",
"599 617 OFFCURVE",
"566 617 CURVE SMOOTH",
"535 617 OFFCURVE",
"517 597 OFFCURVE",
"517 560 CURVE SMOOTH",
"517 520 OFFCURVE",
"538 504 OFFCURVE",
"566 504 CURVE SMOOTH"
);
}
);
width = 1220;
}
);
unicode = 071E;
},
{
glyphname = uni071E.SYRJ;
lastChange = "2018-09-11 18:35:11 +0000";
layers = (
{
layerId = UUID0;
paths = (
{
closed = 1;
nodes = (
"139 417 OFFCURVE",
"45 337 OFFCURVE",
"45 211 CURVE SMOOTH",
"45 87 OFFCURVE",
"132 0 OFFCURVE",
"260 0 CURVE SMOOTH",
"372 0 OFFCURVE",
"456 62 OFFCURVE",
"477 158 CURVE",
"508 195 OFFCURVE",
"544 244 OFFCURVE",
"562 279 CURVE",
"566 280 LINE",
"570 266 OFFCURVE",
"575 229 OFFCURVE",
"575 189 CURVE SMOOTH",
"575 121 OFFCURVE",
"564 43 OFFCURVE",
"556 4 CURVE",
"620 -7 LINE",
"624 8 OFFCURVE",
"628 23 OFFCURVE",
"631 39 CURVE",
"634 39 LINE",
"652 15 OFFCURVE",
"683 0 OFFCURVE",
"742 0 CURVE SMOOTH",
"772 0 OFFCURVE",
"802 0 OFFCURVE",
"832 0 CURVE SMOOTH",
"872 0 OFFCURVE",
"910 12 OFFCURVE",
"937 34 CURVE SMOOTH",
"962 54 OFFCURVE",
"977 83 OFFCURVE",
"977 121 CURVE SMOOTH",
"977 164 OFFCURVE",
"961 210 OFFCURVE",
"926 210 CURVE SMOOTH",
"907 210 OFFCURVE",
"891 203 OFFCURVE",
"879 175 CURVE SMOOTH",
"868 150 OFFCURVE",
"847 93 OFFCURVE",
"840 79 CURVE",
"822 77 OFFCURVE",
"811 76 OFFCURVE",
"742 76 CURVE SMOOTH",
"711 76 OFFCURVE",
"645 81 OFFCURVE",
"641 113 CURVE",
"643 141 OFFCURVE",
"644 169 OFFCURVE",
"644 201 CURVE SMOOTH",
"644 261 OFFCURVE",
"630 346 OFFCURVE",
"606 399 CURVE",
"549 387 LINE",
"527 344 OFFCURVE",
"501 295 OFFCURVE",
"475 260 CURVE",
"472 260 LINE",
"449 354 OFFCURVE",
"366 417 OFFCURVE",
"251 417 CURVE SMOOTH"
);
},
{
closed = 1;
nodes = (
"173 76 OFFCURVE",
"117 137 OFFCURVE",
"117 216 CURVE SMOOTH",
"117 294 OFFCURVE",
"178 344 OFFCURVE",
"251 344 CURVE SMOOTH",
"348 344 OFFCURVE",
"409 286 OFFCURVE",
"409 208 CURVE SMOOTH",
"409 119 OFFCURVE",
"343 76 OFFCURVE",
"270 76 CURVE SMOOTH"
);
},
{
closed = 1;
nodes = (
"264 570 OFFCURVE",
"284 554 OFFCURVE",
"313 554 CURVE SMOOTH",
"346 554 OFFCURVE",
"365 573 OFFCURVE",
"365 610 CURVE SMOOTH",
"365 647 OFFCURVE",
"346 667 OFFCURVE",
"313 667 CURVE SMOOTH",
"282 667 OFFCURVE",
"264 647 OFFCURVE",
"264 610 CURVE SMOOTH"
);
},
{
closed = 1;
nodes = (
"411 570 OFFCURVE",
"431 554 OFFCURVE",
"460 554 CURVE SMOOTH",
"493 554 OFFCURVE",
"512 573 OFFCURVE",
"512 610 CURVE SMOOTH",
"512 647 OFFCURVE",
"493 667 OFFCURVE",
"460 667 CURVE SMOOTH",
"429 667 OFFCURVE",
"411 647 OFFCURVE",
"411 610 CURVE SMOOTH"
);
},
{
closed = 1;
nodes = (
"339 -194 OFFCURVE",
"359 -210 OFFCURVE",
"388 -210 CURVE SMOOTH",
"421 -210 OFFCURVE",
"440 -191 OFFCURVE",
"440 -154 CURVE SMOOTH",
"440 -117 OFFCURVE",
"421 -97 OFFCURVE",
"388 -97 CURVE SMOOTH",
"357 -97 OFFCURVE",
"339 -117 OFFCURVE",
"339 -154 CURVE SMOOTH"
);
},
{
closed = 1;
nodes = (
"338 709 OFFCURVE",
"358 693 OFFCURVE",
"387 693 CURVE SMOOTH",
"420 693 OFFCURVE",
"439 712 OFFCURVE",
"439 749 CURVE SMOOTH",
"439 786 OFFCURVE",
"420 806 OFFCURVE",
"387 806 CURVE SMOOTH",
"356 806 OFFCURVE",
"338 786 OFFCURVE",
"338 749 CURVE SMOOTH"
);
}
);
width = 1050;
}
);
},
{
glyphname = uni071E.SYRN;
lastChange = "2018-09-11 18:35:11 +0000";
layers = (
{
layerId = UUID0;
paths = (
{
closed = 1;
nodes = (
"856 82 LINE",
"845 76 OFFCURVE",
"815 76 OFFCURVE",
"792 76 CURVE",
"687 76 LINE",
"687 434 LINE",
"678 431 OFFCURVE",
"651 429 OFFCURVE",
"606 428 CURVE SMOOTH",
"561 427 OFFCURVE",
"514 426 OFFCURVE",
"465 426 CURVE SMOOTH",
"224 426 LINE SMOOTH",
"177 426 OFFCURVE",
"140 406 OFFCURVE",
"111 366 CURVE SMOOTH",
"82 327 OFFCURVE",
"68 280 OFFCURVE",
"68 226 CURVE SMOOTH",
"68 159 OFFCURVE",
"85 103 OFFCURVE",
"122 62 CURVE SMOOTH",
"159 20 OFFCURVE",
"207 -1 OFFCURVE",
"267 -1 CURVE SMOOTH",
"447 -1 OFFCURVE",
"478 133 OFFCURVE",
"478 290 CURVE SMOOTH",
"478 307 OFFCURVE",
"475 333 OFFCURVE",
"472 353 CURVE",
"521 354 OFFCURVE",
"570 355 OFFCURVE",
"619 356 CURVE",
"619 0 LINE",
"792 0 LINE SMOOTH",
"820 0 OFFCURVE",
"857 0 OFFCURVE",
"892 14 CURVE",
"939 126 LINE",
"942 126 LINE",
"972 69 LINE SMOOTH",
"997 22 OFFCURVE",
"1013 0 OFFCURVE",
"1039 0 CURVE SMOOTH",
"1046 0 LINE",
"1046 78 LINE",
"960 221 LINE",
"916 220 LINE"
);
},
{
closed = 1;
nodes = (
"403 353 LINE",
"407 336 OFFCURVE",
"409 312 OFFCURVE",
"409 292 CURVE SMOOTH",
"409 169 OFFCURVE",
"395 74 OFFCURVE",
"275 74 CURVE SMOOTH",
"188 74 OFFCURVE",
"142 129 OFFCURVE",
"142 233 CURVE SMOOTH",
"142 301 OFFCURVE",
"181 353 OFFCURVE",
"229 353 CURVE SMOOTH"
);
},
{
closed = 1;
nodes = (
"439 -166 LINE",
"439 -81 LINE",
"357 -81 LINE",
"357 -166 LINE"
);
},
{
closed = 1;
nodes = (
"438 674 LINE",
"438 759 LINE",
"356 759 LINE",
"356 674 LINE"
);
},
{
closed = 1;
nodes = (
"354 527 LINE",
"354 612 LINE",
"272 612 LINE",
"272 527 LINE"
);
},
{
closed = 1;
nodes = (
"522 527 LINE",
"522 612 LINE",
"440 612 LINE",
"440 527 LINE"
);
}
);
width = 1095;
}
);
},
{
glyphname = uni071F;
lastChange = "2018-09-11 18:35:11 +0000";
layers = (
{
anchors = (
{
name = Anchor2;
position = "{682, 429}";
},
{
name = Anchor4;
position = "{667, -156}";
},
{
name = Anchor6;
position = "{337, -117}";
},
{
name = Anchor8;
position = "{325, 451}";
}
);
layerId = UUID0;
paths = (
{
closed = 1;
nodes = (
"950 -344 LINE",
"842 -36 OFFCURVE",
"764 143 OFFCURVE",
"706 243 CURVE SMOOTH",
"642 353 OFFCURVE",
"597 375 OFFCURVE",
"543 375 CURVE SMOOTH",
"453 375 OFFCURVE",
"408 310 OFFCURVE",
"396 198 CURVE SMOOTH",
"383 77 OFFCURVE",
"353 55 OFFCURVE",
"296 55 CURVE SMOOTH",
"196 55 OFFCURVE",
"142 165 OFFCURVE",
"142 280 CURVE SMOOTH",
"142 310 OFFCURVE",
"147 346 OFFCURVE",
"156 366 CURVE",
"91 392 LINE",
"74 359 OFFCURVE",
"68 305 OFFCURVE",
"68 277 CURVE SMOOTH",
"68 125 OFFCURVE",
"150 -21 OFFCURVE",
"299 -21 CURVE SMOOTH",
"421 -21 OFFCURVE",
"450 66 OFFCURVE",
"465 182 CURVE SMOOTH",
"475 263 OFFCURVE",
"493 300 OFFCURVE",
"541 300 CURVE SMOOTH",
"580 300 OFFCURVE",
"601 272 OFFCURVE",
"639 208 CURVE SMOOTH",
"708 90 OFFCURVE",
"798 -128 OFFCURVE",
"882 -364 CURVE"
);
}
);
width = 889;
}
);
unicode = 071F;
},
{
glyphname = uni071F.SYRJ;
lastChange = "2018-09-11 18:35:11 +0000";
layers = (
{
anchors = (
{
name = Anchor116;
position = "{472, 279}";
},
{
name = Anchor118;
position = "{468, -65}";
},
{
name = Anchor120;
position = "{366, -244}";
},
{
name = Anchor122;
position = "{263, 378}";
}
);
layerId = UUID0;
paths = (
{
closed = 1;
nodes = (
"61 194 LINE",
"60 189 OFFCURVE",
"59 177 OFFCURVE",
"59 173 CURVE SMOOTH",
"59 67 OFFCURVE",
"141 14 OFFCURVE",
"264 2 CURVE SMOOTH",
"267 2 OFFCURVE",
"271 1 OFFCURVE",
"274 1 CURVE",
"82 -369 LINE",
"143 -399 LINE",
"354 0 LINE",
"413 8 OFFCURVE",
"466 30 OFFCURVE",
"466 114 CURVE SMOOTH",
"466 162 OFFCURVE",
"450 203 OFFCURVE",
"411 203 CURVE SMOOTH",
"375 203 OFFCURVE",
"356 169 OFFCURVE",
"318 96 CURVE SMOOTH",
"306 73 LINE",
"304 73 OFFCURVE",
"303 73 OFFCURVE",
"301 73 CURVE SMOOTH",
"203 73 OFFCURVE",
"130 110 OFFCURVE",
"126 198 CURVE"
);
}
);
width = 540;
}
);
},
{
glyphname = uni071F.SYRN;
lastChange = "2018-09-11 18:35:11 +0000";
layers = (
{
anchors = (
{
name = Anchor60;
position = "{545, 459}";
},
{
name = Anchor62;
position = "{538, -331}";
},
{
name = Anchor64;
position = "{222, -388}";
},
{
name = Anchor66;
position = "{271, 542}";
}
);
layerId = UUID0;
paths = (
{
closed = 1;
nodes = (
"393 -339 LINE",
"544 -186 OFFCURVE",
"623 -48 OFFCURVE",
"623 72 CURVE SMOOTH",
"623 184 OFFCURVE",
"558 246 OFFCURVE",
"449 246 CURVE SMOOTH",
"370 246 OFFCURVE",
"309 193 OFFCURVE",
"274 101 CURVE",
"270 101 LINE",
"157 319 LINE SMOOTH",
"150 332 OFFCURVE",
"149 338 OFFCURVE",
"149 341 CURVE SMOOTH",
"149 348 OFFCURVE",
"150 353 OFFCURVE",
"155 361 CURVE SMOOTH",
"161 372 LINE",
"420 372 LINE",
"420 445 LINE",
"115 445 LINE",
"68 335 LINE",
"84 297 OFFCURVE",
"109 245 OFFCURVE",
"145 179 CURVE SMOOTH",
"181 113 OFFCURVE",
"215 53 OFFCURVE",
"248 0 CURVE",
"299 0 LINE",
"340 121 OFFCURVE",
"386 172 OFFCURVE",
"447 172 CURVE SMOOTH",
"510 172 OFFCURVE",
"546 134 OFFCURVE",
"546 67 CURVE SMOOTH",
"546 20 OFFCURVE",
"530 -32 OFFCURVE",
"499 -87 CURVE SMOOTH",
"468 -143 OFFCURVE",
"416 -212 OFFCURVE",
"343 -295 CURVE"
);
}
);
width = 691;
}
);
},
{
glyphname = uni071F.Fina;
lastChange = "2018-09-11 18:35:11 +0000";
layers = (
{
anchors = (
{
name = Anchor2;
position = "{681, 430}";
},
{
name = Anchor4;
position = "{667, -160}";
},
{
name = Anchor6;
position = "{337, -117}";
},
{
name = Anchor8;
position = "{325, 451}";
}
);
layerId = UUID0;
paths = (
{
closed = 1;
nodes = (
"950 -344 LINE",
"901 -205 OFFCURVE",
"858 -91 OFFCURVE",
"820 0 CURVE",
"886 0 LINE",
"886 76 LINE",
"788 76 LINE",
"757 147 OFFCURVE",
"730 202 OFFCURVE",
"706 243 CURVE SMOOTH",
"642 353 OFFCURVE",
"597 375 OFFCURVE",
"543 375 CURVE SMOOTH",
"453 375 OFFCURVE",
"409 310 OFFCURVE",
"396 198 CURVE SMOOTH",
"382 77 OFFCURVE",
"353 55 OFFCURVE",
"296 55 CURVE SMOOTH",
"196 55 OFFCURVE",
"142 165 OFFCURVE",
"142 280 CURVE SMOOTH",
"142 310 OFFCURVE",
"147 346 OFFCURVE",
"156 366 CURVE",
"91 392 LINE",
"74 359 OFFCURVE",
"68 305 OFFCURVE",
"68 277 CURVE SMOOTH",
"68 125 OFFCURVE",
"150 -21 OFFCURVE",
"299 -21 CURVE SMOOTH",
"421 -21 OFFCURVE",
"450 66 OFFCURVE",
"465 182 CURVE SMOOTH",
"475 263 OFFCURVE",
"493 300 OFFCURVE",
"541 300 CURVE SMOOTH",
"580 300 OFFCURVE",
"602 273 OFFCURVE",
"639 208 CURVE SMOOTH",
"707 89 OFFCURVE",
"798 -128 OFFCURVE",
"882 -364 CURVE"
);
}
);
width = 886;
}
);
},
{
glyphname = uni071F.Fina.SYRJ;
lastChange = "2018-09-11 18:35:11 +0000";
layers = (
{
anchors = (
{
name = Anchor116;
position = "{472, 279}";
},
{
name = Anchor118;
position = "{469, -65}";
},
{
name = Anchor120;
position = "{367, -243}";
},
{
name = Anchor122;
position = "{262, 377}";
}
);
layerId = UUID0;
paths = (
{
closed = 1;
nodes = (
"61 194 LINE",
"60 189 OFFCURVE",
"59 177 OFFCURVE",
"59 173 CURVE SMOOTH",
"59 66 OFFCURVE",
"150 8 OFFCURVE",
"273 -1 CURVE",
"82 -369 LINE",
"143 -399 LINE",
"353 0 LINE",
"549 0 LINE",
"549 76 LINE",
"460 76 LINE",
"463 85 OFFCURVE",
"466 104 OFFCURVE",
"466 118 CURVE SMOOTH",
"466 161 OFFCURVE",
"450 203 OFFCURVE",
"411 203 CURVE SMOOTH",
"375 203 OFFCURVE",
"356 169 OFFCURVE",
"318 96 CURVE SMOOTH",
"306 73 LINE",
"300 73 LINE SMOOTH",
"197 73 OFFCURVE",
"130 110 OFFCURVE",
"126 198 CURVE"
);
}
);
width = 549;
}
);
},
{
glyphname = uni071F.Fina.SYRN;
lastChange = "2018-09-11 18:35:11 +0000";
layers = (
{
anchors = (
{
name = Anchor60;
position = "{468, 496}";
},
{
name = Anchor62;
position = "{610, -68}";
},
{
name = Anchor64;
position = "{254, -334}";
},
{
name = Anchor66;
position = "{270, 444}";
}
);
layerId = UUID0;
paths = (
{
closed = 1;
nodes = (
"651 -286 LINE",
"648 -287 OFFCURVE",
"635 -290 OFFCURVE",
"622 -290 CURVE SMOOTH",
"580 -290 OFFCURVE",
"541 -270 OFFCURVE",
"508 -231 CURVE SMOOTH",
"475 -192 OFFCURVE",
"427 -135 OFFCURVE",
"366 -60 CURVE SMOOTH",
"305 14 OFFCURVE",
"218 129 OFFCURVE",
"178 188 CURVE SMOOTH",
"160 215 OFFCURVE",
"153 228 OFFCURVE",
"153 241 CURVE SMOOTH",
"153 248 OFFCURVE",
"154 252 OFFCURVE",
"164 269 CURVE",
"339 272 LINE SMOOTH",
"367 272 OFFCURVE",
"420 276 OFFCURVE",
"434 279 CURVE",
"434 106 LINE SMOOTH",
"434 31 OFFCURVE",
"469 0 OFFCURVE",
"536 0 CURVE SMOOTH",
"615 0 LINE",
"615 76 LINE",
"547 76 LINE SMOOTH",
"511 76 OFFCURVE",
"502 84 OFFCURVE",
"502 121 CURVE SMOOTH",
"502 396 LINE",
"434 396 LINE",
"434 350 LINE",
"425 348 OFFCURVE",
"398 345 OFFCURVE",
"353 344 CURVE SMOOTH",
"308 343 OFFCURVE",
"261 342 OFFCURVE",
"115 342 CURVE",
"68 230 LINE",
"125 131 OFFCURVE",
"195 31 OFFCURVE",
"278 -72 CURVE SMOOTH",
"361 -175 OFFCURVE",
"423 -249 OFFCURVE",
"464 -293 CURVE SMOOTH",
"505 -337 OFFCURVE",
"553 -359 OFFCURVE",
"606 -359 CURVE SMOOTH",
"620 -359 OFFCURVE",
"641 -357 OFFCURVE",
"661 -349 CURVE"
);
}
);
width = 615;
}
);
},
{
glyphname = uni071F.Medi;
lastChange = "2018-09-11 18:35:11 +0000";
layers = (
{
anchors = (
{
name = Anchor2;
position = "{511, 406}";
},
{
name = Anchor4;
position = "{546, -93}";
},
{
name = Anchor6;
position = "{285, -98}";
},
{
name = Anchor8;
position = "{251, 521}";
}
);
layerId = UUID0;
paths = (
{
closed = 1;
nodes = (
"643 0 LINE",
"643 76 LINE",
"611 76 LINE",
"588 118 OFFCURVE",
"530 205 OFFCURVE",
"503 242 CURVE SMOOTH",
"407 377 OFFCURVE",
"338 428 OFFCURVE",
"233 428 CURVE SMOOTH",
"178 428 OFFCURVE",
"126 408 OFFCURVE",
"75 352 CURVE",
"120 305 LINE",
"154 338 OFFCURVE",
"193 353 OFFCURVE",
"223 353 CURVE SMOOTH",
"317 353 OFFCURVE",
"386 286 OFFCURVE",
"466 164 CURVE SMOOTH",
"485 135 OFFCURVE",
"505 105 OFFCURVE",
"524 76 CURVE",
"0 76 LINE SMOOTH",
"-21 76 OFFCURVE",
"-39 61 OFFCURVE",
"-39 38 CURVE SMOOTH",
"-39 14 OFFCURVE",
"-21 0 OFFCURVE",
"0 0 CURVE SMOOTH"
);
}
);
width = 643;
}
);
},
{
glyphname = uni071F.Medi.SYRJ;
lastChange = "2018-09-11 18:35:11 +0000";
layers = (
{
anchors = (
{
name = Anchor116;
position = "{504, 447}";
},
{
name = Anchor118;
position = "{486, -98}";
},
{
name = Anchor120;
position = "{241, -98}";
},
{
name = Anchor122;
position = "{257, 537}";
}
);
layerId = UUID0;
paths = (
{
closed = 1;
nodes = (
"562 0 LINE",
"562 76 LINE",
"543 76 LINE SMOOTH",
"523 76 OFFCURVE",
"499 76 OFFCURVE",
"475 74 CURVE",
"474 78 LINE",
"493 99 OFFCURVE",
"499 134 OFFCURVE",
"499 169 CURVE SMOOTH",
"499 340 OFFCURVE",
"388 436 OFFCURVE",
"271 436 CURVE SMOOTH",
"166 436 OFFCURVE",
"78 358 OFFCURVE",
"56 251 CURVE",
"120 238 LINE",
"146 319 OFFCURVE",
"208 360 OFFCURVE",
"272 360 CURVE SMOOTH",
"360 360 OFFCURVE",
"425 279 OFFCURVE",
"425 168 CURVE SMOOTH",
"425 108 OFFCURVE",
"401 76 OFFCURVE",
"327 76 CURVE SMOOTH",
"0 76 LINE SMOOTH",
"-21 76 OFFCURVE",
"-39 61 OFFCURVE",
"-39 38 CURVE SMOOTH",
"-39 14 OFFCURVE",
"-21 0 OFFCURVE",
"0 0 CURVE SMOOTH"
);
}
);
width = 562;
}
);
},
{
glyphname = uni071F.Medi.SYRN;
lastChange = "2018-09-11 18:35:11 +0000";
layers = (
{
anchors = (
{
name = Anchor60;
position = "{509, 409}";
},
{
name = Anchor62;
position = "{498, -81}";
},
{
name = Anchor64;
position = "{233, -98}";
},
{
name = Anchor66;
position = "{251, 537}";
}
);
layerId = UUID0;
paths = (
{
closed = 1;
nodes = (
"587 0 LINE",
"587 76 LINE",
"563 76 OFFCURVE",
"558 85 OFFCURVE",
"546 110 CURVE SMOOTH",
"499 210 LINE SMOOTH",
"425 367 OFFCURVE",
"350 437 OFFCURVE",
"233 437 CURVE SMOOTH",
"136 437 OFFCURVE",
"66 389 OFFCURVE",
"58 305 CURVE",
"127 305 LINE",
"136 342 OFFCURVE",
"171 362 OFFCURVE",
"228 362 CURVE SMOOTH",
"267 362 OFFCURVE",
"302 348 OFFCURVE",
"333 320 CURVE SMOOTH",
"365 292 OFFCURVE",
"400 239 OFFCURVE",
"438 162 CURVE SMOOTH",
"480 76 LINE",
"0 76 LINE SMOOTH",
"-21 76 OFFCURVE",
"-39 61 OFFCURVE",
"-39 38 CURVE SMOOTH",
"-39 14 OFFCURVE",
"-21 0 OFFCURVE",
"0 0 CURVE SMOOTH",
"476 0 LINE",
"494 46 LINE",
"496 46 LINE",
"517 14 OFFCURVE",
"541 0 OFFCURVE",
"577 0 CURVE SMOOTH"
);
}
);
width = 587;
}
);
},
{
glyphname = uni071F.Init;
lastChange = "2018-09-11 18:35:11 +0000";
layers = (
{
anchors = (
{
name = Anchor2;
position = "{511, 407}";
},
{
name = Anchor4;
position = "{546, -92}";
},
{
name = Anchor6;
position = "{285, -98}";
},
{
name = Anchor8;
position = "{251, 522}";
}
);
layerId = UUID0;
paths = (
{
closed = 1;
nodes = (
"569 0 LINE SMOOTH",
"605 0 OFFCURVE",
"614 31 OFFCURVE",
"614 57 CURVE SMOOTH",
"614 66 OFFCURVE",
"612 75 OFFCURVE",
"606 85 CURVE SMOOTH",
"583 124 OFFCURVE",
"527 208 OFFCURVE",
"503 242 CURVE SMOOTH",
"408 378 OFFCURVE",
"338 428 OFFCURVE",
"233 428 CURVE SMOOTH",
"178 428 OFFCURVE",
"126 408 OFFCURVE",
"75 352 CURVE",
"120 305 LINE",
"154 338 OFFCURVE",
"193 353 OFFCURVE",
"223 353 CURVE SMOOTH",
"317 353 OFFCURVE",
"385 285 OFFCURVE",
"466 164 CURVE SMOOTH",
"486 135 OFFCURVE",
"505 105 OFFCURVE",
"525 76 CURVE",
"0 76 LINE SMOOTH",
"-21 76 OFFCURVE",
"-39 61 OFFCURVE",
"-39 38 CURVE SMOOTH",
"-39 14 OFFCURVE",
"-21 0 OFFCURVE",
"0 0 CURVE SMOOTH"
);
}
);
width = 673;
}
);
},
{
glyphname = uni071F.Init.SYRJ;
lastChange = "2018-09-11 18:35:11 +0000";
layers = (
{
anchors = (
{
name = Anchor116;
position = "{503, 447}";
},
{
name = Anchor118;
position = "{486, -75}";
},
{
name = Anchor120;
position = "{241, -98}";
},
{
name = Anchor122;
position = "{258, 537}";
}
);
layerId = UUID0;
paths = (
{
closed = 1;
nodes = (
"318 0 LINE SMOOTH",
"455 0 OFFCURVE",
"499 67 OFFCURVE",
"499 159 CURVE SMOOTH",
"499 340 OFFCURVE",
"388 436 OFFCURVE",
"271 436 CURVE SMOOTH",
"166 436 OFFCURVE",
"78 358 OFFCURVE",
"56 251 CURVE",
"120 238 LINE",
"146 319 OFFCURVE",
"208 360 OFFCURVE",
"272 360 CURVE SMOOTH",
"360 360 OFFCURVE",
"425 279 OFFCURVE",
"425 168 CURVE SMOOTH",
"425 108 OFFCURVE",
"401 76 OFFCURVE",
"327 76 CURVE SMOOTH",
"0 76 LINE SMOOTH",
"-21 76 OFFCURVE",
"-39 61 OFFCURVE",
"-39 38 CURVE SMOOTH",
"-39 14 OFFCURVE",
"-21 0 OFFCURVE",
"0 0 CURVE SMOOTH"
);
}
);
width = 567;
}
);
},
{
glyphname = uni071F.Init.SYRN;
lastChange = "2018-09-11 18:35:11 +0000";
layers = (
{
anchors = (
{
name = Anchor60;
position = "{509, 410}";
},
{
name = Anchor62;
position = "{522, -90}";
},
{
name = Anchor64;
position = "{246, -98}";
},
{
name = Anchor66;
position = "{251, 537}";
}
);
layerId = UUID0;
paths = (
{
closed = 1;
nodes = (
"532 0 LINE",
"567 63 LINE",
"563 75 OFFCURVE",
"555 94 OFFCURVE",
"494 220 CURVE SMOOTH",
"438 336 OFFCURVE",
"367 437 OFFCURVE",
"233 437 CURVE SMOOTH",
"136 437 OFFCURVE",
"66 389 OFFCURVE",
"58 305 CURVE",
"127 305 LINE",
"136 342 OFFCURVE",
"171 362 OFFCURVE",
"228 362 CURVE SMOOTH",
"267 362 OFFCURVE",
"302 348 OFFCURVE",
"333 320 CURVE SMOOTH",
"365 292 OFFCURVE",
"400 239 OFFCURVE",
"438 162 CURVE SMOOTH",
"480 76 LINE",
"0 76 LINE SMOOTH",
"-21 76 OFFCURVE",
"-39 61 OFFCURVE",
"-39 38 CURVE SMOOTH",
"-39 14 OFFCURVE",
"-21 0 OFFCURVE",
"0 0 CURVE SMOOTH"
);
}
);
width = 616;
}
);
},
{
glyphname = uni0720;
lastChange = "2018-09-11 18:35:11 +0000";
layers = (
{
anchors = (
{
name = Anchor6;
position = "{318, -98}";
},
{
name = Anchor8;
position = "{278, 812}";
}
);
layerId = UUID0;
paths = (
{
closed = 1;
nodes = (
"543 0 LINE SMOOTH",
"575 0 OFFCURVE",
"591 24 OFFCURVE",
"591 59 CURVE SMOOTH",
"591 88 OFFCURVE",
"583 119 OFFCURVE",
"568 166 CURVE SMOOTH",
"537 263 OFFCURVE",
"394 655 OFFCURVE",
"355 753 CURVE",
"283 725 LINE",
"376 483 OFFCURVE",
"476 216 OFFCURVE",
"518 76 CURVE",
"268 76 LINE SMOOTH",
"167 76 OFFCURVE",
"132 87 OFFCURVE",
"101 131 CURVE",
"49 85 LINE",
"73 33 OFFCURVE",
"120 0 OFFCURVE",
"230 0 CURVE SMOOTH"
);
}
);
width = 656;
}
);
unicode = 0720;
},
{
glyphname = uni0720.SYRJ;
lastChange = "2018-09-11 18:35:11 +0000";
layers = (
{
anchors = (
{
name = Anchor120;
position = "{423, -98}";
},
{
name = Anchor122;
position = "{126, 752}";
}
);
layerId = UUID0;
paths = (
{
closed = 1;
nodes = (
"511 -17 OFFCURVE",
"548 40 OFFCURVE",
"557 82 CURVE",
"560 82 LINE",
"641 -12 LINE",
"700 38 LINE",
"125 693 LINE",
"68 642 LINE",
"491 160 LINE SMOOTH",
"499 150 OFFCURVE",
"505 138 OFFCURVE",
"505 123 CURVE SMOOTH",
"505 90 OFFCURVE",
"477 59 OFFCURVE",
"431 59 CURVE SMOOTH",
"390 59 OFFCURVE",
"361 88 OFFCURVE",
"330 124 CURVE SMOOTH",
"-136 654 LINE",
"-193 603 LINE",
"264 82 LINE SMOOTH",
"328 9 OFFCURVE",
"376 -17 OFFCURVE",
"427 -17 CURVE SMOOTH"
);
}
);
width = 749;
}
);
},
{
glyphname = uni0720.SYRN;
lastChange = "2018-09-11 18:35:11 +0000";
layers = (
{
anchors = (
{
name = Anchor64;
position = "{396, -98}";
},
{
name = Anchor66;
position = "{374, 773}";
}
);
layerId = UUID0;
paths = (
{
closed = 1;
nodes = (
"705 0 LINE",
"751 69 LINE",
"429 693 LINE",
"358 659 LINE",
"659 76 LINE",
"267 76 LINE SMOOTH",
"175 76 OFFCURVE",
"127 90 OFFCURVE",
"94 138 CURVE",
"49 78 LINE",
"69 30 OFFCURVE",
"136 0 OFFCURVE",
"240 0 CURVE SMOOTH"
);
}
);
width = 800;
}
);
},
{
glyphname = uni0720.Fina;
lastChange = "2018-09-11 18:35:11 +0000";
layers = (
{
anchors = (
{
name = Anchor6;
position = "{318, -98}";
},
{
name = Anchor8;
position = "{278, 812}";
}
);
layerId = UUID0;
paths = (
{
closed = 1;
nodes = (
"652 76 LINE",
"601 76 LINE",
"539 249 OFFCURVE",
"374 707 OFFCURVE",
"355 753 CURVE",
"282 725 LINE",
"305 670 OFFCURVE",
"465 241 OFFCURVE",
"525 76 CURVE",
"267 76 LINE SMOOTH",
"167 76 OFFCURVE",
"132 87 OFFCURVE",
"101 131 CURVE",
"48 85 LINE",
"72 33 OFFCURVE",
"119 0 OFFCURVE",
"230 0 CURVE SMOOTH",
"652 0 LINE"
);
}
);
width = 652;
}
);
},
{
glyphname = uni0720.Fina.SYRJ;
lastChange = "2018-09-11 18:35:11 +0000";
layers = (
{
anchors = (
{
name = Anchor120;
position = "{423, -98}";
},
{
name = Anchor122;
position = "{126, 752}";
}
);
layerId = UUID0;
paths = (
{
closed = 1;
nodes = (
"511 -17 OFFCURVE",
"548 40 OFFCURVE",
"557 82 CURVE",
"560 82 LINE",
"603 29 OFFCURVE",
"643 0 OFFCURVE",
"696 0 CURVE",
"696 76 LINE",
"675 76 OFFCURVE",
"656 87 OFFCURVE",
"637 109 CURVE SMOOTH",
"125 693 LINE",
"68 642 LINE",
"492 159 LINE SMOOTH",
"500 150 OFFCURVE",
"505 137 OFFCURVE",
"505 123 CURVE SMOOTH",
"505 90 OFFCURVE",
"477 59 OFFCURVE",
"431 59 CURVE SMOOTH",
"390 59 OFFCURVE",
"361 88 OFFCURVE",
"330 124 CURVE SMOOTH",
"-136 654 LINE",
"-193 603 LINE",
"264 82 LINE SMOOTH",
"328 9 OFFCURVE",
"376 -17 OFFCURVE",
"427 -17 CURVE SMOOTH"
);
}
);
width = 696;
}
);
},
{
glyphname = uni0720.Fina.SYRN;
lastChange = "2018-09-11 18:35:11 +0000";
layers = (
{
anchors = (
{
name = Anchor64;
position = "{396, -98}";
},
{
name = Anchor66;
position = "{374, 773}";
}
);
layerId = UUID0;
paths = (
{
closed = 1;
nodes = (
"765 0 LINE",
"765 76 LINE",
"754 76 OFFCURVE",
"743 85 OFFCURVE",
"734 103 CURVE SMOOTH",
"429 693 LINE",
"358 659 LINE",
"659 76 LINE",
"267 76 LINE SMOOTH",
"175 76 OFFCURVE",
"127 90 OFFCURVE",
"94 138 CURVE",
"49 78 LINE",
"69 30 OFFCURVE",
"136 0 OFFCURVE",
"240 0 CURVE SMOOTH",
"658 0 LINE",
"676 45 LINE",
"678 45 LINE",
"698 18 OFFCURVE",
"722 0 OFFCURVE",
"758 0 CURVE SMOOTH"
);
}
);
width = 765;
}
);
},
{
glyphname = uni0720.Medi;
lastChange = "2018-09-11 18:35:11 +0000";
layers = (
{
anchors = (
{
name = Anchor6;
position = "{193, -98}";
},
{
name = Anchor8;
position = "{-30, 812}";
}
);
layerId = UUID0;
paths = (
{
closed = 1;
nodes = (
"338 76 LINE",
"288 76 LINE",
"226 249 OFFCURVE",
"60 707 OFFCURVE",
"41 753 CURVE",
"-32 725 LINE",
"-9 670 OFFCURVE",
"151 241 OFFCURVE",
"211 76 CURVE",
"0 76 LINE SMOOTH",
"-21 76 OFFCURVE",
"-39 61 OFFCURVE",
"-39 38 CURVE SMOOTH",
"-39 14 OFFCURVE",
"-21 0 OFFCURVE",
"0 0 CURVE SMOOTH",
"338 0 LINE"
);
}
);
width = 338;
}
);
},
{
glyphname = uni0720.Medi.SYRJ;
lastChange = "2018-09-11 18:35:11 +0000";
layers = (
{
anchors = (
{
name = Anchor120;
position = "{192, -98}";
},
{
name = Anchor122;
position = "{-58, 752}";
}
);
layerId = UUID0;
paths = (
{
closed = 1;
nodes = (
"0 76 LINE SMOOTH",
"-21 76 OFFCURVE",
"-39 61 OFFCURVE",
"-39 38 CURVE SMOOTH",
"-39 14 OFFCURVE",
"-21 0 OFFCURVE",
"0 0 CURVE SMOOTH",
"295 0 LINE SMOOTH",
"366 0 OFFCURVE",
"403 11 OFFCURVE",
"422 35 CURVE",
"447 14 OFFCURVE",
"475 0 OFFCURVE",
"514 0 CURVE",
"514 76 LINE",
"493 76 OFFCURVE",
"474 87 OFFCURVE",
"455 109 CURVE SMOOTH",
"-57 693 LINE",
"-114 642 LINE",
"373 87 LINE",
"353 77 OFFCURVE",
"330 76 OFFCURVE",
"306 76 CURVE SMOOTH"
);
}
);
width = 514;
}
);
},
{
glyphname = uni0720.Medi.SYRN;
lastChange = "2018-09-11 18:35:11 +0000";
layers = (
{
anchors = (
{
name = Anchor64;
position = "{169, -98}";
},
{
name = Anchor66;
position = "{-9, 773}";
}
);
layerId = UUID0;
paths = (
{
closed = 1;
nodes = (
"383 0 LINE",
"383 76 LINE",
"372 76 OFFCURVE",
"361 84 OFFCURVE",
"353 100 CURVE SMOOTH",
"47 693 LINE",
"-23 659 LINE",
"277 76 LINE",
"0 76 LINE SMOOTH",
"-21 76 OFFCURVE",
"-39 61 OFFCURVE",
"-39 38 CURVE SMOOTH",
"-39 14 OFFCURVE",
"-21 0 OFFCURVE",
"0 0 CURVE SMOOTH",
"276 0 LINE",
"294 45 LINE",
"296 45 LINE",
"316 17 OFFCURVE",
"339 0 OFFCURVE",
"375 0 CURVE SMOOTH"
);
}
);
width = 383;
}
);
},
{
glyphname = uni0720.Init;
lastChange = "2018-09-11 18:35:11 +0000";
layers = (
{
anchors = (
{
name = Anchor6;
position = "{169, -98}";
},
{
name = Anchor8;
position = "{-28, 812}";
}
);
layerId = UUID0;
paths = (
{
closed = 1;
nodes = (
"229 0 LINE SMOOTH",
"261 0 OFFCURVE",
"277 24 OFFCURVE",
"277 59 CURVE SMOOTH",
"277 88 OFFCURVE",
"269 119 OFFCURVE",
"254 166 CURVE SMOOTH",
"223 263 OFFCURVE",
"80 655 OFFCURVE",
"41 753 CURVE",
"-31 725 LINE",
"62 483 OFFCURVE",
"162 216 OFFCURVE",
"204 76 CURVE",
"0 76 LINE SMOOTH",
"-21 76 OFFCURVE",
"-39 61 OFFCURVE",
"-39 38 CURVE SMOOTH",
"-39 14 OFFCURVE",
"-21 0 OFFCURVE",
"0 0 CURVE SMOOTH"
);
}
);
width = 341;
}
);
},
{
glyphname = uni0720.Init.SYRJ;
lastChange = "2018-09-11 18:35:11 +0000";
layers = (
{
anchors = (
{
name = Anchor120;
position = "{192, -98}";
},
{
name = Anchor122;
position = "{-57, 752}";
}
);
layerId = UUID0;
paths = (
{
closed = 1;
nodes = (
"-57 693 LINE",
"-114 642 LINE",
"373 87 LINE",
"355 77 OFFCURVE",
"331 76 OFFCURVE",
"306 76 CURVE SMOOTH",
"0 76 LINE SMOOTH",
"-21 76 OFFCURVE",
"-39 61 OFFCURVE",
"-39 38 CURVE SMOOTH",
"-39 14 OFFCURVE",
"-21 0 OFFCURVE",
"0 0 CURVE SMOOTH",
"295 0 LINE SMOOTH",
"363 0 OFFCURVE",
"400 10 OFFCURVE",
"420 33 CURVE",
"459 -12 LINE",
"518 38 LINE"
);
}
);
width = 566;
}
);
},
{
glyphname = uni0720.Init.SYRN;
lastChange = "2018-09-11 18:35:11 +0000";
layers = (
{
anchors = (
{
name = Anchor64;
position = "{169, -98}";
},
{
name = Anchor66;
position = "{-9, 773}";
}
);
layerId = UUID0;
paths = (
{
closed = 1;
nodes = (
"323 0 LINE",
"369 69 LINE",
"47 693 LINE",
"-23 659 LINE",
"277 76 LINE",
"0 76 LINE SMOOTH",
"-21 76 OFFCURVE",
"-39 61 OFFCURVE",
"-39 38 CURVE SMOOTH",
"-39 14 OFFCURVE",
"-21 0 OFFCURVE",
"0 0 CURVE SMOOTH"
);
}
);
width = 418;
}
);
},
{
glyphname = uni0721;
lastChange = "2018-09-11 18:35:11 +0000";
layers = (
{
anchors = (
{
name = Anchor6;
position = "{607, -98}";
},
{
name = Anchor8;
position = "{482, 537}";
}
);
layerId = UUID0;
paths = (
{
closed = 1;
nodes = (
"635 0 LINE SMOOTH",
"772 0 OFFCURVE",
"816 66 OFFCURVE",
"816 182 CURVE SMOOTH",
"816 242 OFFCURVE",
"810 290 OFFCURVE",
"798 324 CURVE SMOOTH",
"772 400 OFFCURVE",
"706 427 OFFCURVE",
"625 427 CURVE SMOOTH",
"591 427 OFFCURVE",
"491 415 OFFCURVE",
"429 415 CURVE SMOOTH",
"293 415 OFFCURVE",
"167 443 OFFCURVE",
"85 475 CURVE",
"59 405 LINE",
"99 383 OFFCURVE",
"254 346 OFFCURVE",
"414 343 CURVE",
"409 306 OFFCURVE",
"407 255 OFFCURVE",
"403 217 CURVE SMOOTH",
"386 66 OFFCURVE",
"327 -35 OFFCURVE",
"224 -147 CURVE",
"270 -185 LINE",
"352 -106 OFFCURVE",
"421 -8 OFFCURVE",
"443 97 CURVE",
"447 97 LINE",
"464 42 OFFCURVE",
"523 0 OFFCURVE",
"604 0 CURVE SMOOTH"
);
},
{
closed = 1;
nodes = (
"611 76 LINE SMOOTH",
"558 76 OFFCURVE",
"524 93 OFFCURVE",
"503 125 CURVE SMOOTH",
"480 160 OFFCURVE",
"476 195 OFFCURVE",
"476 260 CURVE SMOOTH",
"476 273 OFFCURVE",
"479 323 OFFCURVE",
"483 343 CURVE",
"542 347 OFFCURVE",
"589 354 OFFCURVE",
"630 354 CURVE SMOOTH",
"717 354 OFFCURVE",
"743 308 OFFCURVE",
"743 182 CURVE SMOOTH",
"743 112 OFFCURVE",
"724 76 OFFCURVE",
"655 76 CURVE SMOOTH"
);
}
);
width = 885;
}
);
unicode = 0721;
},
{
glyphname = uni0721.SYRJ;
lastChange = "2018-09-11 18:35:11 +0000";
layers = (
{
anchors = (
{
name = Anchor120;
position = "{421, -98}";
},
{
name = Anchor122;
position = "{352, 520}";
}
);
layerId = UUID0;
paths = (
{
closed = 1;
nodes = (
"287 422 OFFCURVE",
"212 375 OFFCURVE",
"189 301 CURVE",
"184 301 LINE",
"163 355 OFFCURVE",
"139 406 OFFCURVE",
"109 448 CURVE",
"49 406 LINE",
"127 264 OFFCURVE",
"172 158 OFFCURVE",
"172 -22 CURVE SMOOTH",
"172 -176 OFFCURVE",
"130 -310 OFFCURVE",
"101 -381 CURVE",
"171 -399 LINE",
"221 -288 OFFCURVE",
"243 -171 OFFCURVE",
"243 -55 CURVE SMOOTH",
"243 -7 OFFCURVE",
"237 35 OFFCURVE",
"229 69 CURVE",
"233 70 LINE",
"266 21 OFFCURVE",
"312 -4 OFFCURVE",
"383 -4 CURVE SMOOTH",
"497 -4 OFFCURVE",
"595 72 OFFCURVE",
"595 209 CURVE SMOOTH",
"595 330 OFFCURVE",
"517 422 OFFCURVE",
"375 422 CURVE SMOOTH"
);
},
{
closed = 1;
nodes = (
"277 69 OFFCURVE",
"222 165 OFFCURVE",
"222 224 CURVE SMOOTH",
"222 296 OFFCURVE",
"287 349 OFFCURVE",
"375 349 CURVE SMOOTH",
"472 349 OFFCURVE",
"521 294 OFFCURVE",
"521 210 CURVE SMOOTH",
"521 117 OFFCURVE",
"459 69 OFFCURVE",
"383 69 CURVE SMOOTH"
);
}
);
width = 653;
}
);
},
{
glyphname = uni0721.SYRN;
lastChange = "2018-09-11 18:35:11 +0000";
layers = (
{
anchors = (
{
name = Anchor64;
position = "{435, -99}";
},
{
name = Anchor66;
position = "{429, 523}";
}
);
layerId = UUID0;
paths = (
{
closed = 1;
nodes = (
"597 0 LINE",
"636 54 LINE",
"636 426 LINE",
"271 426 LINE SMOOTH",
"189 426 OFFCURVE",
"111 430 OFFCURVE",
"49 438 CURVE",
"49 367 LINE",
"118 356 OFFCURVE",
"201 353 OFFCURVE",
"274 353 CURVE SMOOTH",
"282 353 LINE",
"132 -139 LINE",
"199 -156 LINE",
"265 59 LINE",
"288 8 OFFCURVE",
"365 0 OFFCURVE",
"420 0 CURVE SMOOTH"
);
},
{
closed = 1;
nodes = (
"428 76 LINE SMOOTH",
"377 76 OFFCURVE",
"297 78 OFFCURVE",
"290 140 CURVE",
"354 353 LINE",
"563 353 LINE",
"563 76 LINE"
);
}
);
width = 705;
}
);
},
{
glyphname = uni0721.Fina;
lastChange = "2018-09-11 18:35:11 +0000";
layers = (
{
anchors = (
{
name = Anchor6;
position = "{606, -98}";
},
{
name = Anchor8;
position = "{483, 537}";
}
);
layerId = UUID0;
paths = (
{
closed = 1;
nodes = (
"894 76 LINE",
"790 76 LINE",
"790 78 LINE",
"810 101 OFFCURVE",
"816 144 OFFCURVE",
"816 182 CURVE SMOOTH",
"816 242 OFFCURVE",
"810 290 OFFCURVE",
"798 324 CURVE SMOOTH",
"772 400 OFFCURVE",
"706 427 OFFCURVE",
"625 427 CURVE SMOOTH",
"591 427 OFFCURVE",
"491 415 OFFCURVE",
"429 415 CURVE SMOOTH",
"293 415 OFFCURVE",
"167 443 OFFCURVE",
"85 475 CURVE",
"59 404 LINE",
"99 382 OFFCURVE",
"254 346 OFFCURVE",
"414 343 CURVE",
"409 306 OFFCURVE",
"407 255 OFFCURVE",
"403 217 CURVE SMOOTH",
"386 66 OFFCURVE",
"327 -35 OFFCURVE",
"224 -147 CURVE",
"270 -185 LINE",
"352 -106 OFFCURVE",
"421 -8 OFFCURVE",
"443 97 CURVE",
"447 97 LINE",
"464 42 OFFCURVE",
"523 0 OFFCURVE",
"604 0 CURVE SMOOTH",
"894 0 LINE"
);
},
{
closed = 1;
nodes = (
"611 76 LINE SMOOTH",
"558 76 OFFCURVE",
"524 93 OFFCURVE",
"503 125 CURVE SMOOTH",
"480 160 OFFCURVE",
"476 195 OFFCURVE",
"476 260 CURVE SMOOTH",
"476 273 OFFCURVE",
"479 323 OFFCURVE",
"483 343 CURVE",
"542 347 OFFCURVE",
"589 354 OFFCURVE",
"630 354 CURVE SMOOTH",
"717 354 OFFCURVE",
"743 308 OFFCURVE",
"743 182 CURVE SMOOTH",
"743 112 OFFCURVE",
"724 76 OFFCURVE",
"655 76 CURVE SMOOTH"
);
}
);
width = 894;
}
);
},
{
glyphname = uni0721.Fina.SYRJ;
lastChange = "2018-09-11 18:35:11 +0000";
layers = (
{
anchors = (
{
name = Anchor120;
position = "{423, -98}";
},
{
name = Anchor122;
position = "{352, 519}";
}
);
layerId = UUID0;
paths = (
{
closed = 1;
nodes = (
"634 76 LINE SMOOTH",
"612 76 OFFCURVE",
"561 74 OFFCURVE",
"542 72 CURVE",
"542 77 LINE",
"576 108 OFFCURVE",
"595 152 OFFCURVE",
"595 209 CURVE SMOOTH",
"595 330 OFFCURVE",
"517 422 OFFCURVE",
"375 422 CURVE SMOOTH",
"292 422 OFFCURVE",
"215 380 OFFCURVE",
"189 301 CURVE",
"184 301 LINE",
"155 375 OFFCURVE",
"121 433 OFFCURVE",
"109 448 CURVE",
"49 406 LINE",
"127 264 OFFCURVE",
"172 158 OFFCURVE",
"172 -22 CURVE SMOOTH",
"172 -176 OFFCURVE",
"130 -310 OFFCURVE",
"101 -381 CURVE",
"171 -399 LINE",
"221 -288 OFFCURVE",
"243 -171 OFFCURVE",
"243 -55 CURVE SMOOTH",
"243 -7 OFFCURVE",
"237 35 OFFCURVE",
"229 69 CURVE",
"234 71 LINE",
"271 24 OFFCURVE",
"328 0 OFFCURVE",
"422 0 CURVE SMOOTH",
"668 0 LINE",
"668 76 LINE"
);
},
{
closed = 1;
nodes = (
"277 74 OFFCURVE",
"222 165 OFFCURVE",
"222 224 CURVE SMOOTH",
"222 296 OFFCURVE",
"287 349 OFFCURVE",
"375 349 CURVE SMOOTH",
"472 349 OFFCURVE",
"521 294 OFFCURVE",
"521 210 CURVE SMOOTH",
"521 116 OFFCURVE",
"459 74 OFFCURVE",
"383 74 CURVE SMOOTH"
);
}
);
width = 668;
}
);
},
{
glyphname = uni0721.Fina.SYRN;
lastChange = "2018-09-11 18:35:11 +0000";
layers = (
{
anchors = (
{
name = Anchor64;
position = "{436, -99}";
},
{
name = Anchor66;
position = "{429, 525}";
}
);
layerId = UUID0;
paths = (
{
closed = 1;
nodes = (
"741 0 LINE",
"741 76 LINE",
"691 76 LINE SMOOTH",
"647 76 OFFCURVE",
"636 88 OFFCURVE",
"636 135 CURVE SMOOTH",
"636 426 LINE",
"271 426 LINE SMOOTH",
"189 426 OFFCURVE",
"111 430 OFFCURVE",
"49 438 CURVE",
"49 367 LINE",
"118 356 OFFCURVE",
"201 353 OFFCURVE",
"274 353 CURVE SMOOTH",
"282 353 LINE",
"132 -139 LINE",
"199 -156 LINE",
"265 59 LINE",
"288 8 OFFCURVE",
"365 0 OFFCURVE",
"420 0 CURVE SMOOTH",
"563 0 LINE",
"581 45 LINE",
"583 45 LINE",
"600 16 OFFCURVE",
"631 0 OFFCURVE",
"680 0 CURVE SMOOTH"
);
},
{
closed = 1;
nodes = (
"563 128 LINE SMOOTH",
"563 108 OFFCURVE",
"565 91 OFFCURVE",
"569 76 CURVE",
"428 76 LINE SMOOTH",
"377 76 OFFCURVE",
"297 78 OFFCURVE",
"290 140 CURVE",
"354 353 LINE",
"563 353 LINE"
);
}
);
width = 741;
}
);
},
{
glyphname = uni0721.Medi;
lastChange = "2018-09-11 18:35:11 +0000";
layers = (
{
anchors = (
{
name = Anchor6;
position = "{465, -97}";
},
{
name = Anchor8;
position = "{482, 525}";
}
);
layerId = UUID0;
paths = (
{
closed = 1;
nodes = (
"896 76 LINE",
"793 76 LINE",
"793 78 LINE",
"809 109 OFFCURVE",
"814 136 OFFCURVE",
"814 178 CURVE SMOOTH",
"814 236 OFFCURVE",
"806 288 OFFCURVE",
"796 317 CURVE SMOOTH",
"769 396 OFFCURVE",
"701 428 OFFCURVE",
"620 428 CURVE SMOOTH",
"562 428 OFFCURVE",
"487 411 OFFCURVE",
"389 411 CURVE SMOOTH",
"239 411 OFFCURVE",
"171 432 OFFCURVE",
"93 470 CURVE",
"63 400 LINE",
"100 372 OFFCURVE",
"195 337 OFFCURVE",
"370 337 CURVE SMOOTH",
"395 337 OFFCURVE",
"429 339 OFFCURVE",
"453 340 CURVE",
"420 193 OFFCURVE",
"372 76 OFFCURVE",
"180 76 CURVE SMOOTH",
"0 76 LINE SMOOTH",
"-21 76 OFFCURVE",
"-39 61 OFFCURVE",
"-39 38 CURVE SMOOTH",
"-39 14 OFFCURVE",
"-21 0 OFFCURVE",
"0 0 CURVE SMOOTH",
"172 0 LINE SMOOTH",
"431 0 OFFCURVE",
"491 164 OFFCURVE",
"526 346 CURVE",
"554 351 OFFCURVE",
"584 354 OFFCURVE",
"625 354 CURVE SMOOTH",
"673 354 OFFCURVE",
"710 331 OFFCURVE",
"724 298 CURVE SMOOTH",
"735 271 OFFCURVE",
"741 228 OFFCURVE",
"741 167 CURVE SMOOTH",
"741 99 OFFCURVE",
"710 57 OFFCURVE",
"646 57 CURVE SMOOTH",
"607 57 OFFCURVE",
"561 74 OFFCURVE",
"512 102 CURVE",
"479 46 LINE",
"519 17 OFFCURVE",
"583 -14 OFFCURVE",
"644 -14 CURVE SMOOTH",
"674 -14 OFFCURVE",
"700 -9 OFFCURVE",
"721 0 CURVE",
"896 0 LINE"
);
}
);
width = 896;
}
);
},
{
glyphname = uni0721.Medi.SYRJ;
lastChange = "2018-09-11 18:35:11 +0000";
layers = (
{
anchors = (
{
name = Anchor120;
position = "{377, -98}";
},
{
name = Anchor122;
position = "{385, 507}";
}
);
layerId = UUID0;
paths = (
{
closed = 1;
nodes = (
"6 404 LINE",
"278 109 LINE",
"274 77 OFFCURVE",
"218 76 OFFCURVE",
"195 76 CURVE SMOOTH",
"0 76 LINE SMOOTH",
"-21 76 OFFCURVE",
"-39 61 OFFCURVE",
"-39 38 CURVE SMOOTH",
"-39 14 OFFCURVE",
"-21 0 OFFCURVE",
"0 0 CURVE SMOOTH",
"185 0 LINE SMOOTH",
"274 0 OFFCURVE",
"314 22 OFFCURVE",
"333 61 CURVE",
"335 61 LINE",
"380 18 OFFCURVE",
"439 0 OFFCURVE",
"517 0 CURVE SMOOTH",
"763 0 LINE",
"763 76 LINE",
"733 76 LINE SMOOTH",
"711 76 OFFCURVE",
"670 75 OFFCURVE",
"646 74 CURVE",
"646 77 LINE",
"671 104 OFFCURVE",
"691 145 OFFCURVE",
"691 195 CURVE SMOOTH",
"691 310 OFFCURVE",
"602 405 OFFCURVE",
"466 405 CURVE SMOOTH",
"385 405 OFFCURVE",
"293 366 OFFCURVE",
"272 253 CURVE SMOOTH",
"270 243 OFFCURVE",
"269 232 OFFCURVE",
"268 220 CURVE",
"265 220 LINE",
"255 235 OFFCURVE",
"241 254 OFFCURVE",
"219 279 CURVE SMOOTH",
"64 455 LINE"
);
},
{
closed = 1;
nodes = (
"404 74 OFFCURVE",
"333 147 OFFCURVE",
"333 206 CURVE SMOOTH",
"333 292 OFFCURVE",
"396 332 OFFCURVE",
"466 332 CURVE SMOOTH",
"558 332 OFFCURVE",
"618 272 OFFCURVE",
"618 192 CURVE SMOOTH",
"618 107 OFFCURVE",
"559 74 OFFCURVE",
"493 74 CURVE SMOOTH"
);
}
);
width = 763;
}
);
},
{
glyphname = uni0721.Medi.SYRN;
lastChange = "2018-09-11 18:35:11 +0000";
layers = (
{
anchors = (
{
name = Anchor64;
position = "{355, -98}";
},
{
name = Anchor66;
position = "{494, 527}";
}
);
layerId = UUID0;
paths = (
{
closed = 1;
nodes = (
"761 0 LINE",
"761 76 LINE",
"746 76 LINE SMOOTH",
"711 76 OFFCURVE",
"689 87 OFFCURVE",
"682 114 CURVE",
"689 135 OFFCURVE",
"692 159 OFFCURVE",
"692 185 CURVE SMOOTH",
"692 252 OFFCURVE",
"674 306 OFFCURVE",
"637 349 CURVE SMOOTH",
"600 391 OFFCURVE",
"553 414 OFFCURVE",
"492 414 CURVE SMOOTH",
"438 414 OFFCURVE",
"389 395 OFFCURVE",
"353 361 CURVE SMOOTH",
"333 342 OFFCURVE",
"318 319 OFFCURVE",
"306 291 CURVE",
"212 362 LINE SMOOTH",
"132 423 OFFCURVE",
"99 456 OFFCURVE",
"75 480 CURVE",
"26 424 LINE",
"55 395 OFFCURVE",
"111 345 OFFCURVE",
"195 282 CURVE SMOOTH",
"286 214 LINE",
"285 205 OFFCURVE",
"285 195 OFFCURVE",
"285 185 CURVE SMOOTH",
"285 142 OFFCURVE",
"294 105 OFFCURVE",
"312 76 CURVE",
"0 76 LINE SMOOTH",
"-21 76 OFFCURVE",
"-39 61 OFFCURVE",
"-39 38 CURVE SMOOTH",
"-39 14 OFFCURVE",
"-21 0 OFFCURVE",
"0 0 CURVE SMOOTH",
"317 0 LINE",
"334 46 LINE",
"336 46 LINE",
"371 12 OFFCURVE",
"422 -5 OFFCURVE",
"488 -5 CURVE SMOOTH",
"555 -5 OFFCURVE",
"605 13 OFFCURVE",
"640 46 CURVE",
"643 46 LINE",
"664 15 OFFCURVE",
"699 0 OFFCURVE",
"746 0 CURVE SMOOTH"
);
},
{
closed = 1;
nodes = (
"621 108 OFFCURVE",
"580 66 OFFCURVE",
"488 66 CURVE SMOOTH",
"396 66 OFFCURVE",
"354 108 OFFCURVE",
"354 187 CURVE SMOOTH",
"354 275 OFFCURVE",
"408 342 OFFCURVE",
"488 342 CURVE SMOOTH",
"568 342 OFFCURVE",
"621 279 OFFCURVE",
"621 187 CURVE SMOOTH"
);
}
);
width = 761;
}
);
},
{
glyphname = uni0721.Init;
lastChange = "2018-09-11 18:35:11 +0000";
layers = (
{
anchors = (
{
name = Anchor6;
position = "{465, -97}";
},
{
name = Anchor8;
position = "{484, 525}";
}
);
layerId = UUID0;
paths = (
{
closed = 1;
nodes = (
"479 46 LINE",
"519 17 OFFCURVE",
"583 -14 OFFCURVE",
"644 -14 CURVE SMOOTH",
"739 -14 OFFCURVE",
"814 39 OFFCURVE",
"814 178 CURVE SMOOTH",
"814 236 OFFCURVE",
"806 288 OFFCURVE",
"796 317 CURVE SMOOTH",
"769 396 OFFCURVE",
"701 428 OFFCURVE",
"620 428 CURVE SMOOTH",
"562 428 OFFCURVE",
"487 411 OFFCURVE",
"389 411 CURVE SMOOTH",
"239 411 OFFCURVE",
"171 432 OFFCURVE",
"93 470 CURVE",
"63 399 LINE",
"100 371 OFFCURVE",
"195 337 OFFCURVE",
"370 337 CURVE SMOOTH",
"395 337 OFFCURVE",
"429 339 OFFCURVE",
"453 340 CURVE",
"420 193 OFFCURVE",
"372 76 OFFCURVE",
"180 76 CURVE SMOOTH",
"0 76 LINE SMOOTH",
"-21 76 OFFCURVE",
"-39 61 OFFCURVE",
"-39 38 CURVE SMOOTH",
"-39 14 OFFCURVE",
"-21 0 OFFCURVE",
"0 0 CURVE SMOOTH",
"172 0 LINE SMOOTH",
"431 0 OFFCURVE",
"491 164 OFFCURVE",
"526 345 CURVE",
"554 351 OFFCURVE",
"584 354 OFFCURVE",
"625 354 CURVE SMOOTH",
"673 354 OFFCURVE",
"710 331 OFFCURVE",
"724 298 CURVE SMOOTH",
"735 271 OFFCURVE",
"741 228 OFFCURVE",
"741 167 CURVE SMOOTH",
"741 99 OFFCURVE",
"710 57 OFFCURVE",
"646 57 CURVE SMOOTH",
"607 57 OFFCURVE",
"561 74 OFFCURVE",
"512 102 CURVE"
);
}
);
width = 880;
}
);
},
{
glyphname = uni0721.Init.SYRJ;
lastChange = "2018-09-11 18:35:11 +0000";
layers = (
{
anchors = (
{
name = Anchor120;
position = "{375, -98}";
},
{
name = Anchor122;
position = "{385, 507}";
}
);
layerId = UUID0;
paths = (
{
closed = 1;
nodes = (
"6 404 LINE",
"278 109 LINE",
"274 77 OFFCURVE",
"218 76 OFFCURVE",
"195 76 CURVE SMOOTH",
"0 76 LINE SMOOTH",
"-21 76 OFFCURVE",
"-39 61 OFFCURVE",
"-39 38 CURVE SMOOTH",
"-39 14 OFFCURVE",
"-21 0 OFFCURVE",
"0 0 CURVE SMOOTH",
"185 0 LINE SMOOTH",
"274 0 OFFCURVE",
"315 22 OFFCURVE",
"333 61 CURVE",
"336 61 LINE",
"379 20 OFFCURVE",
"437 0 OFFCURVE",
"502 0 CURVE SMOOTH",
"624 0 OFFCURVE",
"691 86 OFFCURVE",
"691 190 CURVE SMOOTH",
"691 308 OFFCURVE",
"602 405 OFFCURVE",
"466 405 CURVE SMOOTH",
"385 405 OFFCURVE",
"293 366 OFFCURVE",
"272 253 CURVE SMOOTH",
"270 243 OFFCURVE",
"269 232 OFFCURVE",
"268 220 CURVE",
"265 220 LINE",
"255 235 OFFCURVE",
"241 254 OFFCURVE",
"219 279 CURVE SMOOTH",
"64 455 LINE"
);
},
{
closed = 1;
nodes = (
"404 74 OFFCURVE",
"333 147 OFFCURVE",
"333 206 CURVE SMOOTH",
"333 292 OFFCURVE",
"396 332 OFFCURVE",
"466 332 CURVE SMOOTH",
"558 332 OFFCURVE",
"618 272 OFFCURVE",
"618 192 CURVE SMOOTH",
"618 107 OFFCURVE",
"559 74 OFFCURVE",
"493 74 CURVE SMOOTH"
);
}
);
width = 741;
}
);
},
{
glyphname = uni0721.Init.SYRN;
lastChange = "2018-09-11 18:35:11 +0000";
layers = (
{
anchors = (
{
name = Anchor64;
position = "{355, -98}";
},
{
name = Anchor66;
position = "{492, 525}";
}
);
layerId = UUID0;
paths = (
{
closed = 1;
nodes = (
"316 0 LINE",
"334 46 LINE",
"336 46 LINE",
"371 13 OFFCURVE",
"420 -5 OFFCURVE",
"488 -5 CURVE SMOOTH",
"617 -5 OFFCURVE",
"692 65 OFFCURVE",
"692 185 CURVE SMOOTH",
"692 252 OFFCURVE",
"674 306 OFFCURVE",
"637 349 CURVE SMOOTH",
"600 391 OFFCURVE",
"553 414 OFFCURVE",
"492 414 CURVE SMOOTH",
"437 414 OFFCURVE",
"389 396 OFFCURVE",
"353 361 CURVE SMOOTH",
"334 342 OFFCURVE",
"318 319 OFFCURVE",
"306 291 CURVE",
"212 362 LINE SMOOTH",
"132 423 OFFCURVE",
"99 456 OFFCURVE",
"75 480 CURVE",
"26 424 LINE",
"55 395 OFFCURVE",
"111 345 OFFCURVE",
"195 282 CURVE SMOOTH",
"286 214 LINE",
"285 205 OFFCURVE",
"285 195 OFFCURVE",
"285 185 CURVE SMOOTH",
"285 142 OFFCURVE",
"294 105 OFFCURVE",
"312 76 CURVE",
"0 76 LINE SMOOTH",
"-21 76 OFFCURVE",
"-39 61 OFFCURVE",
"-39 38 CURVE SMOOTH",
"-39 14 OFFCURVE",
"-21 0 OFFCURVE",
"0 0 CURVE SMOOTH"
);
},
{
closed = 1;
nodes = (
"621 108 OFFCURVE",
"580 66 OFFCURVE",
"488 66 CURVE SMOOTH",
"396 66 OFFCURVE",
"354 108 OFFCURVE",
"354 187 CURVE SMOOTH",
"354 275 OFFCURVE",
"408 342 OFFCURVE",
"488 342 CURVE SMOOTH",
"568 342 OFFCURVE",
"621 279 OFFCURVE",
"621 187 CURVE SMOOTH"
);
}
);
width = 761;
}
);
},
{
glyphname = uni0722;
lastChange = "2018-09-11 18:35:11 +0000";
layers = (
{
anchors = (
{
name = Anchor6;
position = "{150, -161}";
},
{
name = Anchor8;
position = "{197, 301}";
}
);
layerId = UUID0;
paths = (
{
closed = 1;
nodes = (
"1102 -223 LINE",
"799 -146 OFFCURVE",
"728 -122 OFFCURVE",
"437 -23 CURVE SMOOTH",
"395 -9 OFFCURVE",
"293 29 OFFCURVE",
"237 56 CURVE SMOOTH",
"205 72 OFFCURVE",
"125 110 OFFCURVE",
"99 110 CURVE SMOOTH",
"78 110 OFFCURVE",
"59 93 OFFCURVE",
"59 65 CURVE SMOOTH",
"59 49 OFFCURVE",
"66 33 OFFCURVE",
"91 20 CURVE SMOOTH",
"141 -7 OFFCURVE",
"238 -39 OFFCURVE",
"359 -78 CURVE SMOOTH",
"614 -161 OFFCURVE",
"844 -232 OFFCURVE",
"1082 -288 CURVE"
);
}
);
width = 678;
}
);
unicode = 0722;
},
{
glyphname = uni0722.SYRJ;
lastChange = "2018-09-11 18:35:11 +0000";
layers = (
{
anchors = (
{
name = Anchor120;
position = "{177, -370}";
},
{
name = Anchor122;
position = "{164, 365}";
}
);
layerId = UUID0;
paths = (
{
closed = 1;
nodes = (
"468 -343 LINE",
"329 -166 OFFCURVE",
"200 19 OFFCURVE",
"93 179 CURVE",
"28 137 LINE",
"112 1 OFFCURVE",
"323 -287 OFFCURVE",
"408 -384 CURVE"
);
}
);
width = 332;
}
);
},
{
glyphname = uni0722.SYRN;
lastChange = "2018-09-11 18:35:11 +0000";
layers = (
{
anchors = (
{
name = Anchor64;
position = "{179, -184}";
},
{
name = Anchor66;
position = "{174, 301}";
}
);
layerId = UUID0;
paths = (
{
closed = 1;
nodes = (
"670 -381 LINE",
"713 -330 LINE",
"641 -264 OFFCURVE",
"575 -208 OFFCURVE",
"508 -154 CURVE SMOOTH",
"366 -38 OFFCURVE",
"309 9 OFFCURVE",
"254 53 CURVE SMOOTH",
"137 145 LINE",
"60 53 LINE",
"145 -17 LINE",
"177 20 LINE"
);
}
);
width = 427;
}
);
},
{
glyphname = uni0722.Fina;
lastChange = "2018-09-11 18:35:11 +0000";
layers = (
{
anchors = (
{
name = Anchor6;
position = "{123, -391}";
},
{
name = Anchor8;
position = "{110, 286}";
}
);
layerId = UUID0;
paths = (
{
closed = 1;
nodes = (
"376 -376 LINE",
"294 -271 OFFCURVE",
"169 -79 OFFCURVE",
"133 22 CURVE",
"136 25 LINE",
"172 12 OFFCURVE",
"231 0 OFFCURVE",
"278 0 CURVE",
"278 76 LINE",
"222 76 OFFCURVE",
"185 83 OFFCURVE",
"140 93 CURVE SMOOTH",
"134 94 OFFCURVE",
"119 98 OFFCURVE",
"112 98 CURVE SMOOTH",
"82 98 OFFCURVE",
"62 74 OFFCURVE",
"62 35 CURVE SMOOTH",
"62 10 OFFCURVE",
"67 -9 OFFCURVE",
"73 -25 CURVE SMOOTH",
"112 -131 OFFCURVE",
"219 -285 OFFCURVE",
"322 -415 CURVE"
);
}
);
width = 278;
}
);
},
{
glyphname = uni0722.Fina.SYRJ;
lastChange = "2018-09-11 18:35:11 +0000";
layers = (
{
anchors = (
{
name = Anchor120;
position = "{130, -412}";
},
{
name = Anchor122;
position = "{132, 332}";
}
);
layerId = UUID0;
paths = (
{
closed = 1;
nodes = (
"406 -367 LINE",
"305 -249 OFFCURVE",
"168 -63 OFFCURVE",
"107 25 CURVE",
"114 29 LINE",
"145 4 OFFCURVE",
"194 0 OFFCURVE",
"243 0 CURVE SMOOTH",
"252 0 LINE",
"252 76 LINE",
"242 76 LINE SMOOTH",
"203 76 OFFCURVE",
"186 79 OFFCURVE",
"170 84 CURVE SMOOTH",
"161 87 OFFCURVE",
"148 92 OFFCURVE",
"120 119 CURVE SMOOTH",
"100 139 OFFCURVE",
"88 143 OFFCURVE",
"69 143 CURVE SMOOTH",
"35 143 OFFCURVE",
"20 108 OFFCURVE",
"20 70 CURVE SMOOTH",
"20 45 OFFCURVE",
"32 7 OFFCURVE",
"52 -23 CURVE SMOOTH",
"121 -125 OFFCURVE",
"258 -301 OFFCURVE",
"351 -405 CURVE"
);
}
);
width = 252;
}
);
},
{
glyphname = uni0722.Fina.SYRN;
lastChange = "2018-09-11 18:35:11 +0000";
layers = (
{
anchors = (
{
name = Anchor64;
position = "{151, -444}";
},
{
name = Anchor66;
position = "{121, 323}";
}
);
layerId = UUID0;
paths = (
{
closed = 1;
nodes = (
"272 -351 LINE",
"213 -278 OFFCURVE",
"173 -214 OFFCURVE",
"152 -159 CURVE SMOOTH",
"131 -105 OFFCURVE",
"120 -49 OFFCURVE",
"120 8 CURVE SMOOTH",
"120 17 OFFCURVE",
"120 28 OFFCURVE",
"122 41 CURVE",
"126 41 LINE",
"157 17 OFFCURVE",
"202 0 OFFCURVE",
"266 0 CURVE",
"266 76 LINE",
"202 76 OFFCURVE",
"165 93 OFFCURVE",
"130 126 CURVE",
"70 126 LINE",
"58 93 OFFCURVE",
"49 35 OFFCURVE",
"49 -1 CURVE SMOOTH",
"49 -145 OFFCURVE",
"107 -281 OFFCURVE",
"222 -392 CURVE"
);
}
);
width = 266;
}
);
},
{
glyphname = uni0722.Medi;
lastChange = "2018-09-11 18:35:11 +0000";
layers = (
{
anchors = (
{
name = Anchor6;
position = "{149, -97}";
},
{
name = Anchor8;
position = "{116, 537}";
}
);
layerId = UUID0;
paths = (
{
closed = 1;
nodes = (
"296 76 LINE",
"261 76 OFFCURVE",
"231 79 OFFCURVE",
"221 136 CURVE SMOOTH",
"206 220 OFFCURVE",
"189 326 OFFCURVE",
"173 426 CURVE",
"100 415 LINE",
"115 310 OFFCURVE",
"127 239 OFFCURVE",
"143 149 CURVE SMOOTH",
"145 135 OFFCURVE",
"152 108 OFFCURVE",
"157 92 CURVE",
"137 79 OFFCURVE",
"89 76 OFFCURVE",
"54 76 CURVE SMOOTH",
"0 76 LINE SMOOTH",
"-21 76 OFFCURVE",
"-39 61 OFFCURVE",
"-39 38 CURVE SMOOTH",
"-39 14 OFFCURVE",
"-21 0 OFFCURVE",
"0 0 CURVE SMOOTH",
"29 0 LINE SMOOTH",
"108 0 OFFCURVE",
"154 7 OFFCURVE",
"191 23 CURVE",
"195 23 LINE",
"213 4 OFFCURVE",
"259 0 OFFCURVE",
"296 0 CURVE"
);
}
);
width = 296;
}
);
},
{
glyphname = uni0722.Medi.SYRJ;
lastChange = "2018-09-11 18:35:11 +0000";
layers = (
{
anchors = (
{
name = Anchor120;
position = "{163, -98}";
},
{
name = Anchor122;
position = "{160, 490}";
}
);
layerId = UUID0;
paths = (
{
closed = 1;
nodes = (
"316 76 LINE",
"259 76 OFFCURVE",
"218 85 OFFCURVE",
"202 101 CURVE",
"213 137 OFFCURVE",
"215 179 OFFCURVE",
"215 229 CURVE SMOOTH",
"215 255 OFFCURVE",
"212 334 OFFCURVE",
"208 364 CURVE",
"138 358 LINE",
"141 325 OFFCURVE",
"142 251 OFFCURVE",
"142 243 CURVE SMOOTH",
"142 202 OFFCURVE",
"142 143 OFFCURVE",
"133 121 CURVE SMOOTH",
"121 92 OFFCURVE",
"101 76 OFFCURVE",
"60 76 CURVE SMOOTH",
"0 76 LINE SMOOTH",
"-21 76 OFFCURVE",
"-39 61 OFFCURVE",
"-39 38 CURVE SMOOTH",
"-39 14 OFFCURVE",
"-21 0 OFFCURVE",
"0 0 CURVE SMOOTH",
"39 0 LINE SMOOTH",
"92 0 OFFCURVE",
"138 12 OFFCURVE",
"169 42 CURVE",
"191 13 OFFCURVE",
"248 0 OFFCURVE",
"316 0 CURVE"
);
}
);
width = 316;
}
);
},
{
glyphname = uni0722.Medi.SYRN;
lastChange = "2018-09-11 18:35:11 +0000";
layers = (
{
anchors = (
{
name = Anchor64;
position = "{173, -98}";
},
{
name = Anchor66;
position = "{160, 523}";
}
);
layerId = UUID0;
paths = (
{
closed = 1;
nodes = (
"335 76 LINE",
"287 76 OFFCURVE",
"262 118 OFFCURVE",
"248 184 CURVE SMOOTH",
"236 241 OFFCURVE",
"228 353 OFFCURVE",
"228 407 CURVE SMOOTH",
"228 426 LINE",
"201 426 LINE SMOOTH",
"176 426 OFFCURVE",
"135 427 OFFCURVE",
"111 428 CURVE",
"111 355 LINE",
"133 353 OFFCURVE",
"146 353 OFFCURVE",
"151 353 CURVE SMOOTH",
"158 353 LINE",
"161 283 OFFCURVE",
"168 222 OFFCURVE",
"178 172 CURVE SMOOTH",
"186 133 OFFCURVE",
"196 100 OFFCURVE",
"208 76 CURVE",
"0 76 LINE SMOOTH",
"-21 76 OFFCURVE",
"-39 61 OFFCURVE",
"-39 38 CURVE SMOOTH",
"-39 14 OFFCURVE",
"-21 0 OFFCURVE",
"0 0 CURVE SMOOTH",
"208 0 LINE",
"225 46 LINE",
"227 46 LINE",
"254 13 OFFCURVE",
"286 0 OFFCURVE",
"335 0 CURVE"
);
}
);
width = 335;
}
);
},
{
glyphname = uni0722.Init;
lastChange = "2018-09-11 18:35:11 +0000";
layers = (
{
anchors = (
{
name = Anchor6;
position = "{132, -97}";
},
{
name = Anchor8;
position = "{117, 537}";
}
);
layerId = UUID0;
paths = (
{
closed = 1;
nodes = (
"224 166 OFFCURVE",
"189 333 OFFCURVE",
"168 426 CURVE",
"95 414 LINE",
"117 315 OFFCURVE",
"153 128 OFFCURVE",
"154 76 CURVE",
"128 76 OFFCURVE",
"103 76 OFFCURVE",
"77 76 CURVE SMOOTH",
"0 76 LINE SMOOTH",
"-21 76 OFFCURVE",
"-39 61 OFFCURVE",
"-39 38 CURVE SMOOTH",
"-39 14 OFFCURVE",
"-21 0 OFFCURVE",
"0 0 CURVE SMOOTH",
"139 0 LINE SMOOTH",
"173 0 OFFCURVE",
"194 10 OFFCURVE",
"207 26 CURVE SMOOTH",
"220 42 OFFCURVE",
"224 65 OFFCURVE",
"224 89 CURVE SMOOTH"
);
}
);
width = 291;
}
);
},
{
glyphname = uni0722.Init.SYRJ;
lastChange = "2018-09-11 18:35:11 +0000";
layers = (
{
anchors = (
{
name = Anchor120;
position = "{147, -98}";
},
{
name = Anchor122;
position = "{160, 491}";
}
);
layerId = UUID0;
paths = (
{
closed = 1;
nodes = (
"140 358 LINE",
"143 325 OFFCURVE",
"144 255 OFFCURVE",
"144 247 CURVE SMOOTH",
"144 226 OFFCURVE",
"144 155 OFFCURVE",
"134 130 CURVE SMOOTH",
"122 99 OFFCURVE",
"91 76 OFFCURVE",
"45 76 CURVE SMOOTH",
"0 76 LINE SMOOTH",
"-21 76 OFFCURVE",
"-39 61 OFFCURVE",
"-39 38 CURVE SMOOTH",
"-39 14 OFFCURVE",
"-21 0 OFFCURVE",
"0 0 CURVE SMOOTH",
"14 0 LINE SMOOTH",
"103 0 OFFCURVE",
"162 26 OFFCURVE",
"193 90 CURVE SMOOTH",
"209 123 OFFCURVE",
"217 166 OFFCURVE",
"217 221 CURVE SMOOTH",
"217 246 OFFCURVE",
"215 333 OFFCURVE",
"210 364 CURVE"
);
}
);
width = 297;
}
);
},
{
glyphname = uni0722.Init.SYRN;
lastChange = "2018-09-11 18:35:11 +0000";
layers = (
{
anchors = (
{
name = Anchor64;
position = "{173, -97}";
},
{
name = Anchor66;
position = "{161, 523}";
}
);
layerId = UUID0;
paths = (
{
closed = 1;
nodes = (
"271 0 LINE",
"295 54 LINE",
"275 99 OFFCURVE",
"260 146 OFFCURVE",
"249 193 CURVE SMOOTH",
"235 252 OFFCURVE",
"228 313 OFFCURVE",
"228 371 CURVE SMOOTH",
"228 426 LINE",
"201 426 LINE SMOOTH",
"176 426 OFFCURVE",
"135 427 OFFCURVE",
"111 428 CURVE",
"111 355 LINE",
"133 353 OFFCURVE",
"146 353 OFFCURVE",
"151 353 CURVE SMOOTH",
"158 353 LINE",
"162 290 OFFCURVE",
"167 230 OFFCURVE",
"180 174 CURVE SMOOTH",
"188 140 OFFCURVE",
"198 108 OFFCURVE",
"211 76 CURVE",
"0 76 LINE SMOOTH",
"-21 76 OFFCURVE",
"-39 61 OFFCURVE",
"-39 38 CURVE SMOOTH",
"-39 14 OFFCURVE",
"-21 0 OFFCURVE",
"0 0 CURVE SMOOTH"
);
}
);
width = 364;
}
);
},
{
glyphname = uni0723;
lastChange = "2018-09-11 18:35:11 +0000";
layers = (
{
anchors = (
{
name = Anchor6;
position = "{458, -98}";
},
{
name = Anchor8;
position = "{458, 492}";
}
);
layerId = UUID0;
paths = (
{
closed = 1;
nodes = (
"535 0 LINE SMOOTH",
"727 0 OFFCURVE",
"818 36 OFFCURVE",
"818 208 CURVE SMOOTH",
"818 346 OFFCURVE",
"737 429 OFFCURVE",
"641 429 CURVE SMOOTH",
"566 429 OFFCURVE",
"495 391 OFFCURVE",
"459 300 CURVE",
"456 300 LINE",
"426 388 OFFCURVE",
"355 440 OFFCURVE",
"262 440 CURVE SMOOTH",
"158 440 OFFCURVE",
"68 359 OFFCURVE",
"68 221 CURVE SMOOTH",
"68 86 OFFCURVE",
"136 0 OFFCURVE",
"307 0 CURVE SMOOTH"
);
},
{
closed = 1;
nodes = (
"418 76 LINE",
"304 76 LINE SMOOTH",
"221 76 OFFCURVE",
"142 110 OFFCURVE",
"142 222 CURVE SMOOTH",
"142 320 OFFCURVE",
"199 367 OFFCURVE",
"263 367 CURVE SMOOTH",
"356 367 OFFCURVE",
"409 290 OFFCURVE",
"414 169 CURVE SMOOTH"
);
},
{
closed = 1;
nodes = (
"489 76 LINE",
"486 127 OFFCURVE",
"486 159 OFFCURVE",
"486 177 CURVE SMOOTH",
"486 295 OFFCURVE",
"565 355 OFFCURVE",
"633 355 CURVE SMOOTH",
"708 355 OFFCURVE",
"745 289 OFFCURVE",
"745 206 CURVE SMOOTH",
"745 99 OFFCURVE",
"687 76 OFFCURVE",
"574 76 CURVE SMOOTH"
);
}
);
width = 886;
}
);
unicode = 0723;
},
{
glyphname = uni0723.SYRJ;
lastChange = "2018-09-11 18:35:11 +0000";
layers = (
{
anchors = (
{
name = Anchor120;
position = "{551, -98}";
},
{
name = Anchor122;
position = "{681, 477}";
}
);
layerId = UUID0;
paths = (
{
closed = 1;
nodes = (
"794 0 LINE SMOOTH",
"929 0 OFFCURVE",
"1016 66 OFFCURVE",
"1016 203 CURVE SMOOTH",
"1016 322 OFFCURVE",
"941 403 OFFCURVE",
"827 403 CURVE SMOOTH",
"767 403 OFFCURVE",
"711 376 OFFCURVE",
"682 320 CURVE",
"679 320 LINE",
"647 370 OFFCURVE",
"592 399 OFFCURVE",
"521 399 CURVE SMOOTH",
"423 399 OFFCURVE",
"336 335 OFFCURVE",
"336 212 CURVE SMOOTH",
"336 156 OFFCURVE",
"352 113 OFFCURVE",
"385 78 CURVE",
"385 74 LINE",
"364 76 OFFCURVE",
"339 76 OFFCURVE",
"324 76 CURVE SMOOTH",
"287 76 LINE SMOOTH",
"173 76 OFFCURVE",
"127 125 OFFCURVE",
"127 198 CURVE SMOOTH",
"127 206 LINE",
"61 202 LINE",
"60 196 OFFCURVE",
"59 175 OFFCURVE",
"59 171 CURVE SMOOTH",
"59 62 OFFCURVE",
"142 0 OFFCURVE",
"278 0 CURVE SMOOTH"
);
},
{
closed = 1;
nodes = (
"450 76 OFFCURVE",
"407 138 OFFCURVE",
"407 216 CURVE SMOOTH",
"407 292 OFFCURVE",
"462 326 OFFCURVE",
"522 326 CURVE SMOOTH",
"609 326 OFFCURVE",
"652 266 OFFCURVE",
"652 168 CURVE SMOOTH",
"652 142 OFFCURVE",
"646 124 OFFCURVE",
"636 110 CURVE SMOOTH",
"614 79 OFFCURVE",
"571 76 OFFCURVE",
"534 76 CURVE SMOOTH"
);
},
{
closed = 1;
nodes = (
"782 76 OFFCURVE",
"751 83 OFFCURVE",
"731 110 CURVE SMOOTH",
"717 129 OFFCURVE",
"708 158 OFFCURVE",
"708 202 CURVE SMOOTH",
"708 295 OFFCURVE",
"773 330 OFFCURVE",
"827 330 CURVE SMOOTH",
"903 330 OFFCURVE",
"945 285 OFFCURVE",
"945 209 CURVE SMOOTH",
"945 110 OFFCURVE",
"875 76 OFFCURVE",
"812 76 CURVE SMOOTH"
);
}
);
width = 1075;
}
);
},
{
glyphname = uni0723.SYRN;
lastChange = "2018-09-11 18:35:11 +0000";
layers = (
{
anchors = (
{
name = Anchor64;
position = "{626, -98}";
},
{
name = Anchor66;
position = "{673, 519}";
}
);
layerId = UUID0;
paths = (
{
closed = 1;
nodes = (
"969 335 OFFCURVE",
"906 410 OFFCURVE",
"812 410 CURVE SMOOTH",
"743 410 OFFCURVE",
"695 376 OFFCURVE",
"665 318 CURVE",
"661 317 LINE",
"643 389 OFFCURVE",
"579 425 OFFCURVE",
"513 425 CURVE SMOOTH",
"389 425 OFFCURVE",
"320 330 OFFCURVE",
"320 214 CURVE SMOOTH",
"320 156 OFFCURVE",
"340 111 OFFCURVE",
"374 76 CURVE",
"372 73 LINE",
"335 75 OFFCURVE",
"290 76 OFFCURVE",
"271 76 CURVE SMOOTH",
"262 76 LINE SMOOTH",
"174 76 OFFCURVE",
"129 89 OFFCURVE",
"94 138 CURVE",
"49 78 LINE",
"69 30 OFFCURVE",
"136 0 OFFCURVE",
"240 0 CURVE SMOOTH",
"395 0 LINE",
"413 43 LINE",
"418 43 LINE",
"473 10 OFFCURVE",
"547 -5 OFFCURVE",
"628 -5 CURVE SMOOTH",
"812 -5 OFFCURVE",
"969 36 OFFCURVE",
"969 238 CURVE SMOOTH"
);
},
{
closed = 1;
nodes = (
"659 71 OFFCURVE",
"656 71 OFFCURVE",
"653 71 CURVE",
"662 120 OFFCURVE",
"664 148 OFFCURVE",
"681 208 CURVE SMOOTH",
"706 298 OFFCURVE",
"747 334 OFFCURVE",
"804 334 CURVE SMOOTH",
"856 334 OFFCURVE",
"894 295 OFFCURVE",
"894 230 CURVE SMOOTH",
"894 119 OFFCURVE",
"838 72 OFFCURVE",
"662 71 CURVE SMOOTH"
);
},
{
closed = 1;
nodes = (
"451 81 OFFCURVE",
"395 142 OFFCURVE",
"395 226 CURVE SMOOTH",
"395 297 OFFCURVE",
"438 350 OFFCURVE",
"503 350 CURVE SMOOTH",
"583 350 OFFCURVE",
"603 292 OFFCURVE",
"603 232 CURVE SMOOTH",
"603 189 OFFCURVE",
"597 137 OFFCURVE",
"583 73 CURVE"
);
}
);
width = 1037;
}
);
},
{
glyphname = uni0723.Fina;
lastChange = "2018-09-11 18:35:11 +0000";
layers = (
{
anchors = (
{
name = Anchor6;
position = "{452, -99}";
},
{
name = Anchor8;
position = "{457, 492}";
}
);
layerId = UUID0;
paths = (
{
closed = 1;
nodes = (
"891 0 LINE",
"891 76 LINE",
"781 76 LINE",
"781 78 LINE",
"808 108 OFFCURVE",
"818 156 OFFCURVE",
"818 208 CURVE SMOOTH",
"818 346 OFFCURVE",
"737 429 OFFCURVE",
"641 429 CURVE SMOOTH",
"566 429 OFFCURVE",
"495 391 OFFCURVE",
"459 300 CURVE",
"456 300 LINE",
"426 388 OFFCURVE",
"355 440 OFFCURVE",
"262 440 CURVE SMOOTH",
"158 440 OFFCURVE",
"68 359 OFFCURVE",
"68 221 CURVE SMOOTH",
"68 86 OFFCURVE",
"136 0 OFFCURVE",
"307 0 CURVE SMOOTH"
);
},
{
closed = 1;
nodes = (
"418 76 LINE",
"304 76 LINE SMOOTH",
"221 76 OFFCURVE",
"142 110 OFFCURVE",
"142 222 CURVE SMOOTH",
"142 320 OFFCURVE",
"199 367 OFFCURVE",
"263 367 CURVE SMOOTH",
"356 367 OFFCURVE",
"409 289 OFFCURVE",
"414 168 CURVE SMOOTH"
);
},
{
closed = 1;
nodes = (
"489 76 LINE",
"486 127 OFFCURVE",
"486 159 OFFCURVE",
"486 177 CURVE SMOOTH",
"486 295 OFFCURVE",
"565 355 OFFCURVE",
"633 355 CURVE SMOOTH",
"708 355 OFFCURVE",
"745 289 OFFCURVE",
"745 206 CURVE SMOOTH",
"745 99 OFFCURVE",
"687 76 OFFCURVE",
"574 76 CURVE SMOOTH"
);
}
);
width = 891;
}
);
},
{
glyphname = uni0723.Fina.SYRJ;
lastChange = "2018-09-11 18:35:11 +0000";
layers = (
{
anchors = (
{
name = Anchor120;
position = "{551, -98}";
},
{
name = Anchor122;
position = "{682, 477}";
}
);
layerId = UUID0;
paths = (
{
closed = 1;
nodes = (
"767 403 OFFCURVE",
"711 376 OFFCURVE",
"682 320 CURVE",
"679 320 LINE",
"647 370 OFFCURVE",
"592 399 OFFCURVE",
"521 399 CURVE SMOOTH",
"423 399 OFFCURVE",
"336 335 OFFCURVE",
"336 212 CURVE SMOOTH",
"336 156 OFFCURVE",
"352 113 OFFCURVE",
"385 78 CURVE",
"385 74 LINE",
"364 76 OFFCURVE",
"339 76 OFFCURVE",
"324 76 CURVE SMOOTH",
"287 76 LINE SMOOTH",
"173 76 OFFCURVE",
"127 125 OFFCURVE",
"127 198 CURVE SMOOTH",
"127 206 LINE",
"61 202 LINE",
"60 196 OFFCURVE",
"59 175 OFFCURVE",
"59 171 CURVE SMOOTH",
"59 62 OFFCURVE",
"142 0 OFFCURVE",
"278 0 CURVE SMOOTH",
"1089 0 LINE",
"1089 76 LINE",
"1024 76 LINE SMOOTH",
"1007 76 OFFCURVE",
"985 76 OFFCURVE",
"963 74 CURVE",
"963 78 LINE",
"995 105 OFFCURVE",
"1016 156 OFFCURVE",
"1016 208 CURVE SMOOTH",
"1016 327 OFFCURVE",
"941 403 OFFCURVE",
"827 403 CURVE SMOOTH"
);
},
{
closed = 1;
nodes = (
"450 76 OFFCURVE",
"407 138 OFFCURVE",
"407 216 CURVE SMOOTH",
"407 292 OFFCURVE",
"462 326 OFFCURVE",
"522 326 CURVE SMOOTH",
"609 326 OFFCURVE",
"652 266 OFFCURVE",
"652 168 CURVE SMOOTH",
"652 142 OFFCURVE",
"646 124 OFFCURVE",
"636 110 CURVE SMOOTH",
"614 79 OFFCURVE",
"571 76 OFFCURVE",
"534 76 CURVE SMOOTH"
);
},
{
closed = 1;
nodes = (
"782 76 OFFCURVE",
"751 83 OFFCURVE",
"731 110 CURVE SMOOTH",
"717 129 OFFCURVE",
"708 158 OFFCURVE",
"708 202 CURVE SMOOTH",
"708 295 OFFCURVE",
"773 330 OFFCURVE",
"827 330 CURVE SMOOTH",
"903 330 OFFCURVE",
"945 285 OFFCURVE",
"945 209 CURVE SMOOTH",
"945 110 OFFCURVE",
"875 76 OFFCURVE",
"812 76 CURVE SMOOTH"
);
}
);
width = 1089;
}
);
},
